<svg width="139" height="133" viewBox="0 0 139 133" fill="none" xmlns="http://www.w3.org/2000/svg">
<rect x="0.140625" y="0.0742188" width="138.697" height="132.773" rx="9.83274" fill="url(#paint0_linear_4420_545)"/>
<mask id="mask0_4420_545" style="mask-type:alpha" maskUnits="userSpaceOnUse" x="16" y="22" width="109" height="111">
<rect x="16.5625" y="22.8857" width="107.703" height="109.498" fill="#B15858"/>
</mask>
<g mask="url(#mask0_4420_545)">
<path d="M103.615 100.822C101.595 96.1989 98.6578 92.0494 94.9878 88.6332L91.9593 85.8082C91.8565 85.7149 91.7327 85.6487 91.5988 85.6154C91.465 85.5821 91.3251 85.5827 91.1916 85.6172C91.058 85.6516 90.9348 85.7189 90.8327 85.8131C90.7307 85.9073 90.653 86.0255 90.6064 86.1574L89.2534 90.1039C88.4105 92.5798 86.8598 95.1085 84.6639 97.5949C84.5182 97.7537 84.3517 97.796 84.2372 97.8066C84.1227 97.8171 83.9458 97.796 83.7897 97.6478C83.644 97.5209 83.5712 97.3304 83.5816 97.14C83.9666 90.7705 82.0934 83.5863 77.993 75.7672C74.6002 69.2708 69.8858 64.2027 63.9954 60.6688L59.6973 58.0977C59.1353 57.7591 58.4172 58.2035 58.4484 58.8701L58.6774 63.9488C58.8335 67.4192 58.438 70.4875 57.5014 73.0375C56.3566 76.1587 54.7123 79.0578 52.61 81.6606C51.147 83.4695 49.4888 85.1056 47.6666 86.5383C43.278 89.9681 39.7095 94.3629 37.2283 99.3936C34.7532 104.468 33.464 110.055 33.4609 115.719C33.4609 120.713 34.4288 125.549 36.3437 130.109C38.1927 134.5 40.861 138.484 44.2011 141.843C47.573 145.229 51.4861 147.895 55.8466 149.747C60.3633 151.672 65.1506 152.646 70.094 152.646C75.0373 152.646 79.8246 151.672 84.3413 149.757C88.6911 147.916 92.6466 145.232 95.9869 141.853C99.3588 138.468 102.002 134.511 103.844 130.12C105.756 125.572 106.737 120.676 106.727 115.73C106.727 110.567 105.686 105.552 103.615 100.822Z" fill="#FFF850"/>
<path d="M112.208 84.2144L112.208 84.214C111.575 82.7674 110.872 81.3578 110.1 79.9901L110.522 79.7522C108.955 76.9748 107.112 74.3686 105.02 71.975L104.655 72.2937C103.621 71.1095 102.525 69.978 101.371 68.9042L101.371 68.9038L100.41 68.0074L100.74 67.6533L98.8183 65.8605L98.4879 66.2146L97.5319 65.3228C97.5312 65.3221 97.5305 65.3215 97.5298 65.3209C97.5126 65.3054 97.4946 65.2911 97.4759 65.2779L97.7551 64.8822C97.6835 64.8317 97.6061 64.7902 97.5247 64.7588L97.3504 65.2107C97.3284 65.2022 97.3058 65.1951 97.2829 65.1894C97.2599 65.1837 97.2368 65.1794 97.2136 65.1766L97.2715 64.6958C97.1849 64.6854 97.0974 64.6857 97.011 64.6969L97.0731 65.1772C97.0499 65.1802 97.0267 65.1847 97.0039 65.1906C96.9809 65.1965 96.9584 65.2038 96.9365 65.2125L96.7583 64.7622C96.6771 64.7943 96.6001 64.8364 96.5289 64.8875L96.8116 65.2808C96.7922 65.2947 96.7737 65.3098 96.7559 65.3262C96.7381 65.3426 96.7213 65.3602 96.7057 65.3787L96.3362 65.0656C96.2793 65.1327 96.2307 65.2066 96.1915 65.2857L96.6254 65.5008C96.6149 65.522 96.6056 65.5439 96.5975 65.5664C96.5973 65.5672 96.597 65.5679 96.5968 65.5687L96.169 66.8166L95.7108 66.6595L94.8522 69.1641L95.3104 69.3211L94.8814 70.5724C94.8814 70.5725 94.8814 70.5725 94.8814 70.5725C94.582 71.4519 94.2145 72.3346 93.7812 73.2181L93.3464 73.0048C92.5713 74.585 91.5784 76.1737 90.3776 77.7559L90.7634 78.0487C90.2058 78.7833 89.6046 79.5158 88.9608 80.2448L88.9546 80.2518L88.9546 80.2517C88.8981 80.3132 88.8388 80.367 88.7776 80.4136L88.4838 80.0286C88.3902 80.1 88.2948 80.1414 88.2083 80.1653L88.337 80.6322C88.2496 80.6563 88.1693 80.6687 88.1008 80.675C88.0238 80.6822 87.9357 80.6825 87.8406 80.6705L87.9012 80.19C87.8113 80.1787 87.7104 80.1489 87.6107 80.0866L87.354 80.4973C87.288 80.456 87.2237 80.407 87.1623 80.3497C87.0896 80.2853 87.0261 80.2136 86.9719 80.1367L87.3678 79.8577C87.2984 79.7592 87.2531 79.6453 87.2337 79.5264L86.7557 79.6045C86.7404 79.511 86.7352 79.4156 86.7404 79.3203L86.7406 79.3175C86.8097 78.1735 86.8207 77.0077 86.7735 75.8207L87.2574 75.8014C87.167 73.5304 86.8663 71.1857 86.3561 68.772L85.8823 68.8722C85.4185 66.6779 84.7792 64.4233 83.9643 62.1119L84.4211 61.9509C83.6668 59.8113 82.764 57.6255 81.7131 55.3963L81.2751 55.6029C80.7834 54.56 80.259 53.5072 79.7019 52.4447L79.7015 52.444C79.1901 51.4648 78.655 50.5116 78.0964 49.5846L78.5113 49.3347C77.3532 47.4127 76.0949 45.6016 74.7391 43.9032L74.3606 44.2054C72.9842 42.4813 71.5067 40.8751 69.931 39.3887L70.2633 39.0364C68.6557 37.5198 66.9466 36.1264 65.139 34.8582L64.8609 35.2547C63.9699 34.6295 63.0547 34.0351 62.1156 33.4717C62.1155 33.4717 62.1155 33.4717 62.1155 33.4717L60.7522 32.6562L61.0008 32.2405L58.2732 30.6089L58.0245 31.0245L56.6607 30.2087L56.6594 30.2079C56.5644 30.1507 56.468 30.1281 56.3757 30.1299L56.3663 29.6457C55.9845 29.6532 55.6248 29.8779 55.4442 30.2227L55.8732 30.4474C55.8281 30.5336 55.8026 30.6352 55.808 30.7507L55.8081 30.7516L55.8807 32.3631L55.3969 32.3849L55.5422 35.6079L56.026 35.5861L56.0987 37.1976C56.1443 38.2113 56.1532 39.1993 56.1256 40.1597L55.6415 40.1458C55.5818 42.2212 55.349 44.1615 54.9447 45.9485L55.4171 46.0554C55.1904 47.0572 54.9104 48.0138 54.5769 48.9218C54.5769 48.9219 54.5769 48.922 54.5768 48.9221L54.1222 48.7551C53.7587 49.7461 53.3556 50.7195 52.9136 51.6737C52.0286 53.5844 50.9878 55.4185 49.7979 57.164L50.1981 57.4368C49.5993 58.3153 48.9632 59.1716 48.2908 60.0042L48.2906 60.0044C47.8215 60.5844 47.3368 61.1505 46.8371 61.7023L46.4781 61.3771C45.4887 62.4696 44.4398 63.5047 43.3363 64.4777L43.6566 64.841C43.0977 65.3337 42.525 65.8108 41.939 66.2714L41.9379 66.2723C41.2486 66.811 40.5754 67.3687 39.9189 67.9446L39.5995 67.5805C38.2705 68.7463 37.0094 69.9858 35.8217 71.2922L36.1801 71.618C35.0049 72.9107 33.9023 74.2697 32.8775 75.6885L32.4848 75.4049C31.4528 76.8337 30.499 78.3225 29.6285 79.8648L30.0502 80.1028C29.6214 80.8625 29.2131 81.6354 28.8258 82.4206C28.4378 83.2161 28.073 84.0217 27.7317 84.8363L27.285 84.6491C26.5932 86.2997 25.9968 87.9867 25.4976 89.7016L25.9627 89.8369C25.4683 91.5352 25.0704 93.261 24.7708 95.0058L24.2935 94.9239C23.9915 96.6827 23.7885 98.4605 23.6865 100.249L24.17 100.276C24.1197 101.158 24.0942 102.042 24.0937 102.928L112.208 84.2144ZM112.208 84.2144C112.531 84.9524 112.834 85.6959 113.117 86.4446L113.57 86.2733C114.147 87.7973 114.641 89.3427 115.053 90.9067L114.585 91.0301C114.995 92.5835 115.322 94.1554 115.567 95.7433L116.046 95.6693C116.293 97.2676 116.458 98.8819 116.54 100.509L116.056 100.534C116.096 101.333 116.117 102.136 116.117 102.942L116.117 102.943C116.12 104.493 116.045 106.039 115.895 107.575L116.377 107.622C116.071 110.737 115.456 113.812 114.539 116.8L114.076 116.658C113.623 118.135 113.096 119.59 112.496 121.018L112.495 121.018C111.918 122.395 111.277 123.738 110.575 125.045L111.002 125.274C109.578 127.925 107.905 130.426 105.993 132.756L105.619 132.449C104.679 133.594 103.681 134.698 102.626 135.757L102.625 135.758C101.58 136.815 100.486 137.818 99.3496 138.764L99.6594 139.136C97.3509 141.057 94.8643 142.746 92.2346 144.178L92.003 143.753C90.7024 144.461 89.3665 145.106 87.9995 145.684L87.9992 145.684C86.5818 146.285 85.1432 146.812 83.6859 147.265L83.8296 147.727C80.8715 148.646 77.8361 149.261 74.7418 149.568L74.694 149.086C73.1782 149.236 71.6478 149.312 70.1051 149.312C68.5621 149.312 67.0315 149.236 65.5154 149.086L65.4675 149.568C62.3729 149.261 59.3373 148.644 56.3791 147.721L56.5233 147.259C55.0666 146.805 53.6288 146.275 52.2119 145.671L52.2113 145.671C50.8416 145.089 49.5071 144.444 48.2097 143.736L47.9778 144.161C45.3486 142.727 42.8697 141.041 40.556 139.117L40.8657 138.744C39.7313 137.801 38.6369 136.8 37.5843 135.743C36.5344 134.688 35.5374 133.583 34.5961 132.433L34.2213 132.74C32.3188 130.415 30.6417 127.91 29.2134 125.258L29.6398 125.028C28.9362 123.721 28.2936 122.379 27.7148 121.005C27.1133 119.572 26.5862 118.118 26.1339 116.645L25.6709 116.787C24.7539 113.8 24.1412 110.734 23.836 107.609M112.208 84.2144L23.836 107.609M23.836 107.609L24.3181 107.562C24.1686 106.031 24.0937 104.486 24.0937 102.929L23.836 107.609Z" stroke="#FA8D5F" stroke-width="0.968646" stroke-dasharray="6.39 6.39"/>
<path d="M101.975 68.5098C103.801 80.9388 99.6011 103.932 68.1944 96.475C28.9361 87.1533 13.8718 99.7376 24.3711 133.296" stroke="white" stroke-width="1.82496"/>
</g>
<g clip-path="url(#clip0_4420_545)">
<g filter="url(#filter0_d_4420_545)">
<path d="M84.7767 21.0614C84.7767 19.2463 85.4977 17.5056 86.7811 16.2222C88.0645 14.9388 89.8052 14.2178 91.6203 14.2178H112.151C113.966 14.2178 115.707 14.9388 116.99 16.2222C118.274 17.5056 118.995 19.2463 118.995 21.0614V62.123C118.995 63.9381 118.274 65.6788 116.99 66.9622C115.707 68.2456 113.966 68.9666 112.151 68.9666H91.6203C89.8052 68.9666 88.0645 68.2456 86.7811 66.9622C85.4977 65.6788 84.7767 63.9381 84.7767 62.123V21.0614ZM96.753 56.9903C96.2992 56.9903 95.864 57.1706 95.5432 57.4914C95.2223 57.8123 95.0421 58.2475 95.0421 58.7012C95.0421 59.155 95.2223 59.5902 95.5432 59.911C95.864 60.2319 96.2992 60.4121 96.753 60.4121H107.018C107.472 60.4121 107.907 60.2319 108.228 59.911C108.549 59.5902 108.729 59.155 108.729 58.7012C108.729 58.2475 108.549 57.8123 108.228 57.4914C107.907 57.1706 107.472 56.9903 107.018 56.9903H96.753ZM77.6456 32.0899C77.3882 31.7268 76.9994 31.4783 76.5618 31.3972C76.1242 31.3161 75.6722 31.4087 75.3017 31.6554C74.9313 31.902 74.6715 32.2834 74.5776 32.7184C74.4837 33.1535 74.563 33.608 74.7987 33.9855L76.099 35.936C77.0708 37.3936 77.1871 39.262 76.4035 40.8291C75.7496 42.1378 75.4531 43.596 75.5438 45.0561C75.6345 46.5162 76.1093 47.9265 76.9202 49.1441L78.2205 51.0946C78.3417 51.2887 78.5007 51.4566 78.6879 51.5882C78.8752 51.7198 79.087 51.8125 79.3107 51.8608C79.5345 51.9092 79.7657 51.9121 79.9905 51.8694C80.2154 51.8268 80.4295 51.7394 80.62 51.6126C80.8105 51.4857 80.9737 51.3219 81.0998 51.1308C81.2258 50.9398 81.3123 50.7254 81.354 50.5003C81.3957 50.2752 81.3919 50.0441 81.3426 49.8205C81.2934 49.597 81.1998 49.3856 81.0674 49.1989L79.7672 47.2484C79.2895 46.5321 79.0097 45.7022 78.9563 44.8428C78.9028 43.9835 79.0775 43.1253 79.4626 42.3553C80.1165 41.0466 80.4131 39.5884 80.3223 38.1283C80.2316 36.6682 79.7568 35.2579 78.9459 34.0403L77.6456 32.0899ZM123.18 31.6142C123.557 31.363 124.019 31.272 124.464 31.3612C124.908 31.4504 125.299 31.7125 125.551 32.0899L126.851 34.0403C128.504 36.5177 128.699 39.6931 127.368 42.3553C126.983 43.1255 126.809 43.9839 126.863 44.8433C126.917 45.7028 127.197 46.5325 127.676 47.2484L128.976 49.1989C129.101 49.386 129.187 49.5959 129.23 49.8164C129.274 50.037 129.273 50.2639 129.229 50.4842C129.185 50.7046 129.097 50.9141 128.972 51.1007C128.847 51.2873 128.686 51.4474 128.499 51.5719C128.312 51.6964 128.102 51.7828 127.881 51.8261C127.661 51.8695 127.434 51.869 127.213 51.8247C126.993 51.7804 126.784 51.6931 126.597 51.5678C126.41 51.4425 126.25 51.2817 126.126 51.0946L124.825 49.1441C124.015 47.9265 123.54 46.5162 123.449 45.0561C123.358 43.596 123.655 42.1378 124.309 40.8291C124.693 40.0588 124.868 39.2004 124.813 38.3411C124.759 37.4818 124.479 36.652 124.001 35.936L122.704 33.9855C122.453 33.6079 122.362 33.1461 122.451 32.7014C122.54 32.2568 122.802 31.8657 123.18 31.6142Z" fill="white"/>
</g>
</g>
<defs>
<filter id="filter0_d_4420_545" x="67.2392" y="14.2178" width="62.0264" height="62.0489" filterUnits="userSpaceOnUse" color-interpolation-filters="sRGB">
<feFlood flood-opacity="0" result="BackgroundImageFix"/>
<feColorMatrix in="SourceAlpha" type="matrix" values="0 0 0 0 0 0 0 0 0 0 0 0 0 0 0 0 0 0 127 0" result="hardAlpha"/>
<feOffset dx="-3.64992" dy="3.64992"/>
<feGaussianBlur stdDeviation="1.82496"/>
<feComposite in2="hardAlpha" operator="out"/>
<feColorMatrix type="matrix" values="0 0 0 0 0.5125 0 0 0 0 0.352045 0 0 0 0 0.0405729 0 0 0 0.29 0"/>
<feBlend mode="normal" in2="BackgroundImageFix" result="effect1_dropShadow_4420_545"/>
<feBlend mode="normal" in="SourceGraphic" in2="effect1_dropShadow_4420_545" result="shape"/>
</filter>
<linearGradient id="paint0_linear_4420_545" x1="132.45" y1="133.296" x2="0.14061" y2="0.0742333" gradientUnits="userSpaceOnUse">
<stop stop-color="#FFC223"/>
<stop offset="1" stop-color="#F5E9C8"/>
</linearGradient>
<clipPath id="clip0_4420_545">
<rect width="68.4361" height="68.4361" fill="white" transform="translate(67.6641 7.37402)"/>
</clipPath>
</defs>
</svg>
