<svg width="54" height="32" viewBox="0 0 54 32" fill="none" xmlns="http://www.w3.org/2000/svg">
<path d="M29.7306 11.8163C30.5096 11.2694 31.2864 10.7196 32.0681 10.1775C32.5847 9.81843 33.0885 9.43417 33.634 9.12891C34.1888 8.81764 34.7448 8.88091 35.1383 9.38529C35.5305 9.88923 35.4876 10.4359 35.0211 10.9078C34.6608 11.2718 34.2645 11.6076 33.855 11.9168C32.213 13.1552 30.548 14.3637 28.9124 15.6115C27.5162 16.6759 26.5077 16.4698 25.9472 14.8392C25.2448 12.7953 24.6441 10.7131 24.0224 8.63889C23.8309 8.00116 23.8977 7.35295 24.6365 7.08212C25.3361 6.82568 25.8073 7.17108 26.0788 7.82967C26.3491 8.48699 26.6567 9.12736 27.0708 10.047C27.284 9.49119 27.4528 9.17659 27.5241 8.845C27.9773 6.74147 28.4074 4.63411 28.8502 2.5286C28.9319 2.14253 28.9793 1.73574 29.1422 1.38144C29.4214 0.775676 29.8737 0.288455 30.5994 0.494684C31.3253 0.700418 31.3838 1.2692 31.2434 1.97282C30.6891 4.7469 30.1794 7.52831 29.6561 10.3078C29.5745 10.7429 29.5096 11.18 29.4365 11.6159C29.5346 11.683 29.6326 11.7493 29.7306 11.8163Z" fill="#FFAE45"/>
<path d="M10.8969 12.5693C10.8967 11.9733 10.8888 11.3762 10.8991 10.7813C10.9101 10.1099 10.894 9.43181 10.9695 8.77154C11.0414 8.14252 11.4591 7.80491 12.1152 7.84453C12.7901 7.88538 13.1474 8.3241 13.2766 8.94608C13.3456 9.2783 13.3509 9.61993 13.3689 9.95699C13.4985 12.3206 13.6149 14.684 13.753 17.0474C13.8644 18.9434 12.9961 19.5971 11.3097 18.6598C9.43184 17.6163 7.64371 16.3884 5.84338 15.1982C5.28945 14.8319 4.87559 14.2984 5.23543 13.6032C5.53694 13.0205 6.06988 12.9803 6.9868 13.4543C7.43369 13.6857 7.8735 13.9335 8.64473 14.3525C8.38084 13.7047 8.2866 13.3513 8.10381 13.0454C7.08792 11.347 6.0481 9.66144 5.0208 7.96822C4.71947 7.47155 4.372 6.98652 4.15673 6.45908C3.92751 5.89677 3.94953 5.2977 4.53418 4.99977C5.19963 4.66027 5.71616 4.99787 6.10966 5.61495C7.26886 7.43264 8.4279 9.25018 9.58733 11.0674C9.92233 11.592 10.2589 12.1145 10.5955 12.6385C10.6957 12.6151 10.7963 12.5922 10.8969 12.5693Z" fill="#FFAE45"/>
<path d="M43.8646 25.6817C45.0142 26.1756 45.8904 26.5396 46.7547 26.9286C47.1601 27.1111 47.5779 27.2946 47.9262 27.559C48.3539 27.8846 48.6239 28.4166 48.2083 28.8903C47.9112 29.2292 47.3652 29.4325 46.9075 29.5252C46.6154 29.5833 46.2738 29.3433 45.9662 29.2127C44.4194 28.56 42.8736 27.9067 41.3343 27.2395C39.8478 26.595 39.3824 25.309 40.3026 23.9253C41.4128 22.2563 42.675 20.6819 43.8827 19.0754C44.0582 18.8419 44.272 18.5371 44.5125 18.4698C44.9724 18.3412 45.5532 18.185 45.9229 18.356C46.5146 18.6291 46.5168 19.3184 46.1522 19.8481C45.6218 20.62 44.9747 21.3161 44.1838 22.2796C44.7179 22.1923 45.016 22.1914 45.2823 22.0918C46.7066 21.5604 48.1203 20.993 49.5457 20.4643C49.924 20.3237 50.36 20.1593 50.717 20.2229C51.0535 20.282 51.4744 20.5667 51.5756 20.8647C51.674 21.1553 51.5248 21.7038 51.2868 21.9299C50.9216 22.2778 50.3975 22.4721 49.9233 22.6871C48.2682 23.4377 46.6028 24.1601 44.9503 24.9171C44.6523 25.0535 44.3982 25.3005 43.8646 25.6817Z" fill="#FFAE45"/>
</svg>
