<svg width="80" height="67" viewBox="0 0 80 67" fill="none" xmlns="http://www.w3.org/2000/svg">
<path d="M22.8659 17.7972L23.3907 20.5316L17.0927 21.7545L17.7855 25.3286L22.5982 24.3944L23.1231 27.0186L18.3051 27.9528L19.0136 31.6004L25.3116 30.3775L25.8365 33.1119L15.9748 35.0276L12.9938 19.7129L22.8659 17.7972Z" fill="#0E1A2F"/>
<path d="M33.6312 18.9361C33.5711 19.0982 33.4842 19.249 33.374 19.3822C33.2576 19.4948 33.109 19.5682 32.9489 19.5922C32.7637 19.6223 32.574 19.6042 32.3978 19.5397L31.6998 19.3245C31.4169 19.2375 31.1272 19.1743 30.8338 19.1355C30.4834 19.0952 30.1288 19.1129 29.7841 19.188C29.244 19.2467 28.7439 19.5005 28.3776 19.9018C28.2433 20.0762 28.1496 20.2783 28.1033 20.4935C28.057 20.7087 28.0592 20.9315 28.1099 21.1457C28.1589 21.433 28.3192 21.6895 28.556 21.8594C28.8225 22.0369 29.1198 22.1633 29.4325 22.2321C29.8175 22.3244 30.2086 22.3893 30.6029 22.4263C31.0385 22.4683 31.4793 22.5207 31.9412 22.589C32.3998 22.6569 32.8538 22.7533 33.3005 22.8776C33.7427 22.9992 34.1626 23.1905 34.5444 23.4444C34.9356 23.7123 35.2737 24.0504 35.5416 24.4416C35.8509 24.9189 36.0582 25.4549 36.1504 26.0161C36.2839 26.6954 36.2839 27.3942 36.1504 28.0735C36.0294 28.727 35.7719 29.3475 35.3946 29.8947C34.9945 30.4667 34.4798 30.9493 33.8831 31.3117C33.1917 31.7321 32.4282 32.0204 31.6315 32.1619C31.1421 32.2559 30.6446 32.3016 30.1463 32.2984C29.6378 32.2954 29.1304 32.2497 28.6295 32.1619C28.1432 32.0771 27.6654 31.9489 27.2019 31.7788C26.7714 31.6233 26.3609 31.4172 25.9791 31.1648L26.7086 29.3016C26.7634 29.1559 26.8557 29.0274 26.9763 28.929C27.0997 28.8249 27.248 28.7544 27.4066 28.7243C27.6336 28.6893 27.8657 28.7165 28.0784 28.803C28.3198 28.8975 28.6033 28.9972 28.8919 29.1022C29.2208 29.2206 29.5599 29.3084 29.9049 29.3646C30.3308 29.4279 30.7646 29.4137 31.1855 29.3226C31.7276 29.252 32.2295 28.9984 32.6077 28.6036C32.7637 28.3995 32.8697 28.1616 32.9171 27.9091C32.9645 27.6567 32.952 27.3966 32.8807 27.1498C32.8328 26.8307 32.6682 26.5408 32.4188 26.3363C32.1577 26.1381 31.857 25.9985 31.5371 25.9269C31.1538 25.8381 30.7643 25.7784 30.3719 25.7485C29.9468 25.717 29.5007 25.675 29.0494 25.6173C28.5939 25.5655 28.143 25.4796 27.7005 25.3601C27.2563 25.2393 26.8357 25.0441 26.4567 24.7828C26.0552 24.5024 25.7128 24.1457 25.449 23.7331C25.1224 23.198 24.9031 22.6044 24.8035 21.9854C24.6923 21.3961 24.7019 20.7903 24.8319 20.2048C24.9618 19.6193 25.2092 19.0662 25.5592 18.5792C25.9512 18.041 26.4429 17.583 27.0078 17.2304C27.6726 16.8241 28.4079 16.5464 29.1753 16.4117C29.6359 16.3233 30.1027 16.2706 30.5714 16.2542C31.0156 16.242 31.4601 16.2701 31.8992 16.3382C32.3132 16.3989 32.7207 16.4973 33.1168 16.6321C33.4852 16.7672 33.8373 16.9433 34.1665 17.1569L33.6312 18.9361Z" fill="#0E1A2F"/>
<path d="M45.3441 13.4304L45.8689 16.1648L39.5709 17.3877L40.3214 21.2662L45.5698 20.248L46.0946 22.9929L40.8462 24.0111L42.0061 29.9732L38.432 30.666L35.4509 15.3461L45.3441 13.4304Z" fill="#0E1A2F"/>
<path d="M17.9423 48.0224L15.9952 38.0033L19.669 37.2895C20.2598 37.1602 20.865 37.109 21.4692 37.1373C21.9175 37.1538 22.3582 37.259 22.7655 37.447C23.1123 37.599 23.4115 37.842 23.6315 38.1503C23.8482 38.477 23.9947 38.8451 24.0619 39.2314C24.1037 39.451 24.1143 39.6754 24.0934 39.898C24.066 40.122 24.0022 40.3401 23.9044 40.5435C23.7915 40.7661 23.6445 40.9698 23.4688 41.1471C23.2578 41.3491 23.0235 41.5253 22.7708 41.6719C23.3474 41.6668 23.9117 41.839 24.3873 42.1652C24.7868 42.4879 25.0508 42.9485 25.1273 43.4563C25.2167 43.8644 25.2167 44.2869 25.1273 44.6949C25.0363 45.0967 24.857 45.4732 24.6024 45.7971C24.3131 46.1521 23.9563 46.4464 23.5528 46.6631C23.0595 46.9213 22.5279 47.0985 21.9783 47.1879L17.9423 48.0224ZM19.1337 41.7664L20.346 41.5302C20.5785 41.487 20.8068 41.4238 21.0283 41.3412C21.2086 41.2759 21.3744 41.1761 21.5164 41.0473C21.643 40.9284 21.7323 40.7752 21.7736 40.6065C21.8208 40.3992 21.8208 40.184 21.7736 39.9767C21.7438 39.7727 21.6743 39.5765 21.5689 39.3994C21.4879 39.2592 21.3674 39.146 21.2225 39.074C21.0588 38.9956 20.8792 38.9561 20.6977 38.9585C20.4667 38.956 20.2361 38.9788 20.0101 39.0267L18.6508 39.2891L19.1337 41.7664ZM19.4381 43.3409L19.9209 45.8338L21.5584 45.5189C21.8156 45.4768 22.0628 45.3879 22.2879 45.2565C22.4515 45.1604 22.5885 45.0251 22.6868 44.8629C22.7738 44.7237 22.8244 44.5649 22.8338 44.401C22.8442 44.2377 22.8336 44.0736 22.8023 43.9129C22.7719 43.7442 22.7152 43.5813 22.6343 43.4301C22.5585 43.2964 22.4478 43.1858 22.3142 43.1099C22.1525 43.0227 21.9729 42.9742 21.7893 42.9682C21.5394 42.9514 21.2884 42.9708 21.0441 43.026L19.4381 43.3409Z" fill="#0E1A2F"/>
<path d="M31.2004 35.0484L31.5467 36.838L27.4373 37.6253L27.8939 39.9608L31.0429 39.352L31.3788 41.0682L28.2298 41.6823L28.6917 44.065L32.8064 43.2673L33.1527 45.0517L26.7025 46.3061L24.7554 36.2922L31.2004 35.0484Z" fill="#0E1A2F"/>
<path d="M35.8088 40.7009L36.5278 44.4062L34.2081 44.8576L32.2609 34.8437L35.5149 34.2087C36.1389 34.0756 36.7783 34.0297 37.4148 34.0722C37.8918 34.1068 38.3574 34.2352 38.7846 34.4501C39.1449 34.6387 39.4505 34.9171 39.6716 35.2584C39.8966 35.604 40.0501 35.9913 40.123 36.3972C40.1852 36.7081 40.2012 37.0264 40.1702 37.3419C40.1411 37.6447 40.0631 37.9407 39.9393 38.2184C39.805 38.5026 39.628 38.7645 39.4144 38.9952C39.1887 39.2454 38.929 39.4627 38.6429 39.6407C38.8153 39.688 38.9811 39.7568 39.1363 39.8454C39.3009 39.9362 39.4484 40.0552 39.5719 40.197L42.3797 43.2673L40.2804 43.6767C40.1189 43.7164 39.9495 43.7116 39.7906 43.6626C39.6316 43.6136 39.4889 43.5223 39.3777 43.3985L37.1471 40.8111C37.0661 40.7094 36.9591 40.6315 36.8375 40.5854C36.6961 40.5507 36.5485 40.5507 36.4071 40.5854L35.8088 40.7009ZM35.4992 39.1001L36.4334 38.9165C36.7083 38.8701 36.9729 38.7759 37.2154 38.6383C37.4073 38.5316 37.5724 38.3826 37.6982 38.2027C37.811 38.0339 37.8845 37.842 37.9134 37.6411C37.9471 37.4308 37.9471 37.2164 37.9134 37.0061C37.8875 36.8089 37.8169 36.6203 37.7068 36.4547C37.5967 36.2891 37.4501 36.151 37.2784 36.0509C36.84 35.8463 36.3429 35.8053 35.877 35.9354L34.9428 36.1191L35.4992 39.1001Z" fill="#0E1A2F"/>
<path d="M45.0342 40.827L48.75 40.1027L49.1069 41.9607L43.0503 43.1363L41.1032 33.1172L43.4282 32.6658L45.0342 40.827Z" fill="#0E1A2F"/>
<path d="M52.4989 41.2993L50.1581 41.7507L48.211 31.7368L50.5518 31.2802L52.4989 41.2993Z" fill="#0E1A2F"/>
<path d="M53.6214 30.7028C53.6857 30.6923 53.7513 30.6923 53.8156 30.7028C53.8786 30.7201 53.9388 30.7466 53.994 30.7816C54.0678 30.8268 54.138 30.8777 54.204 30.9338L60.1293 36.0247C60.0716 35.8305 60.0244 35.652 59.9771 35.4683C59.9299 35.2846 59.8984 35.1219 59.8669 34.9435L58.8173 29.6427L60.8694 29.249L62.8165 39.2629L61.6041 39.4991C61.45 39.5305 61.2911 39.5305 61.137 39.4991C60.98 39.4554 60.836 39.3744 60.7172 39.2629L54.8338 34.2192C54.8862 34.3872 54.9282 34.5551 54.9702 34.7441C55.0122 34.933 55.0489 35.0642 55.0752 35.2112L56.1249 40.5802L54.078 40.9791L52.1309 30.96L53.3537 30.7238C53.4423 30.7105 53.5318 30.7035 53.6214 30.7028Z" fill="#0E1A2F"/>
<path d="M30.1922 8.53381L32.9423 6.52894L35.6872 8.53381L34.6428 5.29033L37.4349 3.28022H33.992L32.9423 0L31.8874 3.28547L28.4497 3.28022L31.2366 5.29033L30.1922 8.53381Z" fill="#0E1A2F"/>
<path d="M15.9695 12.3546L18.7144 10.3498L21.4645 12.3546L20.4201 9.11114L23.207 7.10627H19.7693L18.7144 3.81556L17.6595 7.10627H14.2218L17.0139 9.11114L15.9695 12.3546Z" fill="#0E1A2F"/>
<path d="M8.30789 14.2492L7.25822 17.5399L3.8153 17.5347L6.60743 19.5395L5.563 22.783L8.30789 20.7782L11.058 22.783L10.0136 19.5395L12.8005 17.5347H9.36281L8.30789 14.2492Z" fill="#0E1A2F"/>
<path d="M3.43766 31.7474L0 31.7421L2.79211 33.747L1.74244 36.9905L4.49258 34.9856L7.23746 36.9905L6.19304 33.747L8.98517 31.7421H5.54749L4.49258 28.4567L3.43766 31.7474Z" fill="#0E1A2F"/>
<path d="M9.36281 45.9912L8.30789 42.7005L7.25822 45.9965L3.8153 45.9912L6.60743 47.9961L5.563 51.2395L8.30789 49.2294L11.058 51.2395L10.0136 47.9961L12.8005 45.9912H9.36281Z" fill="#0E1A2F"/>
<path d="M54.8287 22.741L57.5788 20.7361L60.3237 22.741L59.2793 19.4975L62.0714 17.4979H58.6337L57.5788 14.2072L56.5239 17.4979H53.0862L55.8783 19.4975L54.8287 22.741Z" fill="#0E1A2F"/>
<path d="M47.1867 3.82068L46.137 7.1114L42.6941 7.10615L45.4862 9.11627L44.4418 12.3597L47.1919 10.3496L49.9368 12.3597L48.8924 9.11627L51.6845 7.10615H48.2416L47.1867 3.82068Z" fill="#0E1A2F"/>
<path d="M77.2131 59.7787V61.8781H75.4917V61.285L73.9801 59.1437L72.689 61.3007V62.702H71.1145L70.6474 36.9851H71.4872V35.6048H70.6474V35.1902C71.7237 34.8794 72.6748 34.2375 73.3656 33.3557C74.0565 32.4738 74.4521 31.3967 74.4962 30.2773C74.5404 29.158 74.2309 28.0531 73.6116 27.1196C72.9923 26.186 72.0948 25.4712 71.0463 25.0766V21.7754H71.7968V20.9357H70.3955V19.1303H69.6817V5.54229H68.7003V19.1303H67.9865V20.9357H66.5957V21.7754H67.3462V25.0661C66.2978 25.4607 65.4002 26.1755 64.7809 27.1091C64.1617 28.0426 63.8521 29.1475 63.8963 30.2668C63.9404 31.3862 64.336 32.4633 65.0269 33.3452C65.7177 34.227 66.6688 34.8689 67.7451 35.1797V35.5943H66.9054V36.9746H67.7451L67.278 62.4029L66.2283 63.0642V57.4065H63.6409V59.3484H61.7043L59.332 61.9725V57.3907H55.8838V61.92H53.0812V59.763H50.457V58.1885L51.8583 55.7217H49.5701L50.0949 53.5437H40.2857L39.7609 52.8876H37.016L38.4593 51.3131V49.7386L37.4096 50.7883L36.5594 51.2711V49.3345H35.7512V50.3369L35.0479 50.3737V46.9622H34.2029V49.3345H33.2005V50.7148L31.1536 49.3345V51.796L32.6704 53.2655H18.8252V54.0003L19.644 54.5251V55.748H17.7703V56.7977L18.9984 57.8473V59.7577H16.4425V61.0068L14.4481 59.1069L11.9132 61.264V63.3633H11.2099V61.0436H8.68019V63.631L7.16867 61.9568L5.44721 63.8462V66.5333H22.8927V61.0698H24.5984V66.5701H27.4115V61.0698H30.1302V66.5701H32.6022V61.0698H37.1997V66.5701H40.0915V61.0698H42.1384V66.5701H45.2874V61.0698H46.8199V66.5701H80V59.7787H77.2131Z" fill="#0E1A2F"/>
</svg>
