<svg width="144" height="139" viewBox="0 0 144 139" fill="none" xmlns="http://www.w3.org/2000/svg">
<g filter="url(#filter0_i_4420_855)">
<rect x="0.101562" y="0.0742188" width="138.697" height="132.773" rx="9.83274" fill="url(#paint0_linear_4420_855)"/>
</g>
<g filter="url(#filter1_d_4420_855)">
<rect x="9.22656" y="80.4453" width="49.274" height="49.274" rx="9.6723" transform="rotate(-14.018 9.22656 80.4453)" fill="#FFFBF6"/>
<path d="M53.7646 104.726C53.4599 104.519 53.2272 104.053 52.9743 103.557C52.7244 103.063 52.4477 102.532 51.9256 102.276L51.925 102.273C51.7337 102.176 51.5271 102.113 51.3142 102.087C51.4714 100.162 50.7944 98.4539 49.7934 97.0086C48.5608 95.2339 46.8412 93.849 45.5613 92.9287C44.1077 91.8089 42.6957 90.7546 42.2266 88.7943C41.5142 85.7992 40.427 80.1878 35.171 81.4924C34.9566 81.5459 34.7375 81.6108 34.5112 81.6875C28.7554 83.6255 31.8622 89.4412 32.2926 91.5402C32.5648 93.0865 32.556 94.3589 31.8815 96.1062C31.0194 97.8725 29.8818 100.664 29.6768 103.329C29.5805 104.585 29.6903 105.815 30.1412 106.892C30.0984 106.953 30.0608 107.016 30.0263 107.08C29.7624 107.553 29.6121 108.087 29.3929 108.476C29.1856 108.821 28.8164 109.024 28.4215 109.287C28.0249 109.553 27.6056 109.901 27.456 110.528L27.4566 110.53C27.391 110.812 27.3973 111.105 27.4748 111.383C27.539 111.641 27.6419 111.891 27.7425 112.131C27.9543 112.635 28.1584 113.108 28.1344 113.468C28.0263 114.495 28.1428 115.154 28.5035 115.565C28.8648 115.978 29.4119 116.062 30.0056 116.037C31.1916 115.994 32.7035 115.554 34.0651 115.889C35.5195 116.242 36.8866 116.154 37.8686 115.658C38.2147 115.496 38.5176 115.254 38.7528 114.953C38.9879 114.651 39.1486 114.299 39.2219 113.924C40.0353 113.716 40.8429 113.15 42.2541 112.711C43.2069 112.392 44.5268 112.511 45.9012 112.087C45.9751 112.229 46.066 112.362 46.1719 112.482L46.1749 112.484C46.9862 113.433 48.1167 113.674 49.1678 113.323C50.2182 112.97 51.1991 112.054 51.8467 110.726C52.4616 109.439 53.8092 108.635 54.6306 107.81C55.0409 107.396 55.3429 106.933 55.2389 106.395C55.1379 105.859 54.6778 105.343 53.7646 104.726Z" fill="#202020"/>
<path d="M54.7945 106.48C54.8593 106.811 54.6824 107.116 54.3119 107.487C53.5674 108.234 52.131 109.079 51.4423 110.526C50.8358 111.765 49.9275 112.587 49.0218 112.891C48.1179 113.193 47.2272 113.01 46.5201 112.185L46.5189 112.18C46.0874 111.698 45.9907 110.794 46.0059 109.811C46.0211 108.828 46.1369 107.792 45.9925 107.011C45.7933 106.01 45.6352 105.134 45.636 104.428C45.6363 103.719 45.7841 103.206 46.1825 102.836C46.2009 102.819 46.2196 102.803 46.2385 102.787C46.5044 103.629 47.146 104.395 47.9409 104.396C48.8113 104.407 49.8155 103.412 50.17 102.714L50.4582 102.632C50.8935 102.51 51.2644 102.445 51.7222 102.678C52.0711 102.849 52.3252 103.279 52.5727 103.763C52.8208 104.251 53.0565 104.789 53.5112 105.1C54.3851 105.692 54.7339 106.146 54.7945 106.48ZM38.7754 113.048L38.7772 113.055C38.9549 114.111 38.5099 114.822 37.6655 115.251C36.8187 115.68 35.5504 115.779 34.1775 115.448C32.6534 115.07 31.0707 115.541 29.993 115.582C29.4517 115.603 29.0755 115.525 28.8487 115.266C28.6213 115.004 28.4864 114.483 28.5897 113.509L28.5891 113.506L28.5903 113.501C28.6279 112.963 28.3727 112.447 28.1662 111.954C27.9604 111.464 27.8057 111.007 27.8987 110.64L27.9005 110.637C28.0168 110.15 28.3068 109.913 28.6778 109.666C29.0459 109.417 29.5008 109.182 29.7868 108.706L29.7886 108.703C30.0477 108.241 30.2003 107.707 30.4273 107.298C30.6197 106.954 30.8353 106.703 31.2277 106.603L31.2396 106.6C31.314 106.582 31.3897 106.57 31.4659 106.563C32.0095 106.511 32.556 106.764 33.1453 107.25L34.9922 109.246L34.9928 109.248C35.5071 109.869 36.4131 110.467 37.2155 111.107C38.0185 111.749 38.6833 112.426 38.7754 113.048Z" fill="#F8BF11"/>
<path d="M39.7235 89.9C39.5712 89.7255 39.3164 89.5867 38.9228 89.5306C38.1054 89.3981 37.7809 89.4564 37.3022 89.2925C36.5277 89.0279 35.9353 89.0164 35.4756 89.1312C35.2552 89.1873 35.0457 89.2798 34.8557 89.4048C34.3411 89.7357 34.0707 90.2334 33.892 90.5108C33.8556 90.5679 33.808 90.6203 33.6918 90.7632C33.5745 90.9013 33.4 91.1144 33.1486 91.4251C32.9211 91.6995 32.9007 91.993 33.0745 92.2837C33.2483 92.5743 33.6417 92.8632 34.2752 93.039C34.6711 93.1552 34.9777 93.3697 35.3033 93.5186C35.468 93.598 35.6429 93.6539 35.823 93.6849C36.013 93.7159 36.2255 93.716 36.4768 93.6685C37.0764 93.5567 37.4653 93.2699 37.7923 92.958C38.1187 92.6437 38.376 92.2961 38.7172 92.0818C39.4199 91.6534 39.8458 91.0384 39.9032 90.5383C39.9209 90.4253 39.914 90.3097 39.883 90.1995C39.852 90.0894 39.7976 89.9872 39.7235 89.9Z" fill="#D6A312"/>
<path d="M38.0652 91.5063C37.537 91.9747 36.9253 92.5348 36.1703 92.7233C35.4176 92.9112 34.7353 92.7121 34.224 92.4779C33.968 92.3647 33.7513 92.2366 33.59 92.1479C33.3167 92.0263 33.2823 91.7667 33.3769 91.7507C33.5389 91.7305 33.6144 91.9317 33.7353 92.0003C33.8996 92.0908 34.1068 92.2111 34.349 92.3202C34.8342 92.5406 35.4528 92.7177 36.1269 92.5494C36.8033 92.3805 37.4906 91.7889 37.9039 91.3972C38.1398 91.1764 38.4167 90.8163 38.6484 90.5383C38.823 90.3252 38.7682 90.1365 38.9522 90.1133C39.1362 90.0901 39.0528 90.3134 38.8568 90.5926C38.6614 90.8741 38.341 91.2628 38.0652 91.5063Z" fill="#202020"/>
<path d="M50.582 102.132C50.4988 102.151 50.4162 102.171 50.3343 102.194L50.3104 102.2C50.3553 101.488 49.7725 101.12 48.4074 100.871C46.9957 100.629 45.9948 100.937 46.1069 102.116C46.1099 102.179 46.1152 102.241 46.1259 102.304C46.036 102.363 45.9511 102.43 45.8722 102.504C45.3535 102.98 45.1752 103.654 45.1762 104.428C45.1765 105.2 45.3435 106.092 45.5409 107.095C45.6336 107.598 45.5965 108.321 45.5676 109.088C43.8546 111.094 41.1213 112.46 38.2446 111.397C38.0125 111.176 37.7565 110.962 37.4946 110.754C37.3282 110.621 37.1605 110.49 36.9916 110.361C37.2119 110.312 37.4193 110.217 37.6002 110.082C37.6905 110.015 37.7663 109.93 37.8228 109.832C37.8793 109.734 37.9155 109.626 37.929 109.514C37.978 109.072 37.6864 108.543 37.0436 108.015C36.4025 107.484 35.4077 106.956 34.0313 106.52C33.018 106.191 32.3609 105.647 31.9514 104.98C31.539 104.311 31.3738 103.517 31.3568 102.699C31.3257 101.125 31.8383 99.4591 32.1667 98.413C32.2894 98.266 32.2726 98.6042 31.9417 99.9039C31.6508 101.09 31.2183 103.766 33.107 105.301C32.8097 103.948 32.7864 102.497 33.0077 101.083C33.3471 99.1077 34.2187 95.6159 33.7337 93.1257C33.8147 93.1561 34.0826 93.2562 34.2016 93.2872C34.5463 93.391 34.8374 93.5941 35.1892 93.7567C35.6518 93.9838 36.182 94.0317 36.6777 93.8912C37.2494 93.7485 37.6478 93.4491 37.964 93.1449C38.3119 92.8152 38.5668 92.4783 38.8497 92.3039C39.4422 91.9409 39.8675 91.4552 40.054 90.9658C41.0477 92.8179 42.9266 95.3775 44.0218 96.5818C44.6039 97.2208 45.7889 98.5924 46.6011 100.396C46.8166 100.337 47.0619 100.306 47.3358 100.309C47.6504 97.7684 45.3736 95.6825 44.445 95.1756C44.0664 94.9563 44.0164 94.8271 44.173 94.7956C45.1707 95.3157 46.6118 96.507 47.4157 98.0547C47.7817 98.7604 48.0142 99.5398 48.0181 100.366C48.1235 100.383 48.2289 100.4 48.3361 100.424C49.9465 100.763 50.6293 101.238 50.582 102.132Z" fill="#FFFBF6"/>
<path d="M38.7996 98.4155C37.4765 98.7508 36.3313 99.6668 35.5145 101.047C34.6948 102.426 34.2429 104.204 34.2125 106.149L34.3804 106.204L34.3828 106.213C35.6794 106.644 36.6557 107.159 37.3153 107.703C38.0129 108.277 38.4152 108.906 38.3424 109.557C38.3005 109.887 38.1298 110.187 37.8676 110.391L37.7788 110.451C38.0128 110.638 38.2437 110.834 38.4645 111.039C41.0864 111.974 43.5637 110.768 45.1909 108.925C45.2161 108.215 45.2366 107.557 45.1641 107.165C44.9673 106.164 44.7932 105.254 44.7934 104.424C44.7925 103.589 44.9952 102.779 45.6164 102.207C45.6509 102.173 45.6884 102.151 45.7242 102.122C45.718 102.043 45.7168 101.964 45.7207 101.885C44.7744 100.547 43.6351 99.5209 42.4231 98.9126C41.2086 98.3049 39.9589 98.1336 38.802 98.4149L38.7996 98.4155ZM45.726 102.139L45.7242 102.152L45.723 102.147L45.723 102.137L45.726 102.139Z" fill="#E6E6E6"/>
<path d="M39.229 87.6074C39.38 88.1685 39.337 88.7641 39.107 89.2977C38.9169 89.264 38.7259 89.2358 38.5343 89.213L38.205 89.1813C38.2533 89.0807 38.3629 88.9521 38.3843 88.8152C38.4139 88.6126 38.4053 88.4062 38.3589 88.2067L38.3554 88.1823C38.3136 87.99 38.2379 87.8067 38.1317 87.641C38.0425 87.4877 37.9165 87.3592 37.765 87.267C37.7044 87.228 37.6367 87.2015 37.5658 87.1888C37.4949 87.1761 37.4222 87.1775 37.3518 87.193L37.3352 87.1972C37.2023 87.2323 37.0869 87.3151 37.0112 87.4299C36.9093 87.5749 36.8452 87.7431 36.8247 87.9192C36.7955 88.1219 36.8041 88.3282 36.8501 88.5277L36.856 88.5515C36.8801 88.6641 36.9152 88.774 36.9607 88.8796C36.6594 88.8224 36.3528 88.7971 36.0462 88.8043C36.0061 88.7027 35.9718 88.5989 35.9433 88.4935L35.9356 88.4625C35.8341 88.099 35.8149 87.7174 35.8793 87.3455C35.9285 87.0057 36.0666 86.6849 36.2798 86.4156C36.4661 86.1689 36.731 85.993 37.0307 85.9169L37.045 85.9134C37.3427 85.839 37.619 85.8612 37.9286 85.9863C38.2476 86.1164 38.5257 86.3302 38.7334 86.6052C38.9655 86.8964 39.1196 87.1995 39.2219 87.5788L39.2314 87.6068L39.229 87.6074ZM34.8249 89.1219C34.6084 89.2468 34.4112 89.4026 34.2395 89.5843C34.2259 89.4619 34.1975 89.3415 34.155 89.2259L34.1503 89.2068C34.0964 89.0531 34.0194 88.9085 33.9218 88.7781C33.8408 88.6621 33.7337 88.5666 33.6093 88.4993C33.5629 88.4721 33.5114 88.4548 33.458 88.4485C33.4046 88.4422 33.3505 88.4471 33.2991 88.4629C33.2014 88.4974 33.13 88.5658 33.0757 88.6831C33.0193 88.8132 32.994 88.9547 33.0018 89.0963C33.0046 89.2655 33.0353 89.4331 33.0927 89.5923L33.0975 89.6114C33.1507 89.7662 33.228 89.9117 33.3266 90.0425C33.4202 90.1747 33.5477 90.2792 33.6956 90.3451L33.5003 90.5963L33.3478 90.7761C33.1422 90.655 32.9639 90.4927 32.824 90.2996C32.6264 90.0453 32.486 89.7767 32.3831 89.4456L32.3825 89.4432C32.2824 89.1351 32.2401 88.8111 32.2577 88.4876C32.2634 88.2079 32.3406 87.9342 32.4819 87.6928C32.5395 87.585 32.6189 87.4904 32.7151 87.415C32.8113 87.3396 32.9221 87.285 33.0405 87.2547C33.2406 87.2048 33.4335 87.2275 33.6537 87.3294C33.9062 87.4491 34.1246 87.6304 34.2889 87.8565C34.4864 88.1108 34.6221 88.3806 34.728 88.7134C34.7708 88.8545 34.8041 88.9879 34.8249 89.1219Z" fill="#FFFBF6"/>
<path d="M36.0155 89.679C36.0596 89.754 36.1876 89.7094 36.2733 89.7285C36.3459 89.7458 36.4192 89.8059 36.4912 89.7905C36.5633 89.775 36.6663 89.7215 36.658 89.6476C36.6473 89.5542 36.4967 89.5285 36.4026 89.5166C36.2793 89.4993 36.1311 89.5135 36.0411 89.5992C36.0203 89.6171 36.0012 89.6522 36.0155 89.679ZM35.2486 89.8705C35.245 89.9574 35.111 89.9782 35.0467 90.0347C34.9883 90.0847 34.9544 90.1717 34.8811 90.1925C34.8102 90.2127 34.6941 90.2138 34.6668 90.1448C34.6323 90.0572 34.7532 89.9638 34.8306 89.909C34.9312 89.8358 35.0712 89.7781 35.1908 89.8115C35.2176 89.8175 35.2486 89.8401 35.2486 89.8705Z" fill="#202020"/>
</g>
<g filter="url(#filter2_d_4420_855)">
<rect x="70.3594" y="16.3896" width="49.274" height="49.274" rx="9.6723" transform="rotate(-11.6232 70.3594 16.3896)" fill="#FFFBF6"/>
<path d="M112.521 31.4428L100.539 33.9074C99.9859 34.0211 99.5414 33.7283 99.4276 33.1753L97.3991 23.3131C97.3043 22.8522 97.5971 22.4077 97.9468 22.2397L109.493 17.6552C109.769 17.5983 110.046 17.5414 110.268 17.6879C110.583 17.8153 110.732 18.0729 110.789 18.3494L113.253 30.3315C113.367 30.8845 113.074 31.329 112.521 31.4428Z" fill="#00ADEF"/>
<path d="M96.8509 34.6661L85.7905 36.9411C85.2375 37.0549 84.793 36.762 84.6792 36.209L83.1625 28.8354C83.0677 28.3746 83.3606 27.93 83.7103 27.762L94.3915 23.6436C94.668 23.5867 94.9445 23.5299 95.1668 23.6763C95.4812 23.8037 95.6303 24.0613 95.6871 24.3378L97.583 33.5548C97.6967 34.1078 97.4039 34.5523 96.8509 34.6661Z" fill="#00ADEF"/>
<path d="M115.748 47.1117C115.655 47.1307 115.655 47.1307 115.563 47.1496L103.145 47.4943C102.665 47.497 102.313 47.1852 102.218 46.7243L100.19 36.8621C100.076 36.3091 100.369 35.8646 100.922 35.7508L112.904 33.2862C113.457 33.1725 113.901 33.4653 114.015 34.0183L116.48 46.0004C116.537 46.2769 116.501 46.5724 116.263 46.8136C116.189 46.9248 115.932 47.0738 115.748 47.1117Z" fill="#00ADEF"/>
<path d="M99.5071 47.5694C99.415 47.5884 99.415 47.5884 99.3228 47.6073L87.8832 48.039C87.4956 48.0226 87.0511 47.7298 86.9563 47.2689L85.4396 39.8953C85.3258 39.3423 85.6187 38.8978 86.1717 38.784L97.2321 36.509C97.7851 36.3953 98.2296 36.6881 98.3434 37.2411L100.239 46.4581C100.296 46.7346 100.261 47.0301 100.022 47.2713C99.949 47.3824 99.6915 47.5315 99.5071 47.5694Z" fill="#00ADEF"/>
</g>
<g filter="url(#filter3_d_4420_855)">
<rect x="21.3828" y="4.63672" width="49.274" height="49.274" rx="9.6723" transform="rotate(14.2772 21.3828 4.63672)" fill="#FFFBF6"/>
<path d="M43.6799 48.8781C41.7442 49.9882 40.1094 49.3191 38.6589 48.1909C37.1174 47.0226 35.5411 46.5877 33.5256 46.8846C30.9941 47.2863 29.8625 46.6947 28.8185 45.0963C23.1148 35.1595 27.3439 23.3135 36.2341 25.1035C38.3448 25.7587 39.564 27.1992 40.7915 27.6127C42.7578 27.7082 44.8263 27.0706 46.7863 27.7212C49.1303 28.5201 50.6946 29.9304 51.4474 31.9439C45.7503 33.6487 45.2656 40.4588 49.3333 43.434C47.8254 45.5807 46.0523 47.643 43.66 48.8899L43.6799 48.8781ZM40.9797 26.2099C41.6412 22.6163 45.2507 20.4308 48.6188 20.9842C48.0381 25.1888 43.0971 27.1704 40.9797 26.2099Z" fill="black"/>
</g>
<g filter="url(#filter4_d_4420_855)">
<rect x="87.6719" y="64.8604" width="49.274" height="49.274" rx="9.6723" transform="rotate(20.5684 87.6719 64.8604)" fill="#FFFBF6"/>
<path fill-rule="evenodd" clip-rule="evenodd" d="M109.15 88.3762C108.667 88.195 108.419 87.6676 108.595 87.1975C108.772 86.7273 109.305 86.4952 109.788 86.6764C110.271 86.8577 110.52 87.3833 110.343 87.8535C110.167 88.3236 109.633 88.5575 109.15 88.3762ZM102.161 85.7534C101.677 85.5722 101.429 85.0448 101.606 84.5747C101.782 84.1045 102.315 83.8724 102.798 84.0536C103.281 84.2349 103.53 84.7605 103.354 85.2307C103.178 85.7009 102.644 85.9347 102.161 85.7534ZM110.945 85.1636L111.45 84.8071L111.953 84.4573L113.077 83.6687C113.216 83.5717 113.245 83.3821 113.142 83.2455C113.043 83.1079 112.847 83.0757 112.711 83.174L110.998 84.372L110.483 84.7329C109.579 83.94 108.49 83.2776 107.251 82.8128C106.014 82.3486 104.756 82.1299 103.554 82.1327L103.405 81.5228L103.257 80.9229L102.904 79.4941C102.863 79.3294 102.696 79.2272 102.529 79.2629C102.364 79.2992 102.261 79.4609 102.3 79.625L102.628 80.9581L102.776 81.5521L102.924 82.1537C100.031 82.3473 97.5622 83.8432 96.6504 86.2732L112.958 92.3926C113.87 89.9626 112.995 87.2117 110.945 85.1636ZM96.3508 87.4536L96.2251 87.4065L91.545 99.8785C91.1734 100.869 91.6974 101.985 92.7166 102.367L94.0472 102.867C93.945 102.999 93.8615 103.147 93.7994 103.312L92.452 106.903C92.0998 107.841 92.598 108.897 93.5624 109.259C94.5268 109.62 95.5963 109.153 95.9485 108.215L97.2959 104.624C97.358 104.459 97.3902 104.292 97.4022 104.126L100.647 105.343C100.547 105.477 100.463 105.624 100.401 105.789L99.054 109.38C98.7018 110.319 99.1983 111.373 100.163 111.735C101.129 112.098 102.198 111.631 102.55 110.692L103.898 107.101C103.96 106.936 103.992 106.769 104.002 106.602L105.335 107.102C106.354 107.485 107.481 106.988 107.853 105.998L112.533 93.5259L96.3508 87.4536ZM93.3125 86.3135C92.3464 85.951 91.2786 86.4187 90.9264 87.3573L88.1961 94.6335C87.8439 95.5721 88.3403 96.6268 89.3065 96.9893C90.2709 97.3512 91.3386 96.8835 91.6908 95.9449L94.4212 88.6687C94.7734 87.7301 94.2769 86.6754 93.3125 86.3135ZM115.447 94.6195C114.481 94.2569 113.413 94.7246 113.061 95.6632L110.331 102.939C109.978 103.878 110.475 104.933 111.441 105.295C112.405 105.657 113.473 105.189 113.825 104.251L116.556 96.9746C116.908 96.036 116.412 94.9813 115.447 94.6195Z" fill="#95CF00"/>
</g>
<defs>
<filter id="filter0_i_4420_855" x="0.101562" y="0.0742188" width="142.345" height="136.423" filterUnits="userSpaceOnUse" color-interpolation-filters="sRGB">
<feFlood flood-opacity="0" result="BackgroundImageFix"/>
<feBlend mode="normal" in="SourceGraphic" in2="BackgroundImageFix" result="shape"/>
<feColorMatrix in="SourceAlpha" type="matrix" values="0 0 0 0 0 0 0 0 0 0 0 0 0 0 0 0 0 0 127 0" result="hardAlpha"/>
<feOffset dx="3.64992" dy="3.64992"/>
<feGaussianBlur stdDeviation="9.12481"/>
<feComposite in2="hardAlpha" operator="arithmetic" k2="-1" k3="1"/>
<feColorMatrix type="matrix" values="0 0 0 0 1 0 0 0 0 1 0 0 0 0 1 0 0 0 0.1 0"/>
<feBlend mode="normal" in2="shape" result="effect1_innerShadow_4420_855"/>
</filter>
<filter id="filter1_d_4420_855" x="3.75168" y="63.0349" width="77.9918" height="77.9918" filterUnits="userSpaceOnUse" color-interpolation-filters="sRGB">
<feFlood flood-opacity="0" result="BackgroundImageFix"/>
<feColorMatrix in="SourceAlpha" type="matrix" values="0 0 0 0 0 0 0 0 0 0 0 0 0 0 0 0 0 0 127 0" result="hardAlpha"/>
<feOffset dx="3.64992" dy="3.64992"/>
<feGaussianBlur stdDeviation="4.5624"/>
<feComposite in2="hardAlpha" operator="out"/>
<feColorMatrix type="matrix" values="0 0 0 0 0.0123958 0 0 0 0 0.0577646 0 0 0 0 0.145833 0 0 0 0.15 0"/>
<feBlend mode="normal" in2="BackgroundImageFix" result="effect1_dropShadow_4420_855"/>
<feBlend mode="normal" in="SourceGraphic" in2="effect1_dropShadow_4420_855" result="shape"/>
</filter>
<filter id="filter2_d_4420_855" x="66.6345" y="2.73605" width="72.9449" height="72.943" filterUnits="userSpaceOnUse" color-interpolation-filters="sRGB">
<feFlood flood-opacity="0" result="BackgroundImageFix"/>
<feColorMatrix in="SourceAlpha" type="matrix" values="0 0 0 0 0 0 0 0 0 0 0 0 0 0 0 0 0 0 127 0" result="hardAlpha"/>
<feOffset dx="3.64992" dy="3.64992"/>
<feGaussianBlur stdDeviation="4.5624"/>
<feComposite in2="hardAlpha" operator="out"/>
<feColorMatrix type="matrix" values="0 0 0 0 0.0123958 0 0 0 0 0.0577646 0 0 0 0 0.145833 0 0 0 0.15 0"/>
<feBlend mode="normal" in2="BackgroundImageFix" result="effect1_dropShadow_4420_855"/>
<feBlend mode="normal" in="SourceGraphic" in2="effect1_dropShadow_4420_855" result="shape"/>
</filter>
<filter id="filter3_d_4420_855" x="5.83761" y="1.24582" width="73.984" height="73.985" filterUnits="userSpaceOnUse" color-interpolation-filters="sRGB">
<feFlood flood-opacity="0" result="BackgroundImageFix"/>
<feColorMatrix in="SourceAlpha" type="matrix" values="0 0 0 0 0 0 0 0 0 0 0 0 0 0 0 0 0 0 127 0" result="hardAlpha"/>
<feOffset dx="3.64992" dy="3.64992"/>
<feGaussianBlur stdDeviation="4.5624"/>
<feComposite in2="hardAlpha" operator="out"/>
<feColorMatrix type="matrix" values="0 0 0 0 0.0123958 0 0 0 0 0.0577646 0 0 0 0 0.145833 0 0 0 0.15 0"/>
<feBlend mode="normal" in2="BackgroundImageFix" result="effect1_dropShadow_4420_855"/>
<feBlend mode="normal" in="SourceGraphic" in2="effect1_dropShadow_4420_855" result="shape"/>
</filter>
<filter id="filter4_d_4420_855" x="67.6657" y="62.1648" width="76.1324" height="76.1354" filterUnits="userSpaceOnUse" color-interpolation-filters="sRGB">
<feFlood flood-opacity="0" result="BackgroundImageFix"/>
<feColorMatrix in="SourceAlpha" type="matrix" values="0 0 0 0 0 0 0 0 0 0 0 0 0 0 0 0 0 0 127 0" result="hardAlpha"/>
<feOffset dx="3.64992" dy="3.64992"/>
<feGaussianBlur stdDeviation="4.5624"/>
<feComposite in2="hardAlpha" operator="out"/>
<feColorMatrix type="matrix" values="0 0 0 0 0.0123958 0 0 0 0 0.0577646 0 0 0 0 0.145833 0 0 0 0.15 0"/>
<feBlend mode="normal" in2="BackgroundImageFix" result="effect1_dropShadow_4420_855"/>
<feBlend mode="normal" in="SourceGraphic" in2="effect1_dropShadow_4420_855" result="shape"/>
</filter>
<linearGradient id="paint0_linear_4420_855" x1="69.4501" y1="0.0742187" x2="69.4501" y2="132.848" gradientUnits="userSpaceOnUse">
<stop stop-color="#3D7CA9" stop-opacity="0.89"/>
<stop offset="1" stop-color="#173144"/>
</linearGradient>
</defs>
</svg>
