<svg width="80" height="6" viewBox="0 0 80 6" fill="none" xmlns="http://www.w3.org/2000/svg">
<path d="M1 1C4.88354 1 4.88354 4.84161 8.80037 4.84161C12.7172 4.84161 12.6987 1 16.597 1C20.4954 1 20.4991 4.84161 24.3974 4.84161C28.2957 4.84161 28.2957 1 32.1978 1C36.0998 1 36.0961 4.84161 39.9982 4.84161C43.9002 4.84161 43.8965 1 47.7874 1C51.6784 1 51.6858 4.84161 55.5878 4.84161C59.4898 4.84161 59.4972 1 63.3993 1C67.3013 1 67.2976 4.84161 71.1996 4.84161C75.1017 4.84161 75.1017 1 79 1" stroke="#FFAE45" stroke-width="1.5" stroke-linecap="round" stroke-linejoin="round"/>
</svg>
