<svg width="96" height="17" viewBox="0 0 96 17" fill="none" xmlns="http://www.w3.org/2000/svg">
<path d="M94.7569 11.942C91.7027 8.6485 88.8851 5.16809 86.3073 1.50189C85.0952 -0.223254 82.4469 1.72226 83.6528 3.44003C85.4485 5.99431 87.3644 8.45607 89.391 10.8305C67.447 4.12862 44.3137 1.5395 21.3932 3.29892C14.8682 3.79928 8.37828 4.664 1.94777 5.86224C-0.13237 6.24985 0.265075 9.47583 2.36407 9.08434C24.5042 4.9586 47.3355 4.9894 69.4607 9.20526C74.6254 10.1907 79.7393 11.4091 84.793 12.8461C83.7075 13.0568 82.6209 13.2714 81.5365 13.4909C79.4676 13.9098 79.8624 17.1366 81.9529 16.7132C85.8371 15.9265 89.7321 15.196 93.6379 14.5224C94.7495 14.3304 95.6458 12.8995 94.7569 11.942Z" fill="#A1B7BA"/>
</svg>
