<svg width="12" height="12" viewBox="0 0 12 12" fill="none" xmlns="http://www.w3.org/2000/svg">
<path d="M0.201342 11.7987C0.0671141 11.6644 0 11.5034 0 11.3154C0 11.1275 0.0671141 10.9664 0.201342 10.8322L9.66443 1.36913H4.55034C4.36242 1.36913 4.20134 1.30201 4.06711 1.16779C3.93289 1.03356 3.86577 0.872483 3.86577 0.684564C3.86577 0.483221 3.93289 0.318792 4.06711 0.191275C4.20134 0.0637582 4.36242 0 4.55034 0H11.3154C11.5034 0 11.6644 0.0671141 11.7987 0.201342C11.9329 0.33557 12 0.496644 12 0.684564V7.44966C12 7.63758 11.9329 7.79866 11.7987 7.93289C11.6644 8.06711 11.5034 8.13423 11.3154 8.13423C11.1141 8.13423 10.9497 8.06711 10.8221 7.93289C10.6946 7.79866 10.6309 7.63758 10.6309 7.44966V2.33557L1.16779 11.7987C1.03356 11.9329 0.872483 12 0.684564 12C0.496645 12 0.33557 11.9329 0.201342 11.7987Z" fill="#0E1A2F"/>
</svg>
