<svg width="95" height="35" viewBox="0 0 95 35" fill="none" xmlns="http://www.w3.org/2000/svg">
<path d="M81.2505 18.9969C59.6688 -1.01418 27.7281 -5.48527 2.07461 7.7469C-0.432755 9.04085 1.84887 13.0085 4.34832 11.7231C28.1643 -0.565204 58.2766 3.84589 78.2661 22.3848C80.3718 24.3368 83.372 20.966 81.2505 18.9969Z" fill="#FFFBF6"/>
<path d="M77.9359 28.8365C80.8417 25.4143 83.7476 21.9921 86.6565 18.5716C85.4393 18.253 84.222 17.9344 83.0063 17.6124C84.9889 22.9326 87.403 28.0068 90.318 32.8049C90.4087 31.8626 90.501 30.9168 90.5917 29.9744C90.4698 30.0826 90.348 30.1907 90.2261 30.2988C90.7395 30.055 91.2513 29.8146 91.7679 29.5725C90.7665 29.6355 89.5793 28.9247 88.6428 28.5803C87.3348 28.1016 86.0268 27.6229 84.7219 27.1459C82.2539 26.2435 79.7826 25.3394 77.3162 24.4337C76.9629 25.9438 76.6097 27.454 76.258 28.9607C80.1835 29.6868 83.6566 27.4464 84.8941 23.3619C83.4989 23.389 82.1067 23.4178 80.713 23.4414C81.0849 25.317 81.4585 27.1892 81.832 29.0614C82.0821 30.2959 83.4539 30.9839 84.5178 30.6528C86.3458 30.0826 87.6191 28.6992 87.9463 26.6556C88.1245 25.5268 87.7388 24.6738 86.8871 24.0394C86.0856 23.4408 85.4483 22.787 84.7847 22.0295C82.8723 19.8422 79.8926 23.2284 81.8018 25.414C82.7196 26.4633 83.7075 27.3124 84.8013 28.1298C84.4487 27.2566 84.0978 26.3885 83.7452 25.5153C83.5992 25.7337 83.4532 25.9522 83.312 26.1689C84.2036 26.7016 85.0968 27.231 85.9931 27.762C85.6212 25.8864 85.2476 24.0143 84.8741 22.1421C84.3879 19.7105 81.3054 20.2014 80.693 22.2216C80.2293 23.7567 78.7985 24.7094 77.3162 24.4337C74.5564 23.9257 73.6152 27.993 76.258 28.9607C79.5981 30.1851 82.9397 31.406 86.2766 32.6287C88.8014 33.5534 91.4064 35.2497 93.7325 33.1888C94.4431 32.5586 94.4837 31.142 94.0062 30.3583C91.3073 25.9163 89.002 21.2418 87.1643 16.3114C86.5798 14.7456 84.7119 13.9448 83.5125 15.3556C80.6067 18.7778 77.6993 22.2034 74.7935 25.6256C72.9144 27.8366 76.0457 31.0628 77.9359 28.8365Z" fill="#FFFBF6"/>
</svg>
