<svg width="82" height="82" viewBox="0 0 82 82" fill="none" xmlns="http://www.w3.org/2000/svg">
<path d="M38.3346 0.948943C39.8862 -0.316314 42.1137 -0.316314 43.6652 0.948943L47.0107 3.67706C48.0637 4.53544 49.4655 4.8343 50.7766 4.47991L54.933 3.35669C56.8632 2.83508 58.8942 3.7403 59.7967 5.52419L61.7606 9.40735C62.3721 10.6158 63.5264 11.4571 64.864 11.669L69.1356 12.3456C71.1037 12.6574 72.5852 14.3041 72.6873 16.294L72.9121 20.6749C72.9812 22.0219 73.691 23.2546 74.8212 23.9911L78.4758 26.3728C80.1399 27.4576 80.8214 29.5568 80.1112 31.4121L78.539 35.5201C78.0578 36.7769 78.2059 38.1877 78.9367 39.3175L81.3236 43.0054C82.4019 44.6721 82.1717 46.8651 80.7703 48.2717L77.6791 51.3745C76.7286 52.3287 76.2909 53.6792 76.5017 55.0095L77.1895 59.352C77.5003 61.3164 76.3959 63.2311 74.5395 63.9462L70.4868 65.5063C69.2254 65.992 68.2732 67.0525 67.9261 68.3587L66.8039 72.5827C66.2915 74.5122 64.4963 75.8176 62.5028 75.7109L58.1976 75.4807C56.8426 75.4082 55.5357 75.9917 54.6855 77.0488L51.9705 80.4253C50.7163 81.9849 48.5386 82.4483 46.7577 81.5342L42.9259 79.5672C41.7169 78.947 40.283 78.947 39.074 79.5672L35.2421 81.5342C33.4615 82.4483 31.2837 81.9849 30.0295 80.4253L27.3144 77.0488C26.4643 75.9917 25.1574 75.4082 23.8025 75.4807L19.4971 75.7109C17.5036 75.8176 15.7084 74.5122 15.196 72.5827L14.0737 68.3587C13.7267 67.0525 12.7746 65.992 11.5132 65.5063L7.46051 63.9462C5.6039 63.2311 4.49947 61.3164 4.81061 59.352L5.49831 55.0095C5.70895 53.6792 5.27138 52.3287 4.32079 51.3745L1.22947 48.2717C-0.171696 46.8651 -0.401969 44.6721 0.676523 43.0054L3.06302 39.3175C3.79415 38.1877 3.94196 36.7769 3.46095 35.5201L1.88859 31.4121C1.17848 29.5568 1.85989 27.4576 3.52434 26.3728L7.17893 23.9911C8.30904 23.2546 9.01854 22.0219 9.08766 20.6749L9.31252 16.294C9.41466 14.3041 10.896 12.6574 12.8643 12.3456L17.1358 11.669C18.4735 11.4571 19.628 10.6158 20.2392 9.40735L22.2034 5.52419C23.1057 3.7403 25.1369 2.83508 27.067 3.35669L31.2233 4.47991C32.5346 4.8343 33.9364 4.53544 34.989 3.67706L38.3346 0.948943Z" fill="url(#paint0_linear_4244_4375)"/>
<path d="M22.1156 26.3925L22.4206 26.3324C22.7869 26.2954 23.0294 26.3041 23.1481 26.3587C23.411 26.4796 23.5859 26.8476 23.6729 27.4628C23.723 27.8454 23.7071 28.1257 23.6253 28.3038C23.5434 28.4819 23.4158 28.603 23.2425 28.6672C23.0777 28.7352 22.8975 28.7808 22.702 28.8039C22.5065 28.827 22.3171 28.8478 22.134 28.8663C21.9593 28.8888 21.6246 28.8684 21.1297 28.8052C20.6348 28.7421 20.1839 28.617 19.7768 28.4298C19.3783 28.2466 18.9946 28.0086 18.6259 27.7158C18.2695 27.4184 17.9274 27.0454 17.5995 26.5968C17.2839 26.1436 17.0342 25.6589 16.8502 25.1429C16.6702 24.6184 16.5943 24.0237 16.6227 23.3588C16.6634 22.6892 16.8358 22.0238 17.1399 21.3623C17.444 20.7009 17.8291 20.1537 18.2951 19.7208C18.7651 19.2794 19.2496 18.9629 19.7487 18.7711C20.2601 18.5748 20.7909 18.4593 21.341 18.4246C22.3826 18.3487 23.3231 18.5037 24.1627 18.8897C24.5612 19.0729 24.9348 19.3217 25.2834 19.636C25.6443 19.9458 25.9016 20.213 26.0551 20.4377L26.2785 20.7561C26.3883 20.9195 26.4719 21.0504 26.5294 21.1488C26.668 21.4282 26.6847 21.6824 26.5794 21.9114C26.4781 22.1319 26.2818 22.3242 25.9907 22.4882C25.4494 22.7941 25.0474 22.8866 24.7845 22.7658C24.6318 22.6956 24.4585 22.5029 24.2644 22.1877C24.0408 21.7356 23.6322 21.3731 23.0386 21.1002C22.4874 20.8468 21.8569 20.7881 21.1472 20.9241C20.8071 20.9937 20.4742 21.1592 20.1487 21.4204C19.8231 21.6816 19.5609 22.0285 19.3621 22.461C19.1672 22.885 19.0766 23.3056 19.0902 23.7227C19.1039 24.1399 19.1973 24.5065 19.3705 24.8224C19.7163 25.4333 20.169 25.8674 20.7287 26.1247C20.9916 26.2456 21.2531 26.3247 21.5132 26.3621C21.7819 26.4034 21.9827 26.4136 22.1156 26.3925ZM33.5328 23.1665C34.7878 23.7435 35.6689 24.6982 36.1761 26.0305C36.6833 27.3628 36.627 28.7031 36.0071 30.0515C35.3911 31.3913 34.4239 32.3334 33.1053 32.8777C31.7906 33.4136 30.4888 33.3852 29.1998 32.7927C27.9109 32.2001 27.0271 31.2288 26.5486 29.8789C26.0785 28.5328 26.1398 27.2153 26.7323 25.9263C27.0559 25.2224 27.4853 24.6237 28.0204 24.1301C28.5594 23.628 29.1364 23.2667 29.7514 23.0461C30.3664 22.8255 31.0041 22.7231 31.6645 22.7391C32.3249 22.7551 32.9476 22.8975 33.5328 23.1665ZM29.0131 26.8978C28.6661 27.6525 28.6251 28.3784 28.8902 29.0755C29.1676 29.768 29.6074 30.2527 30.2095 30.5295C30.8115 30.8063 31.4595 30.8268 32.1534 30.5911C32.8473 30.3554 33.3716 29.8517 33.7264 29.08C34.0812 28.3083 34.1198 27.5762 33.8424 26.8837C33.5735 26.1951 33.1379 25.7124 32.5359 25.4356C31.9338 25.1588 31.2819 25.1467 30.5802 25.3994C29.8824 25.6436 29.36 26.143 29.0131 26.8978ZM49.7304 31.1831C49.7398 31.3415 49.7253 31.4735 49.687 31.5792C49.6572 31.6888 49.5974 31.8411 49.5078 32.0361L46.2622 39.0958C45.9932 39.6809 45.6742 39.9503 45.3052 39.9039C45.1207 39.8807 44.9055 39.8126 44.6595 39.6996C44.4136 39.5865 44.2283 39.4756 44.1037 39.367C43.979 39.2583 43.8921 39.1567 43.8431 39.0623C43.7941 38.9678 43.7737 38.8557 43.782 38.726C43.8058 38.5623 43.886 38.3321 44.0225 38.0353L45.9815 33.774C45.6486 33.9395 45.1461 34.2169 44.474 34.6065C43.8057 34.9875 43.3833 35.2248 43.2068 35.3182C43.0303 35.4117 42.9072 35.4784 42.8375 35.5183C42.7717 35.5497 42.6306 35.5772 42.4142 35.601C42.2102 35.6202 42.0107 35.585 41.8157 35.4953C41.6291 35.4096 41.4748 35.2873 41.3526 35.1284C41.2429 34.9649 41.1736 34.8252 41.1447 34.7092L41.1073 34.5225C41.0351 34.2325 40.9068 33.6291 40.7222 32.7122C40.5416 31.7868 40.4418 31.2889 40.4227 31.2186L38.452 35.5053C38.3624 35.7003 38.2857 35.8448 38.2219 35.9388C38.1706 36.0282 38.0837 36.1166 37.9612 36.2042C37.7288 36.3746 37.3454 36.3371 36.8112 36.0915C36.2939 35.8537 36.0243 35.591 36.0023 35.3036C35.9891 35.1537 35.9974 35.0239 36.0272 34.9144C36.0655 34.8087 36.1314 34.6541 36.225 34.4506L39.4705 27.3909C39.5602 27.1959 39.6307 27.0537 39.6821 26.9643C39.7458 26.8703 39.8408 26.7753 39.9671 26.6793C40.1957 26.5173 40.5771 26.5591 41.1114 26.8047C41.3403 26.91 41.5217 27.0293 41.6556 27.1627C41.8018 27.2916 41.8867 27.3974 41.9103 27.4802L41.9515 27.5916L43.0963 32.7096C45.4151 31.4643 46.9566 30.6475 47.7206 30.2592C47.97 30.0965 48.3619 30.1379 48.8961 30.3836C49.4388 30.6331 49.7169 30.8996 49.7304 31.1831ZM51.5562 32.947C51.6458 32.752 51.7164 32.6097 51.7677 32.5204C51.8315 32.4264 51.9265 32.3314 52.0528 32.2354C52.2768 32.061 52.6602 32.0986 53.2029 32.3481C53.7965 32.621 54.0763 32.9396 54.0423 33.3041C54.0184 33.4677 53.9383 33.698 53.8018 33.9948L50.5504 41.0672C50.4569 41.2707 50.3802 41.4152 50.3203 41.5007C50.269 41.5901 50.1801 41.6828 50.0538 41.7788C49.8298 41.9532 49.4465 41.9156 48.9037 41.6661C48.3101 41.3932 48.0365 41.0723 48.0829 40.7032C48.0944 40.5442 48.1684 40.3162 48.3048 40.0194L51.5562 32.947ZM62.1908 36.9577C62.3457 36.844 62.5155 36.7988 62.7 36.822C62.8845 36.8452 63.0955 36.9114 63.3329 37.0205C63.5789 37.1336 63.7642 37.2445 63.8888 37.3531C64.022 37.4657 64.1088 37.5673 64.1494 37.6578C64.1984 37.7523 64.2126 37.8666 64.1919 38.001C64.1804 38.16 64.1065 38.388 63.97 38.6848L60.7245 45.7445C60.6309 45.948 60.5542 46.0925 60.4944 46.178C60.443 46.2674 60.3542 46.3601 60.2279 46.4561C60.0039 46.6305 59.6205 46.5929 59.0778 46.3434C58.7471 46.1914 58.5298 46.0607 58.426 45.9513C58.3222 45.8419 58.2532 45.7127 58.2191 45.5634C57.4806 42.1422 56.9897 39.9031 56.7463 38.8462L54.8223 43.0311C54.7288 43.2346 54.6521 43.3791 54.5922 43.4646C54.5409 43.554 54.452 43.6467 54.3257 43.7427C54.1017 43.9171 53.7184 43.8795 53.1756 43.63C52.6499 43.3883 52.3802 43.1257 52.3668 42.8422C52.3574 42.6838 52.3676 42.5498 52.3975 42.4402C52.4358 42.3346 52.4998 42.1842 52.5894 41.9892L55.8525 34.8913C56.0006 34.5691 56.146 34.3534 56.2886 34.2443C56.4436 34.1307 56.6133 34.0854 56.7978 34.1086C56.9823 34.1318 57.2018 34.2019 57.4562 34.3188C57.7106 34.4358 57.8982 34.5529 58.019 34.67C58.1521 34.7826 58.2347 34.8822 58.2668 34.9689C58.289 35.0099 58.3359 35.165 58.4073 35.4341C59.0778 38.6905 59.5347 40.8471 59.7781 41.9041L61.7547 37.6047C61.9028 37.2824 62.0482 37.0668 62.1908 36.9577ZM69.6855 44.4094L71.9242 45.4387C72.3744 45.6661 72.5996 45.9135 72.6 46.1808C72.6108 46.3809 72.544 46.6378 72.3998 46.9516L71.1132 49.75C70.9885 50.0214 70.7509 50.2255 70.4004 50.3622C69.3489 50.7725 68.1108 50.6502 66.6861 49.9952C65.4226 49.4143 64.5427 48.4346 64.0465 47.056C63.5543 45.6689 63.618 44.3012 64.2379 42.9528C64.8578 41.6045 65.8492 40.6992 67.2122 40.2369C68.5792 39.7662 69.9071 39.8271 71.1961 40.4197C72.1967 40.8797 72.9902 41.6451 73.5766 42.7159C73.7276 42.9908 73.7543 43.2342 73.6569 43.4462C73.5633 43.6498 73.3566 43.8424 73.0368 44.0241C72.4995 44.3215 72.0951 44.4078 71.8237 44.283C71.6626 44.209 71.4566 43.9756 71.2057 43.5829C70.9587 43.1817 70.5893 42.868 70.0974 42.6419C69.4529 42.3456 68.7753 42.3115 68.0644 42.5394C67.3575 42.7588 66.8344 43.2374 66.4952 43.9752C66.16 44.7045 66.1278 45.4447 66.3988 46.1959C66.6737 46.9386 67.1334 47.4581 67.7779 47.7544C68.2443 47.9688 68.6992 48.0855 69.1425 48.1044L69.7799 46.7179L68.775 46.2559C68.5121 46.1351 68.3411 46.0154 68.2621 45.8969C68.183 45.7783 68.1558 45.6477 68.1803 45.5049C68.2088 45.3536 68.2737 45.1677 68.3751 44.9472C68.4803 44.7183 68.5811 44.5437 68.6774 44.4237C68.7822 44.3075 68.8971 44.2473 69.0223 44.2432C69.21 44.2371 69.4311 44.2925 69.6855 44.4094ZM15.4242 42.2974C15.3284 41.9247 15.3293 41.6323 15.4268 41.4203C15.5281 41.1999 15.843 40.9954 16.3714 40.8068C16.6769 40.7008 16.9484 40.7023 17.1859 40.8115C17.4233 40.9206 17.6566 41.2847 17.8857 41.9036C17.9381 42.1024 18.0434 42.3202 18.2015 42.5573C18.3635 42.7859 18.5378 42.943 18.7244 43.0288C19.513 43.3913 20.0555 43.2504 20.3518 42.6059C20.4414 42.4109 20.4053 42.199 20.2433 41.9705C20.0936 41.7373 19.8713 41.517 19.5764 41.3095C19.2814 41.102 18.9766 40.8489 18.662 40.5501C18.3512 40.2429 18.0757 39.9262 17.8353 39.6C17.5949 39.2738 17.4522 38.8692 17.4072 38.3862C17.3745 37.8986 17.4829 37.3835 17.7324 36.8408C18.0755 36.0945 18.6493 35.5725 19.4539 35.2747C20.2709 34.9723 21.1586 35.0414 22.1168 35.4819C22.6256 35.7158 23.0566 35.9961 23.4097 36.3228C23.7753 36.645 24.0074 36.9109 24.1062 37.1207L24.3131 37.5085C24.4629 37.8753 24.4988 38.1435 24.4208 38.3131C24.3429 38.4827 24.1339 38.6691 23.7939 38.8724C23.3107 39.1638 22.9164 39.2394 22.6111 39.099C22.433 39.0172 22.2515 38.831 22.0666 38.5406C22.049 38.5119 22.0176 38.4461 21.9725 38.3432C21.9358 38.2442 21.8975 38.1598 21.8577 38.0901C21.7303 37.898 21.5267 37.7376 21.2468 37.609C20.9754 37.4842 20.7153 37.4468 20.4664 37.4967C20.2298 37.542 20.0569 37.6834 19.9478 37.9209C19.8425 38.1498 19.8627 38.3851 20.0085 38.6267C20.1627 38.8723 20.3892 39.0945 20.6881 39.2936C20.9869 39.4926 21.3018 39.7349 21.6327 40.0206C21.9676 40.2978 22.261 40.5868 22.5131 40.8876C22.7652 41.1884 22.9095 41.5783 22.946 42.0574C22.995 42.5319 22.8928 43.0447 22.6394 43.5959C22.386 44.1471 22.0515 44.5841 21.6361 44.9067C21.2246 45.2209 20.7882 45.4106 20.3267 45.4758C19.4332 45.6095 18.5964 45.497 17.8162 45.1383C17.4176 44.9551 17.0617 44.7349 16.7484 44.4779C16.439 44.2124 16.2073 43.9569 16.053 43.7114C15.7284 43.2334 15.5354 42.8263 15.4743 42.49L15.4242 42.2974ZM31.8303 39.9937C33.0854 40.5707 33.9665 41.5253 34.4737 42.8576C34.9809 44.1899 34.9245 45.5303 34.3047 46.8786C33.6887 48.2185 32.7214 49.1606 31.4029 49.7049C30.0882 50.2407 28.7864 50.2124 27.4974 49.6198C26.2084 49.0272 25.3247 48.056 24.8461 46.706C24.3761 45.3599 24.4373 44.0424 25.0299 42.7534C25.3535 42.0496 25.7828 41.4509 26.3179 40.9572C26.8569 40.4551 27.4339 40.0938 28.049 39.8732C28.664 39.6526 29.3017 39.5503 29.9621 39.5662C30.6224 39.5822 31.2452 39.7247 31.8303 39.9937ZM27.3106 43.7249C26.9636 44.4796 26.9227 45.2055 27.1877 45.9026C27.4652 46.5952 27.9049 47.0798 28.507 47.3566C29.1091 47.6334 29.7571 47.654 30.451 47.4183C31.1449 47.1825 31.6692 46.6788 32.024 45.9071C32.3787 45.1355 32.4174 44.4033 32.14 43.7108C31.871 43.0222 31.4355 42.5395 30.8334 42.2627C30.2313 41.9859 29.5794 41.9738 28.8778 42.2265C28.18 42.4707 27.6576 42.9702 27.3106 43.7249ZM42.711 44.9958C43.9661 45.5728 44.8472 46.5275 45.3544 47.8598C45.8616 49.1921 45.8053 50.5324 45.1854 51.8808C44.5694 53.2206 43.6022 54.1627 42.2836 54.707C40.9689 55.2429 39.6671 55.2145 38.3781 54.6219C37.0891 54.0294 36.2054 53.0581 35.7269 51.7081C35.2568 50.3621 35.3181 49.0446 35.9106 47.7556C36.2342 47.0517 36.6636 46.453 37.1987 45.9594C37.7376 45.4573 38.3147 45.0959 38.9297 44.8753C39.5447 44.6547 40.1824 44.5524 40.8428 44.5684C41.5032 44.5844 42.1259 44.7268 42.711 44.9958ZM38.1913 48.727C37.8444 49.4818 37.8034 50.2077 38.0685 50.9048C38.3459 51.5973 38.7857 52.082 39.3877 52.3588C39.9898 52.6356 40.6378 52.6561 41.3317 52.4204C42.0256 52.1847 42.5499 51.681 42.9047 50.9093C43.2595 50.1376 43.2981 49.4055 43.0207 48.713C42.7518 48.0244 42.3162 47.5416 41.7141 47.2648C41.1121 46.9881 40.4602 46.976 39.7585 47.2287C39.0607 47.4729 38.5383 47.9723 38.1913 48.727ZM54.9988 51.2612C55.1537 51.1475 55.3235 51.1023 55.508 51.1255C55.6925 51.1486 55.9035 51.2148 56.1409 51.324C56.3869 51.437 56.5722 51.5479 56.6968 51.6566C56.83 51.7692 56.9168 51.8707 56.9574 51.9613C57.0064 52.0557 57.0206 52.1701 56.9999 52.3044C56.9884 52.4635 56.9145 52.6914 56.778 52.9882L53.5325 60.0479C53.4389 60.2515 53.3622 60.396 53.3024 60.4814C53.251 60.5708 53.1622 60.6635 53.0359 60.7595C52.8119 60.9339 52.4285 60.8964 51.8858 60.6469C51.5551 60.4948 51.3378 60.3641 51.234 60.2548C51.1302 60.1454 51.0612 60.0161 51.0271 59.8669C50.2886 56.4457 49.7977 54.2066 49.5543 53.1496L47.6303 57.3346C47.5368 57.5381 47.4601 57.6826 47.4002 57.7681C47.3489 57.8575 47.26 57.9501 47.1337 58.0462C46.9097 58.2205 46.5264 58.183 45.9836 57.9335C45.4579 57.6918 45.1882 57.4291 45.1748 57.1456C45.1654 56.9872 45.1756 56.8532 45.2055 56.7437C45.2438 56.638 45.3078 56.4877 45.3974 56.2926L48.6605 49.1948C48.8086 48.8725 48.954 48.6569 49.0966 48.5478C49.2516 48.4341 49.4213 48.3889 49.6058 48.4121C49.7903 48.4353 50.0098 48.5053 50.2642 48.6223C50.5186 48.7393 50.7062 48.8563 50.827 48.9735C50.9601 49.086 51.0427 49.1857 51.0748 49.2723C51.097 49.3133 51.1439 49.4684 51.2153 49.7375C51.8858 52.9939 52.3427 55.1506 52.5861 56.2076L54.5627 51.9081C54.7108 51.5859 54.8562 51.3702 54.9988 51.2612ZM56.0657 60.2264C56.2285 60.0957 56.4083 60.0397 56.6052 60.0584C56.8106 60.0809 57.0956 60.1759 57.4602 60.3436C57.8334 60.5151 58.0634 60.7185 58.1505 60.9537C58.246 61.1928 58.2139 61.4861 58.054 61.8338L57.9605 62.0374C57.8669 62.2409 57.7882 62.3896 57.7245 62.4836C57.6731 62.573 57.5823 62.6699 57.4521 62.7744C57.2034 62.9579 56.8204 62.9308 56.3031 62.693C55.7943 62.4591 55.4921 62.2226 55.3966 61.9835C55.3134 61.7398 55.381 61.3805 55.5993 60.9057C55.7514 60.5749 55.9068 60.3485 56.0657 60.2264ZM58.4544 59.5217C58.2738 59.49 58.0478 59.4118 57.7764 59.2871C57.5051 59.1623 57.2986 59.0417 57.1569 58.9252C57.0153 58.8088 56.9359 58.6798 56.9188 58.5384C56.9101 58.4008 56.9168 58.2858 56.9388 58.1932C56.9693 58.1045 57.0255 57.9711 57.1073 57.793L58.9611 53.7607C59.043 53.5826 59.1076 53.4531 59.1551 53.3722C59.2149 53.2867 59.3041 53.2045 59.4226 53.1254C59.5412 53.0464 59.6907 53.0227 59.8713 53.0544C60.0559 53.0775 60.2838 53.1515 60.5552 53.2763C60.8265 53.401 61.0311 53.5259 61.1688 53.6508C61.3104 53.7673 61.3836 53.8985 61.3884 54.0446C61.4056 54.186 61.397 54.3053 61.3626 54.4025C61.3405 54.4951 61.2886 54.6304 61.2067 54.8085L59.353 58.8408C59.2711 59.0189 59.2022 59.1464 59.1462 59.2234C59.0988 59.3043 59.0158 59.3843 58.8973 59.4634C58.7826 59.5339 58.635 59.5534 58.4544 59.5217Z" fill="#FFFBF6"/>
<path d="M21.1156 26.3925L21.4206 26.3324C21.7869 26.2954 22.0294 26.3041 22.1481 26.3587C22.411 26.4796 22.5859 26.8476 22.6729 27.4628C22.723 27.8454 22.7071 28.1257 22.6253 28.3038C22.5434 28.4819 22.4158 28.603 22.2425 28.6672C22.0777 28.7352 21.8975 28.7808 21.702 28.8039C21.5065 28.827 21.3171 28.8478 21.134 28.8663C20.9593 28.8888 20.6246 28.8684 20.1297 28.8052C19.6348 28.7421 19.1839 28.617 18.7768 28.4298C18.3783 28.2466 17.9946 28.0086 17.6259 27.7158C17.2695 27.4184 16.9274 27.0454 16.5995 26.5968C16.2839 26.1436 16.0342 25.6589 15.8502 25.1429C15.6702 24.6184 15.5943 24.0237 15.6227 23.3588C15.6634 22.6892 15.8358 22.0238 16.1399 21.3623C16.444 20.7009 16.8291 20.1537 17.2951 19.7208C17.7651 19.2794 18.2496 18.9629 18.7487 18.7711C19.2601 18.5748 19.7909 18.4593 20.341 18.4246C21.3826 18.3487 22.3231 18.5037 23.1627 18.8897C23.5612 19.0729 23.9348 19.3217 24.2834 19.636C24.6443 19.9458 24.9016 20.213 25.0551 20.4377L25.2785 20.7561C25.3883 20.9195 25.4719 21.0504 25.5294 21.1488C25.668 21.4282 25.6847 21.6824 25.5794 21.9114C25.4781 22.1319 25.2818 22.3242 24.9907 22.4882C24.4494 22.7941 24.0474 22.8866 23.7845 22.7658C23.6318 22.6956 23.4585 22.5029 23.2644 22.1877C23.0408 21.7356 22.6322 21.3731 22.0386 21.1002C21.4874 20.8468 20.8569 20.7881 20.1472 20.9241C19.8071 20.9937 19.4742 21.1592 19.1487 21.4204C18.8231 21.6816 18.5609 22.0285 18.3621 22.461C18.1672 22.885 18.0766 23.3056 18.0902 23.7227C18.1039 24.1399 18.1973 24.5065 18.3705 24.8224C18.7163 25.4333 19.169 25.8674 19.7287 26.1247C19.9916 26.2456 20.2531 26.3247 20.5132 26.3621C20.7819 26.4034 20.9827 26.4136 21.1156 26.3925ZM32.5328 23.1665C33.7878 23.7435 34.6689 24.6982 35.1761 26.0305C35.6833 27.3628 35.627 28.7031 35.0071 30.0515C34.3911 31.3913 33.4239 32.3334 32.1053 32.8777C30.7906 33.4136 29.4888 33.3852 28.1998 32.7927C26.9109 32.2001 26.0271 31.2288 25.5486 29.8789C25.0785 28.5328 25.1398 27.2153 25.7323 25.9263C26.0559 25.2224 26.4853 24.6237 27.0204 24.1301C27.5594 23.628 28.1364 23.2667 28.7514 23.0461C29.3664 22.8255 30.0041 22.7231 30.6645 22.7391C31.3249 22.7551 31.9476 22.8975 32.5328 23.1665ZM28.0131 26.8978C27.6661 27.6525 27.6251 28.3784 27.8902 29.0755C28.1676 29.768 28.6074 30.2527 29.2095 30.5295C29.8115 30.8063 30.4595 30.8268 31.1534 30.5911C31.8473 30.3554 32.3716 29.8517 32.7264 29.08C33.0812 28.3083 33.1198 27.5762 32.8424 26.8837C32.5735 26.1951 32.1379 25.7124 31.5359 25.4356C30.9338 25.1588 30.2819 25.1467 29.5802 25.3994C28.8824 25.6436 28.36 26.143 28.0131 26.8978ZM48.7304 31.1831C48.7398 31.3415 48.7253 31.4735 48.687 31.5792C48.6572 31.6888 48.5974 31.8411 48.5078 32.0361L45.2622 39.0958C44.9932 39.6809 44.6742 39.9503 44.3052 39.9039C44.1207 39.8807 43.9055 39.8126 43.6595 39.6996C43.4136 39.5865 43.2283 39.4756 43.1037 39.367C42.979 39.2583 42.8921 39.1567 42.8431 39.0623C42.7941 38.9678 42.7737 38.8557 42.782 38.726C42.8058 38.5623 42.886 38.3321 43.0225 38.0353L44.9815 33.774C44.6486 33.9395 44.1461 34.2169 43.474 34.6065C42.8057 34.9875 42.3833 35.2248 42.2068 35.3182C42.0303 35.4117 41.9072 35.4784 41.8375 35.5183C41.7717 35.5497 41.6306 35.5772 41.4142 35.601C41.2102 35.6202 41.0107 35.585 40.8157 35.4953C40.6291 35.4096 40.4748 35.2873 40.3526 35.1284C40.2429 34.9649 40.1736 34.8252 40.1447 34.7092L40.1073 34.5225C40.0351 34.2325 39.9068 33.6291 39.7222 32.7122C39.5416 31.7868 39.4418 31.2889 39.4227 31.2186L37.452 35.5053C37.3624 35.7003 37.2857 35.8448 37.2219 35.9388C37.1706 36.0282 37.0837 36.1166 36.9612 36.2042C36.7288 36.3746 36.3454 36.3371 35.8112 36.0915C35.2939 35.8537 35.0243 35.591 35.0023 35.3036C34.9891 35.1537 34.9974 35.0239 35.0272 34.9144C35.0655 34.8087 35.1314 34.6541 35.225 34.4506L38.4705 27.3909C38.5602 27.1959 38.6307 27.0537 38.6821 26.9643C38.7458 26.8703 38.8408 26.7753 38.9671 26.6793C39.1957 26.5173 39.5771 26.5591 40.1114 26.8047C40.3403 26.91 40.5217 27.0293 40.6556 27.1627C40.8018 27.2916 40.8867 27.3974 40.9103 27.4802L40.9515 27.5916L42.0963 32.7096C44.4151 31.4643 45.9566 30.6475 46.7206 30.2592C46.97 30.0965 47.3619 30.1379 47.8961 30.3836C48.4388 30.6331 48.7169 30.8996 48.7304 31.1831ZM50.5562 32.947C50.6458 32.752 50.7164 32.6097 50.7677 32.5204C50.8315 32.4264 50.9265 32.3314 51.0528 32.2354C51.2768 32.061 51.6602 32.0986 52.2029 32.3481C52.7965 32.621 53.0763 32.9396 53.0423 33.3041C53.0184 33.4677 52.9383 33.698 52.8018 33.9948L49.5504 41.0672C49.4569 41.2707 49.3802 41.4152 49.3203 41.5007C49.269 41.5901 49.1801 41.6828 49.0538 41.7788C48.8298 41.9532 48.4465 41.9156 47.9037 41.6661C47.3101 41.3932 47.0365 41.0723 47.0829 40.7032C47.0944 40.5442 47.1684 40.3162 47.3048 40.0194L50.5562 32.947ZM61.1908 36.9577C61.3457 36.844 61.5155 36.7988 61.7 36.822C61.8845 36.8452 62.0955 36.9114 62.3329 37.0205C62.5789 37.1336 62.7642 37.2445 62.8888 37.3531C63.022 37.4657 63.1088 37.5673 63.1494 37.6578C63.1984 37.7523 63.2126 37.8666 63.1919 38.001C63.1804 38.16 63.1065 38.388 62.97 38.6848L59.7245 45.7445C59.6309 45.948 59.5542 46.0925 59.4944 46.178C59.443 46.2674 59.3542 46.3601 59.2279 46.4561C59.0039 46.6305 58.6205 46.5929 58.0778 46.3434C57.7471 46.1914 57.5298 46.0607 57.426 45.9513C57.3222 45.8419 57.2532 45.7127 57.2191 45.5634C56.4806 42.1422 55.9897 39.9031 55.7463 38.8462L53.8223 43.0311C53.7288 43.2346 53.6521 43.3791 53.5922 43.4646C53.5409 43.554 53.452 43.6467 53.3257 43.7427C53.1017 43.9171 52.7184 43.8795 52.1756 43.63C51.6499 43.3883 51.3802 43.1257 51.3668 42.8422C51.3574 42.6838 51.3676 42.5498 51.3975 42.4402C51.4358 42.3346 51.4998 42.1842 51.5894 41.9892L54.8525 34.8913C55.0006 34.5691 55.146 34.3534 55.2886 34.2443C55.4436 34.1307 55.6133 34.0854 55.7978 34.1086C55.9823 34.1318 56.2018 34.2019 56.4562 34.3188C56.7106 34.4358 56.8982 34.5529 57.019 34.67C57.1521 34.7826 57.2347 34.8822 57.2668 34.9689C57.289 35.0099 57.3359 35.165 57.4073 35.4341C58.0778 38.6905 58.5347 40.8471 58.7781 41.9041L60.7547 37.6047C60.9028 37.2824 61.0482 37.0668 61.1908 36.9577ZM68.6855 44.4094L70.9242 45.4387C71.3744 45.6661 71.5996 45.9135 71.6 46.1808C71.6108 46.3809 71.544 46.6378 71.3998 46.9516L70.1132 49.75C69.9885 50.0214 69.7509 50.2255 69.4004 50.3622C68.3489 50.7725 67.1108 50.6502 65.6861 49.9952C64.4226 49.4143 63.5427 48.4346 63.0465 47.056C62.5543 45.6689 62.618 44.3012 63.2379 42.9528C63.8578 41.6045 64.8492 40.6992 66.2122 40.2369C67.5792 39.7662 68.9071 39.8271 70.1961 40.4197C71.1967 40.8797 71.9902 41.6451 72.5766 42.7159C72.7276 42.9908 72.7543 43.2342 72.6569 43.4462C72.5633 43.6498 72.3566 43.8424 72.0368 44.0241C71.4995 44.3215 71.0951 44.4078 70.8237 44.283C70.6626 44.209 70.4566 43.9756 70.2057 43.5829C69.9587 43.1817 69.5893 42.868 69.0974 42.6419C68.4529 42.3456 67.7753 42.3115 67.0644 42.5394C66.3575 42.7588 65.8344 43.2374 65.4952 43.9752C65.16 44.7045 65.1278 45.4447 65.3988 46.1959C65.6737 46.9386 66.1334 47.4581 66.7779 47.7544C67.2443 47.9688 67.6992 48.0855 68.1425 48.1044L68.7799 46.7179L67.775 46.2559C67.5121 46.1351 67.3411 46.0154 67.2621 45.8969C67.183 45.7783 67.1558 45.6477 67.1803 45.5049C67.2088 45.3536 67.2737 45.1677 67.3751 44.9472C67.4803 44.7183 67.5811 44.5437 67.6774 44.4237C67.7822 44.3075 67.8971 44.2473 68.0223 44.2432C68.21 44.2371 68.4311 44.2925 68.6855 44.4094ZM14.4242 42.2974C14.3284 41.9247 14.3293 41.6323 14.4268 41.4203C14.5281 41.1999 14.843 40.9954 15.3714 40.8068C15.6769 40.7008 15.9484 40.7023 16.1859 40.8115C16.4233 40.9206 16.6566 41.2847 16.8857 41.9036C16.9381 42.1024 17.0434 42.3202 17.2015 42.5573C17.3635 42.7859 17.5378 42.943 17.7244 43.0288C18.513 43.3913 19.0555 43.2504 19.3518 42.6059C19.4414 42.4109 19.4053 42.199 19.2433 41.9705C19.0936 41.7373 18.8713 41.517 18.5764 41.3095C18.2814 41.102 17.9766 40.8489 17.662 40.5501C17.3512 40.2429 17.0757 39.9262 16.8353 39.6C16.5949 39.2738 16.4522 38.8692 16.4072 38.3862C16.3745 37.8986 16.4829 37.3835 16.7324 36.8408C17.0755 36.0945 17.6493 35.5725 18.4539 35.2747C19.2709 34.9723 20.1586 35.0414 21.1168 35.4819C21.6256 35.7158 22.0566 35.9961 22.4097 36.3228C22.7753 36.645 23.0074 36.9109 23.1062 37.1207L23.3131 37.5085C23.4629 37.8753 23.4988 38.1435 23.4208 38.3131C23.3429 38.4827 23.1339 38.6691 22.7939 38.8724C22.3107 39.1638 21.9164 39.2394 21.6111 39.099C21.433 39.0172 21.2515 38.831 21.0666 38.5406C21.049 38.5119 21.0176 38.4461 20.9725 38.3432C20.9358 38.2442 20.8975 38.1598 20.8577 38.0901C20.7303 37.898 20.5267 37.7376 20.2468 37.609C19.9754 37.4842 19.7153 37.4468 19.4664 37.4967C19.2298 37.542 19.0569 37.6834 18.9478 37.9209C18.8425 38.1498 18.8627 38.3851 19.0085 38.6267C19.1627 38.8723 19.3892 39.0945 19.6881 39.2936C19.9869 39.4926 20.3018 39.7349 20.6327 40.0206C20.9676 40.2978 21.261 40.5868 21.5131 40.8876C21.7652 41.1884 21.9095 41.5783 21.946 42.0574C21.995 42.5319 21.8928 43.0447 21.6394 43.5959C21.386 44.1471 21.0515 44.5841 20.6361 44.9067C20.2246 45.2209 19.7882 45.4106 19.3267 45.4758C18.4332 45.6095 17.5964 45.497 16.8162 45.1383C16.4176 44.9551 16.0617 44.7349 15.7484 44.4779C15.439 44.2124 15.2073 43.9569 15.053 43.7114C14.7284 43.2334 14.5354 42.8263 14.4743 42.49L14.4242 42.2974ZM30.8303 39.9937C32.0854 40.5707 32.9665 41.5253 33.4737 42.8576C33.9809 44.1899 33.9245 45.5303 33.3047 46.8786C32.6887 48.2185 31.7214 49.1606 30.4029 49.7049C29.0882 50.2407 27.7864 50.2124 26.4974 49.6198C25.2084 49.0272 24.3247 48.056 23.8461 46.706C23.3761 45.3599 23.4373 44.0424 24.0299 42.7534C24.3535 42.0496 24.7828 41.4509 25.3179 40.9572C25.8569 40.4551 26.4339 40.0938 27.049 39.8732C27.664 39.6526 28.3017 39.5503 28.9621 39.5662C29.6224 39.5822 30.2452 39.7247 30.8303 39.9937ZM26.3106 43.7249C25.9636 44.4796 25.9227 45.2055 26.1877 45.9026C26.4652 46.5952 26.9049 47.0798 27.507 47.3566C28.1091 47.6334 28.7571 47.654 29.451 47.4183C30.1449 47.1825 30.6692 46.6788 31.024 45.9071C31.3787 45.1355 31.4174 44.4033 31.14 43.7108C30.871 43.0222 30.4355 42.5395 29.8334 42.2627C29.2313 41.9859 28.5794 41.9738 27.8778 42.2265C27.18 42.4707 26.6576 42.9702 26.3106 43.7249ZM41.711 44.9958C42.9661 45.5728 43.8472 46.5275 44.3544 47.8598C44.8616 49.1921 44.8053 50.5324 44.1854 51.8808C43.5694 53.2206 42.6022 54.1627 41.2836 54.707C39.9689 55.2429 38.6671 55.2145 37.3781 54.6219C36.0891 54.0294 35.2054 53.0581 34.7269 51.7081C34.2568 50.3621 34.3181 49.0446 34.9106 47.7556C35.2342 47.0517 35.6636 46.453 36.1987 45.9594C36.7376 45.4573 37.3147 45.0959 37.9297 44.8753C38.5447 44.6547 39.1824 44.5524 39.8428 44.5684C40.5032 44.5844 41.1259 44.7268 41.711 44.9958ZM37.1913 48.727C36.8444 49.4818 36.8034 50.2077 37.0685 50.9048C37.3459 51.5973 37.7857 52.082 38.3877 52.3588C38.9898 52.6356 39.6378 52.6561 40.3317 52.4204C41.0256 52.1847 41.5499 51.681 41.9047 50.9093C42.2595 50.1376 42.2981 49.4055 42.0207 48.713C41.7518 48.0244 41.3162 47.5416 40.7141 47.2648C40.1121 46.9881 39.4602 46.976 38.7585 47.2287C38.0607 47.4729 37.5383 47.9723 37.1913 48.727ZM53.9988 51.2612C54.1537 51.1475 54.3235 51.1023 54.508 51.1255C54.6925 51.1486 54.9035 51.2148 55.1409 51.324C55.3869 51.437 55.5722 51.5479 55.6968 51.6566C55.83 51.7692 55.9168 51.8707 55.9574 51.9613C56.0064 52.0557 56.0206 52.1701 55.9999 52.3044C55.9884 52.4635 55.9145 52.6914 55.778 52.9882L52.5325 60.0479C52.4389 60.2515 52.3622 60.396 52.3024 60.4814C52.251 60.5708 52.1622 60.6635 52.0359 60.7595C51.8119 60.9339 51.4285 60.8964 50.8858 60.6469C50.5551 60.4948 50.3378 60.3641 50.234 60.2548C50.1302 60.1454 50.0612 60.0161 50.0271 59.8669C49.2886 56.4457 48.7977 54.2066 48.5543 53.1496L46.6303 57.3346C46.5368 57.5381 46.4601 57.6826 46.4002 57.7681C46.3489 57.8575 46.26 57.9501 46.1337 58.0462C45.9097 58.2205 45.5264 58.183 44.9836 57.9335C44.4579 57.6918 44.1882 57.4291 44.1748 57.1456C44.1654 56.9872 44.1756 56.8532 44.2055 56.7437C44.2438 56.638 44.3078 56.4877 44.3974 56.2926L47.6605 49.1948C47.8086 48.8725 47.954 48.6569 48.0966 48.5478C48.2516 48.4341 48.4213 48.3889 48.6058 48.4121C48.7903 48.4353 49.0098 48.5053 49.2642 48.6223C49.5186 48.7393 49.7062 48.8563 49.827 48.9735C49.9601 49.086 50.0427 49.1857 50.0748 49.2723C50.097 49.3133 50.1439 49.4684 50.2153 49.7375C50.8858 52.9939 51.3427 55.1506 51.5861 56.2076L53.5627 51.9081C53.7108 51.5859 53.8562 51.3702 53.9988 51.2612ZM55.0657 60.2264C55.2285 60.0957 55.4083 60.0397 55.6052 60.0584C55.8106 60.0809 56.0956 60.1759 56.4602 60.3436C56.8334 60.5151 57.0634 60.7185 57.1505 60.9537C57.246 61.1928 57.2139 61.4861 57.054 61.8338L56.9605 62.0374C56.8669 62.2409 56.7882 62.3896 56.7245 62.4836C56.6731 62.573 56.5823 62.6699 56.4521 62.7744C56.2034 62.9579 55.8204 62.9308 55.3031 62.693C54.7943 62.4591 54.4921 62.2226 54.3966 61.9835C54.3134 61.7398 54.381 61.3805 54.5993 60.9057C54.7514 60.5749 54.9068 60.3485 55.0657 60.2264ZM57.4544 59.5217C57.2738 59.49 57.0478 59.4118 56.7764 59.2871C56.5051 59.1623 56.2986 59.0417 56.1569 58.9252C56.0153 58.8088 55.9359 58.6798 55.9188 58.5384C55.9101 58.4008 55.9168 58.2858 55.9388 58.1932C55.9693 58.1045 56.0255 57.9711 56.1073 57.793L57.9611 53.7607C58.043 53.5826 58.1076 53.4531 58.1551 53.3722C58.2149 53.2867 58.3041 53.2045 58.4226 53.1254C58.5412 53.0464 58.6907 53.0227 58.8713 53.0544C59.0559 53.0775 59.2838 53.1515 59.5552 53.2763C59.8265 53.401 60.0311 53.5259 60.1688 53.6508C60.3104 53.7673 60.3836 53.8985 60.3884 54.0446C60.4056 54.186 60.397 54.3053 60.3626 54.4025C60.3405 54.4951 60.2886 54.6304 60.2067 54.8085L58.353 58.8408C58.2711 59.0189 58.2022 59.1464 58.1462 59.2234C58.0988 59.3043 58.0158 59.3843 57.8973 59.4634C57.7826 59.5339 57.635 59.5534 57.4544 59.5217Z" fill="#0E1A2F"/>
<defs>
<linearGradient id="paint0_linear_4244_4375" x1="73.4721" y1="-1.22454" x2="15.4973" y2="63.086" gradientUnits="userSpaceOnUse">
<stop stop-color="#B0FFD0"/>
<stop offset="1" stop-color="#E7FFE9"/>
</linearGradient>
</defs>
</svg>
