<svg width="42" height="42" viewBox="0 0 42 42" fill="none" xmlns="http://www.w3.org/2000/svg">
<path d="M5.25303 26.25V31.325V32.0249V32.2C5.24621 32.2 5.25303 32.2 5.25303 32.375C5.25303 36.575 12.3045 40.25 21.003 40.25C29.7023 40.25 36.753 36.575 36.753 32.375V32.0249V31.5V26.25H5.25303Z" fill="#95A5A6"/>
<path d="M36.75 26.25C36.75 30.1159 29.6993 33.25 21 33.25C12.3014 33.25 5.25 30.1159 5.25 26.25C5.25 22.3841 12.3014 19.25 21 19.25C29.6993 19.25 36.75 22.3841 36.75 26.25Z" fill="#BDC3C7"/>
<path d="M5.35938 32.375C5.27888 32.55 5.25 32.9 5.25 33.25C5.25 37.1 12.3014 40.25 21 40.25C29.6993 40.25 36.75 37.1 36.75 33.25C36.75 32.9 36.7202 32.55 36.6415 32.375C35.672 35.7 29.0308 38.5 21 38.5C12.9686 38.5 6.32852 35.7 5.35938 32.375Z" fill="#7F8C8D"/>
<path d="M5.25303 17.5V22.575V23.2749V23.45C5.24621 23.45 5.25303 23.45 5.25303 23.625C5.25303 27.825 12.3045 31.5 21.003 31.5C29.7023 31.5 36.753 27.825 36.753 23.625V23.2749V22.75V17.5H5.25303Z" fill="#95A5A6"/>
<path d="M36.75 17.5C36.75 21.3659 29.6993 24.5 21 24.5C12.3014 24.5 5.25 21.3659 5.25 17.5C5.25 13.6341 12.3014 10.5 21 10.5C29.6993 10.5 36.75 13.6341 36.75 17.5Z" fill="#BDC3C7"/>
<path d="M5.35938 23.625C5.27888 23.8 5.25 24.15 5.25 24.5C5.25 28.35 12.3014 31.5 21 31.5C29.6993 31.5 36.75 28.35 36.75 24.5C36.75 24.15 36.7202 23.8 36.6415 23.625C35.672 26.95 29.0308 29.75 21 29.75C12.9686 29.75 6.32852 26.95 5.35938 23.625Z" fill="#7F8C8D"/>
<path d="M5.25303 8.75V13.825V14.5249V14.7C5.24621 14.7 5.25303 14.7 5.25303 14.875C5.25303 19.075 12.3045 22.75 21.003 22.75C29.7023 22.75 36.753 19.075 36.753 14.875V14.5249V14V8.75H5.25303Z" fill="#95A5A6"/>
<path d="M5.35938 14.875C5.27888 15.05 5.25 15.4 5.25 15.75C5.25 19.6 12.3014 22.75 21 22.75C29.6993 22.75 36.75 19.6 36.75 15.75C36.75 15.4 36.7202 15.05 36.6415 14.875C35.672 18.2 29.0308 21 21 21C12.9686 21 6.32852 18.2 5.35938 14.875Z" fill="#7F8C8D"/>
<path d="M21 26.25V40.25C29.6993 40.25 36.75 36.575 36.75 32.375V32.0249V31.5V26.25H21Z" fill="#BDC3C7"/>
<path d="M21 19.25V33.25C29.6993 33.25 36.75 30.1158 36.75 26.25C36.75 22.3841 29.6993 19.25 21 19.25Z" fill="#ECF0F1"/>
<path d="M21 17.5V31.5C29.6993 31.5 36.75 27.9738 36.75 23.625V23.2969V22.75V17.5H21Z" fill="#BDC3C7"/>
<path d="M36.6415 23.625C35.672 27.0778 29.0308 29.75 21 29.75V31.5C29.6993 31.5 36.75 28.3658 36.75 24.5C36.75 24.2035 36.7202 23.9117 36.6415 23.625Z" fill="#95A5A6"/>
<path d="M21 10.5V24.5C29.6993 24.5 36.75 21.3658 36.75 17.5C36.75 13.6341 29.6993 10.5 21 10.5Z" fill="#ECF0F1"/>
<path d="M21 8.75V22.75C29.6993 22.75 36.75 19.2238 36.75 14.875V14.5469V14V8.75H21Z" fill="#BDC3C7"/>
<path d="M36.6415 14.875C35.672 18.3278 29.0308 21 21 21V22.75C29.6993 22.75 36.75 19.6158 36.75 15.75C36.75 15.4535 36.7202 15.1617 36.6415 14.875Z" fill="#95A5A6"/>
<path d="M36.6415 32.375C35.672 35.7 29.0308 38.5 21 38.5V40.25C29.6993 40.25 36.75 37.1 36.75 33.25C36.75 32.9 36.7202 32.55 36.6415 32.375Z" fill="#95A5A6"/>
<path d="M36.75 8.75C36.75 12.6159 29.6993 15.75 21 15.75C12.3014 15.75 5.25 12.6159 5.25 8.75C5.25 4.88407 12.3014 1.75 21 1.75C29.6993 1.75 36.75 4.88407 36.75 8.75Z" fill="#BDC3C7"/>
</svg>
