<svg width="70" height="71" viewBox="0 0 70 71" fill="none" xmlns="http://www.w3.org/2000/svg">
<path d="M33.5472 5.32106C33.2988 5.87475 33.2101 6.42384 33.2814 6.96801C33.294 7.49159 33.4934 7.8339 33.7656 8.23766C33.8487 8.36357 33.9222 8.51083 34.0245 8.61901C34.249 8.85792 34.4701 9.10196 34.7088 9.32528C35.2625 9.84032 35.8258 10.3413 36.3928 10.8409C37.3888 11.7185 38.4185 12.5572 39.4435 13.3997C39.8074 13.6985 40.1738 13.9951 40.5416 14.2901C42.2718 15.6779 44.0371 17.0222 45.8102 18.3556C48.1947 20.1486 50.603 21.9058 53.0134 23.6634C55.2576 25.2998 57.5872 26.8154 59.8964 28.3636C61.2763 29.2887 62.6763 30.1834 64.0808 31.0747C64.4695 31.3096 64.9062 31.3128 65.3899 31.0845C66.4072 30.7127 67.3756 29.7472 68.0679 28.8842C68.6059 28.2237 69.036 27.5074 69.3595 26.7376C69.5965 26.1241 69.9617 24.9101 69.3414 24.5162C66.224 22.5355 63.1763 20.4618 60.1159 18.4009C59.273 17.8346 58.4772 17.2014 57.6635 16.5947C56.3324 15.6026 55.0017 14.6081 53.6711 13.6144C52.9472 13.0747 52.2427 12.5069 51.5389 11.9392C51.2037 11.6685 50.8695 11.3985 50.531 11.132C49.5474 10.352 48.58 9.55813 47.617 8.74947C45.5142 6.9861 43.4617 5.16523 41.4208 3.32879C41.0017 2.9517 40.5845 2.57423 40.1667 2.19547C39.9695 2.01823 39.7699 1.84409 39.5716 1.66828C39.1487 1.29282 38.6562 1.1203 38.0894 0.973745C37.5433 1.02153 37.0265 1.22724 36.5393 1.59068C35.8827 2.05624 35.3005 2.61028 34.7909 3.25381C34.2729 3.88936 33.8588 4.57949 33.5472 5.32106Z" fill="#FFAE45"/>
<path d="M2.60021 27.7244C2.04371 27.9709 1.60879 28.3276 1.29585 28.7943C0.953278 29.2036 0.87103 29.6071 0.801527 30.1095C0.778541 30.2648 0.734011 30.4297 0.737162 30.5851C0.743073 30.9275 0.743087 31.2714 0.769971 31.612C0.834445 32.3996 0.915558 33.1834 1.00021 33.9687C1.14905 35.3483 1.34894 36.7221 1.54295 38.0955C1.61195 38.5828 1.68436 39.0703 1.75884 39.5574C2.10929 41.8495 2.51494 44.1331 2.9338 46.414C3.49714 49.4813 4.10223 52.5381 4.70856 55.5967C5.27311 58.4445 5.98221 61.2606 6.65441 64.0872C7.05596 65.7761 7.493 67.4563 7.93562 69.1369C8.06596 69.5931 8.38772 69.9062 8.90002 70.0758C9.90457 70.5155 11.2719 70.4665 12.3656 70.2992C13.2087 70.1771 14.0092 69.9356 14.7666 69.5773C15.3549 69.2769 16.4419 68.6087 16.2466 67.8662C15.2659 64.134 14.3993 60.3803 13.5146 56.6273C13.2701 55.5947 13.1055 54.5444 12.9098 53.5017C12.5894 51.7962 12.2709 50.0891 11.9519 48.3827C11.7778 47.4551 11.6369 46.5198 11.4965 45.585C11.4299 45.1395 11.3635 44.6954 11.2915 44.2508C11.0863 42.9547 10.9024 41.6595 10.7317 40.3561C10.3574 37.512 10.059 34.6596 9.77979 31.8036C9.72239 31.2171 9.66671 30.6317 9.61142 30.0449C9.58432 29.7691 9.55332 29.494 9.5244 29.2185C9.46311 28.6305 9.21383 28.1483 8.89186 27.6329C8.45468 27.2809 7.93309 27.0705 7.32739 27.0017C6.52737 26.8904 5.72304 26.8996 4.91245 27.029C4.10095 27.1463 3.32988 27.3793 2.60021 27.7244Z" fill="#FFAE45"/>
<path d="M20.8973 21.7801C20.485 22.2372 20.2366 22.7685 20.1523 23.3735C20.0144 23.9281 20.1186 24.3851 20.2793 24.9424C20.3276 25.1153 20.3599 25.3058 20.4328 25.4696C20.5925 25.8307 20.7472 26.1955 20.9257 26.5472C21.3408 27.3601 21.7697 28.1629 22.2026 28.9661C22.9633 30.3772 23.7694 31.7641 24.5698 33.1527C24.8539 33.6453 25.1413 34.1369 25.4306 34.6275C26.7914 36.9355 28.2003 39.2152 29.6205 41.4873C31.5302 44.5428 33.4746 47.5725 35.4209 50.6037C37.2331 53.4259 39.1669 56.1637 41.0708 58.9255C42.2083 60.5759 43.3752 62.2044 44.5476 63.8315C44.8754 64.2695 45.3188 64.4885 45.8768 64.4883C47.0191 64.6014 48.2827 64.0686 49.2358 63.5067C49.9735 63.0807 50.6175 62.543 51.1684 61.8967C51.5864 61.3712 52.3077 60.2802 51.79 59.5613C49.1886 55.9473 46.6848 52.2703 44.1643 48.6004C43.4698 47.5912 42.8425 46.535 42.1892 45.4977C41.1206 43.8013 40.053 42.1025 38.9853 40.4047C38.4042 39.482 37.8509 38.5394 37.2983 37.5972C37.0352 37.1481 36.773 36.7003 36.5052 36.254C35.7291 34.9514 34.9734 33.6422 34.2265 32.3197C32.5948 29.4344 31.0308 26.5137 29.4832 23.5825C29.1653 22.9806 28.8496 22.3792 28.5336 21.7762C28.384 21.4932 28.231 21.2122 28.0799 20.9302C27.7577 20.3281 27.3064 19.9042 26.7717 19.4707C26.2023 19.2511 25.6172 19.2113 25.0167 19.3513C24.2145 19.5145 23.4624 19.8072 22.7585 20.2294C22.0482 20.6391 21.4281 21.1574 20.8973 21.7801Z" fill="#FFAE45"/>
</svg>
