<svg width="139" height="133" viewBox="0 0 139 133" fill="none" xmlns="http://www.w3.org/2000/svg">
<g filter="url(#filter0_i_4420_888)">
<rect x="0.125" y="0.0742188" width="138.697" height="132.773" rx="9.83274" fill="url(#paint0_linear_4420_888)"/>
</g>
<mask id="mask0_4420_888" style="mask-type:alpha" maskUnits="userSpaceOnUse" x="0" y="0" width="139" height="133">
<rect x="0.125" y="0.0742188" width="138.697" height="132.773" rx="9.83274" fill="#0468D7"/>
</mask>
<g mask="url(#mask0_4420_888)">
<path d="M66.5092 41.5967C67.9658 39.5749 70.9753 39.5749 72.432 41.5967L75.3764 45.6835C76.5613 47.3283 78.8596 47.6923 80.4949 46.4942L84.558 43.5173C86.5682 42.0446 89.4304 42.9746 90.1909 45.3476L91.7283 50.1442C92.3471 52.0747 94.4204 53.1311 96.3458 52.4969L101.13 50.9213C103.497 50.1418 105.932 51.9108 105.922 54.4026L105.902 59.4396C105.893 61.4668 107.539 63.1121 109.566 63.104L114.603 63.0839C117.095 63.074 118.864 65.5087 118.084 67.8756L116.509 72.6598C115.875 74.5852 116.931 76.6585 118.861 77.2773L123.658 78.8147C126.031 79.5752 126.961 82.4375 125.488 84.4476L122.511 88.5107C121.313 90.146 121.677 92.4443 123.322 93.6293L127.409 96.5736C129.431 98.0303 129.431 101.04 127.409 102.496L123.322 105.441C121.677 106.626 121.313 108.924 122.511 110.559L125.488 114.623C126.961 116.633 126.031 119.495 123.658 120.255L118.861 121.793C116.931 122.412 115.875 124.485 116.509 126.41L118.084 131.194C118.864 133.561 117.095 135.996 114.603 135.986L109.566 135.966C107.539 135.958 105.893 137.603 105.902 139.63L105.922 144.667C105.932 147.159 103.497 148.928 101.13 148.149L96.3458 146.573C94.4204 145.939 92.3471 146.995 91.7283 148.926L90.1909 153.723C89.4304 156.095 86.5682 157.025 84.558 155.553L80.4949 152.576C78.8596 151.378 76.5613 151.742 75.3764 153.387L72.432 157.473C70.9753 159.495 67.9658 159.495 66.5092 157.473L63.5648 153.387C62.3798 151.742 60.0815 151.378 58.4463 152.576L54.3831 155.553C52.373 157.025 49.5108 156.095 48.7502 153.723L47.2128 148.926C46.5941 146.995 44.5208 145.939 42.5953 146.573L37.8111 148.149C35.4443 148.928 33.0095 147.159 33.0195 144.667L33.0396 139.63C33.0477 137.603 31.4023 135.958 29.3751 135.966L24.3382 135.986C21.8463 135.996 20.0774 133.561 20.8569 131.194L22.4325 126.41C23.0666 124.485 22.0102 122.412 20.0798 121.793L15.2831 120.255C12.9101 119.495 11.9801 116.633 13.4529 114.623L16.4298 110.559C17.6279 108.924 17.2639 106.626 15.6191 105.441L11.5323 102.496C9.51048 101.04 9.51047 98.0303 11.5323 96.5736L15.6191 93.6293C17.2639 92.4443 17.6279 90.146 16.4298 88.5107L13.4529 84.4476C11.9801 82.4375 12.9101 79.5752 15.2831 78.8147L20.0797 77.2773C22.0102 76.6586 23.0666 74.5852 22.4325 72.6598L20.8569 67.8756C20.0774 65.5087 21.8463 63.074 24.3382 63.0839L29.3751 63.104C31.4023 63.1121 33.0477 61.4668 33.0396 59.4396L33.0195 54.4026C33.0095 51.9108 35.4443 50.1418 37.8111 50.9213L42.5953 52.4969C44.5208 53.1311 46.5941 52.0747 47.2128 50.1442L48.7502 45.3476C49.5108 42.9746 52.373 42.0446 54.3831 43.5173L58.4463 46.4942C60.0815 47.6923 62.3798 47.3283 63.5648 45.6835L66.5092 41.5967Z" fill="#40D0FD"/>
<path d="M130.522 -14.603C131.465 -15.9112 133.412 -15.9112 134.354 -14.603L136.26 -11.9586C137.026 -10.8944 138.513 -10.6588 139.572 -11.4341L142.201 -13.3603C143.501 -14.3132 145.353 -13.7115 145.846 -12.176L146.84 -9.07231C147.241 -7.82319 148.582 -7.13963 149.828 -7.54995L152.924 -8.56947C154.455 -9.07385 156.031 -7.92924 156.024 -6.31685L156.011 -3.05765C156.006 -1.74595 157.071 -0.681288 158.382 -0.686524L161.642 -0.699533C163.254 -0.705969 164.399 0.869454 163.894 2.40093L162.875 5.4966C162.464 6.74248 163.148 8.08404 164.397 8.48439L167.501 9.47917C169.036 9.9713 169.638 11.8233 168.685 13.124L166.759 15.7531C165.984 16.8112 166.219 18.2983 167.283 19.0651L169.928 20.9703C171.236 21.9128 171.236 23.8601 169.928 24.8027L167.283 26.7078C166.219 27.4746 165.984 28.9617 166.759 30.0198L168.685 32.6489C169.638 33.9496 169.036 35.8016 167.501 36.2938L164.397 37.2885C163.148 37.6889 162.464 39.0305 162.875 40.2763L163.894 43.372C164.399 44.9035 163.254 46.4789 161.642 46.4725L158.382 46.4595C157.071 46.4542 156.006 47.5189 156.011 48.8306L156.024 52.0898C156.031 53.7022 154.455 54.8468 152.924 54.3424L149.828 53.3229C148.582 52.9126 147.241 53.5961 146.84 54.8452L145.846 57.949C145.353 59.4844 143.501 60.0862 142.201 59.1332L139.572 57.207C138.513 56.4318 137.026 56.6673 136.26 57.7316L134.354 60.376C133.412 61.6842 131.465 61.6842 130.522 60.376L128.617 57.7316C127.85 56.6673 126.363 56.4318 125.305 57.207L122.676 59.1332C121.375 60.0862 119.523 59.4844 119.031 57.949L118.036 54.8452C117.636 53.5961 116.294 52.9126 115.048 53.3229L111.953 54.3424C110.421 54.8468 108.846 53.7022 108.852 52.0898L108.865 48.8306C108.87 47.5189 107.806 46.4542 106.494 46.4595L103.235 46.4725C101.623 46.4789 100.478 44.9035 100.982 43.372L102.002 40.2763C102.412 39.0305 101.729 37.6889 100.479 37.2885L97.3757 36.2938C95.8403 35.8016 95.2385 33.9496 96.1915 32.6489L98.1177 30.0198C98.8929 28.9617 98.6574 27.4746 97.5931 26.7078L94.9487 24.8027C93.6405 23.8601 93.6405 21.9128 94.9487 20.9703L97.5931 19.0651C98.6574 18.2983 98.8929 16.8112 98.1177 15.7531L96.1915 13.124C95.2385 11.8233 95.8403 9.9713 97.3757 9.47917L100.479 8.48439C101.729 8.08404 102.412 6.74248 102.002 5.4966L100.982 2.40093C100.478 0.869454 101.623 -0.705969 103.235 -0.699533L106.494 -0.686524C107.806 -0.681288 108.87 -1.74595 108.865 -3.05765L108.852 -6.31685C108.846 -7.92924 110.421 -9.07385 111.953 -8.56947L115.048 -7.54995C116.294 -7.13963 117.636 -7.82319 118.036 -9.07231L119.031 -12.176C119.523 -13.7115 121.375 -14.3132 122.676 -13.3603L125.305 -11.4341C126.363 -10.6588 127.85 -10.8944 128.617 -11.9586L130.522 -14.603Z" fill="#65D4F6"/>
</g>
<path d="M78.1851 28.3604L39.3594 67.1408L51.3167 79.0981L102.003 28.4024H78.2271L78.1851 28.3604ZM78.2303 64.1418L57.318 85.0121L78.2271 105.921H102.054L81.1776 85.0186L102.054 64.1418H78.2368H78.2303Z" fill="#2A2F47"/>
<path d="M75.4507 27.4482L36.625 66.2287L48.5823 78.186L99.2683 27.4903H75.4927L75.4507 27.4482ZM75.4959 63.2297L54.5836 84.1L75.4927 105.009H99.32L78.4432 84.1065L99.32 63.2297H75.5024H75.4959Z" fill="white"/>
<defs>
<filter id="filter0_i_4420_888" x="0.125" y="0.0742188" width="142.345" height="136.423" filterUnits="userSpaceOnUse" color-interpolation-filters="sRGB">
<feFlood flood-opacity="0" result="BackgroundImageFix"/>
<feBlend mode="normal" in="SourceGraphic" in2="BackgroundImageFix" result="shape"/>
<feColorMatrix in="SourceAlpha" type="matrix" values="0 0 0 0 0 0 0 0 0 0 0 0 0 0 0 0 0 0 127 0" result="hardAlpha"/>
<feOffset dx="3.64992" dy="3.64992"/>
<feGaussianBlur stdDeviation="9.12481"/>
<feComposite in2="hardAlpha" operator="arithmetic" k2="-1" k3="1"/>
<feColorMatrix type="matrix" values="0 0 0 0 1 0 0 0 0 1 0 0 0 0 1 0 0 0 0.1 0"/>
<feBlend mode="normal" in2="shape" result="effect1_innerShadow_4420_888"/>
</filter>
<linearGradient id="paint0_linear_4420_888" x1="6.96861" y1="0.0742176" x2="132.891" y2="133.296" gradientUnits="userSpaceOnUse">
<stop stop-color="#62D9FF" stop-opacity="0.78"/>
<stop offset="1" stop-color="#1A87A9"/>
</linearGradient>
</defs>
</svg>
