<svg width="80" height="17" viewBox="0 0 80 17" fill="none" xmlns="http://www.w3.org/2000/svg">
<path d="M3.57041 15.0246C3.5753 15.2567 3.53057 15.4872 3.4392 15.7007C3.34783 15.9141 3.21194 16.1056 3.04061 16.2623C2.8807 16.4298 2.68822 16.5628 2.47501 16.6532C2.26179 16.7435 2.03235 16.7893 1.80078 16.7877H1.75735C1.52611 16.7893 1.297 16.7435 1.08414 16.6531C0.871282 16.5627 0.679185 16.4297 0.519689 16.2623C0.35044 16.1045 0.216649 15.9126 0.127182 15.6992C0.0377157 15.4859 -0.00538366 15.2559 0.000740353 15.0246V7.05366C-0.0129587 6.12575 0.163582 5.20487 0.519473 4.34782C0.875365 3.49077 1.40306 2.71571 2.07002 2.07045C2.71528 1.40349 3.49034 0.875789 4.3474 0.519897C5.20445 0.164006 6.12532 -0.0125346 7.05323 0.00116444C7.97874 -0.0114788 8.89702 0.165605 9.75146 0.521496C10.6059 0.877387 11.3784 1.40454 12.0212 2.07045C12.6886 2.71539 13.2166 3.49039 13.5725 4.34752C13.9284 5.20465 14.1047 6.12568 14.0905 7.05366V15.0246C14.0832 15.49 13.8952 15.9342 13.5661 16.2633C13.237 16.5924 12.7927 16.7805 12.3274 16.7877H12.2992C12.0655 16.7905 11.8338 16.7453 11.6183 16.6549C11.4028 16.5645 11.2081 16.4309 11.0463 16.2623C10.8759 16.1051 10.7409 15.9135 10.6503 15.7001C10.5597 15.4866 10.5156 15.2564 10.5209 15.0246V7.05366C10.5229 6.59686 10.4344 6.1442 10.2605 5.72179C10.0866 5.29938 9.83079 4.91559 9.50779 4.59259C9.18478 4.26958 8.801 4.01376 8.37859 3.83988C7.95618 3.666 7.50351 3.57751 7.04672 3.57952C6.58993 3.57751 6.13726 3.666 5.71485 3.83988C5.29244 4.01376 4.90865 4.26958 4.58565 4.59259C4.26264 4.91559 4.00682 5.29938 3.83294 5.72179C3.65906 6.1442 3.57057 6.59686 3.57258 7.05366L3.57041 15.0246Z" fill="#0E1A2F"/>
<path d="M24.9711 0.00103938C26.0753 -0.0152042 27.1711 0.194891 28.1909 0.618371C29.2108 1.04185 30.1331 1.66974 30.901 2.46333C31.6946 3.23123 32.3225 4.15355 32.746 5.17341C33.1694 6.19328 33.3795 7.28907 33.3633 8.39324C33.3796 9.4995 33.1687 10.5973 32.7437 11.6188C32.3187 12.6403 31.6886 13.5637 30.8923 14.3318C30.1143 15.1122 29.1899 15.7314 28.1722 16.1539C27.1544 16.5764 26.0633 16.7939 24.9613 16.7939C23.8594 16.7939 22.7682 16.5764 21.7505 16.1539C20.7327 15.7314 19.8083 15.1122 19.0303 14.3318C18.2357 13.5629 17.6071 12.6392 17.1836 11.6178C16.7601 10.5963 16.5506 9.49887 16.568 8.39324C16.5518 7.28907 16.7619 6.19328 17.1854 5.17341C17.6088 4.15355 18.2367 3.23123 19.0303 2.46333C19.7995 1.6684 20.7236 1.03973 21.7454 0.616201C22.7672 0.192676 23.8651 -0.0166947 24.9711 0.00103938ZM24.9711 3.60111C24.334 3.59022 23.7015 3.71003 23.1126 3.95316C22.5236 4.19628 21.9908 4.55754 21.5469 5.01465C21.093 5.46025 20.7347 5.99371 20.4939 6.58246C20.2531 7.1712 20.1348 7.80286 20.1464 8.43884C20.1361 9.07238 20.255 9.70138 20.4958 10.2875C20.7366 10.8736 21.0942 11.4045 21.5469 11.8478C22.4535 12.7531 23.6823 13.2615 24.9635 13.2615C26.2447 13.2615 27.4735 12.7531 28.3801 11.8478C28.8361 11.4064 29.1969 10.8761 29.44 10.2898C29.6831 9.70344 29.8035 9.0735 29.7936 8.43884C29.8048 7.80175 29.6851 7.16914 29.4419 6.58016C29.1988 5.99118 28.8374 5.45836 28.3801 5.01465C27.9386 4.5586 27.4083 4.19788 26.822 3.95476C26.2357 3.71164 25.6057 3.59128 24.9711 3.60111Z" fill="#0E1A2F"/>
<path d="M39.4017 9.77185C39.4017 10.684 39.764 11.5589 40.409 12.2039C41.0541 12.8489 41.9289 13.2112 42.8411 13.2112C43.7533 13.2112 44.6281 12.8489 45.2731 12.2039C45.9181 11.5589 46.2805 10.684 46.2805 9.77185V1.77917C46.2773 1.54565 46.3221 1.31397 46.4122 1.09847C46.5022 0.882963 46.6354 0.688228 46.8038 0.526313C46.9657 0.357925 47.1604 0.224446 47.3759 0.134081C47.5913 0.0437168 47.823 -0.00162269 48.0566 0.000850551H48.087C48.3188 -0.00444754 48.549 0.039672 48.7624 0.130274C48.9758 0.220876 49.1675 0.355883 49.3247 0.526313C49.4933 0.68812 49.6269 0.882786 49.7173 1.09828C49.8076 1.31377 49.8529 1.54551 49.8501 1.77917V9.77185C49.8501 10.6858 50.2132 11.5622 50.8594 12.2085C51.5056 12.8547 52.3821 13.2178 53.296 13.2178C54.2099 13.2178 55.0864 12.8547 55.7327 12.2085C56.3789 11.5622 56.742 10.6858 56.742 9.77185V1.77917C56.7392 1.54551 56.7844 1.31377 56.8748 1.09828C56.9652 0.882786 57.0988 0.68812 57.2674 0.526313C57.4246 0.355883 57.6162 0.220876 57.8296 0.130274C58.043 0.039672 58.2733 -0.00444754 58.5051 0.000850551H58.5333C58.7673 -0.00179164 58.9993 0.0434619 59.2151 0.133828C59.431 0.224193 59.626 0.357761 59.7883 0.526313C59.9525 0.690581 60.082 0.886091 60.1693 1.10128C60.2565 1.31648 60.2998 1.54698 60.2964 1.77917V9.77185C60.3107 10.6943 60.1357 11.6098 59.7825 12.462C59.4292 13.3142 58.905 14.085 58.2423 14.7268C57.6006 15.389 56.8302 15.9129 55.9784 16.2662C55.1266 16.6194 54.2115 16.7946 53.2895 16.7809C50.9734 16.7809 49.2364 16.0137 48.0783 14.4793C46.9029 16.0152 45.1593 16.7824 42.8476 16.7809C41.9252 16.7946 41.0098 16.6195 40.1577 16.2662C39.3056 15.913 38.5347 15.3891 37.8926 14.7268C37.2279 14.086 36.7018 13.3156 36.3466 12.4633C35.9915 11.6111 35.8148 10.6951 35.8277 9.77185V1.77917C35.8249 1.54551 35.8702 1.31377 35.9605 1.09828C36.0509 0.882786 36.1845 0.68812 36.3531 0.526313C36.5131 0.358337 36.7059 0.225021 36.9196 0.134631C37.1332 0.0442421 37.3632 -0.00129272 37.5951 0.000850551H37.6386C37.8701 -0.000482627 38.0995 0.0454295 38.3126 0.135779C38.5258 0.226128 38.7183 0.359016 38.8784 0.526313C39.0467 0.688228 39.18 0.882963 39.27 1.09847C39.36 1.31397 39.4048 1.54565 39.4017 1.77917V9.77185Z" fill="#0E1A2F"/>
<path d="M77.5347 2.4634C78.3286 3.2312 78.9568 4.15344 79.3807 5.1733C79.8045 6.19315 80.015 7.289 79.9992 8.39331V15.0246C80.0045 15.2563 79.9604 15.4866 79.8697 15.7C79.7791 15.9134 79.6441 16.1051 79.4737 16.2622C79.3142 16.4297 79.1221 16.5627 78.9092 16.653C78.6964 16.7434 78.4673 16.7892 78.236 16.7877H78.1905C77.9592 16.7892 77.7301 16.7434 77.5172 16.653C77.3044 16.5627 77.1123 16.4297 76.9528 16.2622C76.7824 16.1051 76.6474 15.9134 76.5567 15.7C76.4661 15.4866 76.422 15.2563 76.4273 15.0246C75.3199 16.1985 73.7124 16.7862 71.6048 16.7877C70.5011 16.805 69.4055 16.5961 68.3856 16.1737C67.3657 15.7514 66.4432 15.1245 65.6749 14.3319C64.881 13.5638 64.253 12.6411 63.8295 11.6208C63.406 10.6006 63.196 9.50436 63.2126 8.39983C63.1963 7.29566 63.4064 6.19986 63.8299 5.18C64.2534 4.16013 64.8813 3.23782 65.6749 2.46991C66.4527 1.68958 67.3769 1.07043 68.3945 0.647976C69.4121 0.225519 70.503 0.00805768 71.6048 0.00805768C72.7066 0.00805768 73.7975 0.225519 74.8151 0.647976C75.8327 1.07043 76.7569 1.68958 77.5347 2.46991V2.4634ZM68.1806 4.99518C67.7288 5.43911 67.372 5.97018 67.1316 6.55617C66.8912 7.14216 66.7724 7.77087 66.7823 8.40417C66.7759 9.03935 66.8962 9.66942 67.1363 10.2575C67.3764 10.8456 67.7313 11.3799 68.1804 11.8292C68.6295 12.2785 69.1636 12.6337 69.7516 12.874C70.3396 13.1143 70.9696 13.235 71.6048 13.2289C72.2386 13.2412 72.8682 13.1232 73.4546 12.8823C74.041 12.6414 74.5717 12.2827 75.0138 11.8284C75.4732 11.3838 75.8362 10.8494 76.0802 10.2584C76.3241 9.66741 76.4437 9.03254 76.4317 8.39331C76.4392 7.7602 76.3173 7.13222 76.0735 6.54788C75.8297 5.96355 75.4691 5.43518 75.0138 4.99518C74.1072 4.08996 72.8784 3.58154 71.5972 3.58154C70.316 3.58154 69.0872 4.08996 68.1806 4.99518Z" fill="#0E1A2F"/>
</svg>
