<svg width="120" height="41" viewBox="0 0 120 41" fill="none" xmlns="http://www.w3.org/2000/svg">
<path d="M119.931 40.2881H0V0.328159H119.921V0.790818C119.921 13.8101 119.921 26.8324 119.921 39.8578C119.926 40.0105 119.931 40.1446 119.931 40.2881ZM79.9244 1.16095H0.809654V39.3998H79.9244V1.16095ZM119.079 39.4044V1.15632H80.7572V39.4044H119.079Z" fill="#0E1A2F"/>
<path d="M119.931 40.2881C119.931 40.1493 119.931 40.0152 119.931 39.8811C119.931 26.8557 119.931 13.8333 119.931 0.814104V0.351444H0C0 0.351444 -1.41561e-07 0.286672 0.032386 0.286672C0.11097 0.282047 0.189758 0.282047 0.268342 0.286672H120C120 13.5342 120 26.7739 120 40.006C119.986 40.1022 119.963 40.1966 119.931 40.2881Z" fill="#0E1A2F"/>
<path d="M62.9731 17.8491C62.9731 17.9879 62.9731 18.1267 62.9731 18.2655V26.4083C62.9731 26.8987 62.9731 26.9033 62.4873 26.9033H61.0993C60.6829 26.9033 60.6644 26.8802 60.6644 26.4407V18.5431C60.6644 17.0579 60.6644 15.5728 60.6644 14.083C60.6644 13.7638 60.757 13.6204 61.0854 13.6481C61.673 13.6481 62.2606 13.6481 62.8435 13.6481C62.971 13.6361 63.0989 13.6651 63.2088 13.7308C63.3186 13.7966 63.4046 13.8957 63.4543 14.0136C65.0273 16.8204 66.608 19.6257 68.1965 22.4294C68.2595 22.5558 68.3554 22.6629 68.4741 22.7394C68.4741 22.6006 68.5019 22.4572 68.5019 22.3184C68.5019 19.5933 68.5019 16.8636 68.5019 14.1385C68.5019 13.6759 68.5019 13.6759 68.9923 13.6759C69.4827 13.6759 69.9176 13.6759 70.3803 13.6759C70.6995 13.6759 70.8198 13.7684 70.8152 14.0969C70.8152 15.2489 70.8152 16.4102 70.8152 17.5437V26.4083C70.8152 26.8709 70.8152 26.8941 70.3201 26.8941C69.7557 26.8941 69.1912 26.8941 68.6268 26.8941C68.5047 26.906 68.382 26.8788 68.2764 26.8165C68.1707 26.7541 68.0877 26.6598 68.0392 26.5471C66.497 23.7896 64.9425 21.0353 63.3756 18.284C63.2831 18.122 63.1859 17.9694 63.0888 17.8213L62.9731 17.8491Z" fill="#0E1A2F"/>
<path d="M16.9934 20.1023C17.048 20.1472 17.1052 20.1889 17.1646 20.2272C18.5526 21.0924 18.9828 22.3786 18.7284 23.9285C18.6397 24.5969 18.3475 25.2218 17.8915 25.7184C17.4354 26.2151 16.8376 26.5593 16.1791 26.7045C15.6995 26.8247 15.2069 26.8853 14.7125 26.8849C13.2921 26.908 11.8718 26.8849 10.4514 26.8849C10.0165 26.8849 9.98875 26.8849 9.98875 26.4222V14.0785C9.98875 13.6482 9.98875 13.6158 10.419 13.6158C11.9643 13.6158 13.5096 13.6158 15.0456 13.6158C15.8812 13.5994 16.6936 13.8913 17.3276 14.4358C17.9617 14.9802 18.373 15.7391 18.4832 16.5676C18.6213 17.1896 18.571 17.8387 18.3386 18.432C18.1062 19.0254 17.7023 19.536 17.1785 19.8987L16.9934 20.0422C16.9911 20.0621 16.9911 20.0823 16.9934 20.1023ZM12.3067 22.9893C12.3067 23.452 12.3067 23.9146 12.3067 24.4097C12.3067 24.6132 12.3529 24.7243 12.5843 24.7196C13.2644 24.7196 13.9399 24.7428 14.6153 24.7196C15.6933 24.6734 16.3596 24.0303 16.3827 23.0587C16.3948 22.8318 16.36 22.6048 16.2804 22.3919C16.2008 22.179 16.0781 21.9849 15.9201 21.8216C15.762 21.6583 15.5719 21.5294 15.3618 21.4429C15.1516 21.3565 14.9258 21.3143 14.6986 21.3191C13.9815 21.2636 13.2551 21.3191 12.5334 21.296C12.3252 21.296 12.302 21.4209 12.3067 21.5828V22.9893ZM12.3067 17.4374C12.3067 17.9 12.3067 18.3627 12.3067 18.8254C12.3067 18.9179 12.4316 19.0891 12.4964 19.0891C13.2582 19.1242 14.0216 19.1119 14.7819 19.0521C15.1638 18.9915 15.5109 18.7952 15.7596 18.4992C16.0084 18.2032 16.1419 17.8273 16.1357 17.4407C16.1295 17.0542 15.984 16.6828 15.726 16.3949C15.4679 16.107 15.1146 15.9219 14.731 15.8736C14.0185 15.7996 13.2968 15.8273 12.575 15.8042C12.3899 15.8042 12.3206 15.8921 12.3206 16.0772C12.3113 16.5352 12.3067 16.9979 12.3067 17.4605V17.4374Z" fill="#0E1A2F"/>
<path d="M39.2194 22.7072L42.3007 26.8711C42.0555 26.8943 41.9398 26.9174 41.838 26.922C41.1625 26.922 40.487 26.922 39.8116 26.922C39.6999 26.9296 39.5884 26.9059 39.4895 26.8536C39.3906 26.8013 39.3083 26.7225 39.2517 26.6259C38.4976 25.534 37.7296 24.4514 36.9755 23.3549C36.9154 23.2473 36.8251 23.1597 36.7157 23.1029C36.6063 23.0462 36.4827 23.0228 36.3601 23.0357C36.0519 23.0533 35.743 23.0533 35.4348 23.0357C35.1803 23.0357 35.1017 23.1282 35.1017 23.3734C35.1017 24.4098 35.1017 25.4461 35.1017 26.4825C35.1017 26.8989 35.1017 26.9174 34.6622 26.9174C34.2226 26.9174 33.6906 26.9174 33.2048 26.9174C32.8809 26.9174 32.7838 26.8156 32.7838 26.4917C32.7838 22.7905 32.7838 19.0892 32.7838 15.3879C32.7838 14.9253 32.7838 14.421 32.7838 13.9352C32.7838 13.6992 32.8763 13.6159 33.103 13.6159C34.6344 13.6159 36.1704 13.5835 37.7018 13.6529C38.7563 13.6675 39.7723 14.0514 40.5729 14.7379C41.3734 15.4243 41.9079 16.3698 42.0832 17.4097C42.4533 19.5426 41.6206 21.5737 39.4923 22.5314C39.3972 22.5832 39.3059 22.642 39.2194 22.7072ZM35.0554 18.3351V20.5281C35.0554 20.7085 35.0554 20.8658 35.3145 20.8612C35.9992 20.8612 36.7025 20.8612 37.3733 20.8334C37.9934 20.792 38.5753 20.5192 39.0038 20.0691C39.4323 19.6191 39.6763 19.0245 39.6873 18.4032C39.6984 17.7819 39.4757 17.179 39.0635 16.714C38.6512 16.249 38.0794 15.9557 37.4612 15.8922C36.7811 15.8228 36.0733 15.8552 35.4024 15.8274C35.1387 15.8274 35.0462 15.9153 35.0508 16.1791C35.0785 16.8731 35.0693 17.6179 35.0693 18.3119L35.0554 18.3351Z" fill="#0E1A2F"/>
<path d="M21.9167 20.2318V14.083C21.9167 13.6204 21.9167 13.6204 22.3793 13.6204H28.8566C29.2915 13.6204 29.3192 13.6204 29.3192 14.083C29.3192 14.5457 29.3192 14.9389 29.3192 15.3646C29.3192 15.6792 29.2406 15.8272 28.9028 15.7995C27.5149 15.7995 26.0806 15.7995 24.6741 15.7995C24.3549 15.7995 24.2392 15.8781 24.2485 16.2159C24.2716 17.0672 24.2485 17.9277 24.2485 18.779C24.2485 19.052 24.3271 19.1306 24.5955 19.1306C26.0297 19.1306 27.4593 19.1306 28.8936 19.1306C29.2221 19.1306 29.3563 19.2324 29.3239 19.5563C29.3239 20.0189 29.3239 20.4816 29.3239 20.9072C29.3239 21.2033 29.2267 21.3005 28.9306 21.3005C27.5102 21.3005 26.0899 21.3005 24.6695 21.3005C24.341 21.3005 24.2439 21.393 24.2531 21.7215C24.2531 22.6098 24.2531 23.4981 24.2531 24.3911C24.2531 24.6733 24.341 24.7566 24.6186 24.7519C26.0066 24.7519 27.4362 24.7519 28.8473 24.7519C29.31 24.7519 29.31 24.7519 29.31 25.2146C29.31 25.6773 29.31 26.1399 29.31 26.6026C29.31 26.8293 29.2175 26.9264 28.9861 26.9264C26.7422 26.9264 24.4983 26.9264 22.2544 26.9264C21.9583 26.9264 21.9398 26.7553 21.9398 26.5332C21.9275 24.4296 21.9198 22.3291 21.9167 20.2318Z" fill="#0E1A2F"/>
<path d="M45.1694 20.2643V14.0785C45.1694 13.6529 45.1694 13.6158 45.5996 13.6158C46.0947 13.6158 46.5897 13.6158 47.0848 13.6158C47.4179 13.6158 47.5058 13.7315 47.5058 14.0507C47.5058 17.4513 47.5058 20.8518 47.5058 24.2524C47.5058 24.715 47.5058 24.715 47.9685 24.715C49.2084 24.715 50.4483 24.715 51.6697 24.715C51.9936 24.715 52.1324 24.8215 52.0954 25.1453C52.0723 25.5848 52.0954 26.0244 52.0954 26.4639C52.0954 26.9034 52.0954 26.9265 51.6605 26.9265C49.634 26.9265 47.603 26.9265 45.5719 26.9265C45.2388 26.9265 45.1509 26.8063 45.1509 26.4916C45.174 24.4051 45.1694 22.3323 45.1694 20.2643Z" fill="#0E1A2F"/>
<path d="M57.1206 20.3058V26.4546C57.1206 26.9172 57.1206 26.9172 56.6579 26.9172C56.1953 26.9172 55.7095 26.9172 55.2376 26.9172C54.8906 26.9172 54.798 26.8108 54.798 26.4546C54.798 23.1651 54.798 19.8755 54.798 16.586C54.798 15.7209 54.798 14.8511 54.798 13.9859C54.798 13.7037 54.8998 13.6065 55.1728 13.6158C55.691 13.6158 56.2138 13.6158 56.732 13.6158C57.0234 13.6158 57.1206 13.7083 57.1206 14.0044C57.116 16.1141 57.1206 18.21 57.1206 20.3058Z" fill="#0E1A2F"/>
<path d="M104.802 25.0852C105.028 26.538 105.264 27.9676 105.473 29.4018C105.584 30.1097 105.695 30.8222 105.787 31.5347C105.843 31.9603 105.662 32.2009 105.237 32.2102C104.145 32.2102 103.053 32.2102 101.924 32.2102C101.899 31.9769 101.942 31.7415 102.048 31.5322C102.154 31.3228 102.318 31.1486 102.521 31.0304C102.928 30.8446 103.349 30.6899 103.779 30.5677C102.425 29.6926 101.239 28.5816 100.277 27.2875C99.1905 28.3938 98.4868 29.819 98.269 31.3543C98.269 31.5122 98.2408 31.6689 98.1858 31.8169C98.0979 31.965 97.9359 32.1685 97.8018 32.1732C96.622 32.2009 95.4422 32.1732 94.2624 32.1732C94.2194 31.9259 94.2597 31.6714 94.3769 31.4496C94.4941 31.2277 94.6817 31.051 94.9101 30.9471C95.363 30.7714 95.8266 30.6246 96.2981 30.5076C96.238 30.0819 96.1547 29.61 96.1084 29.1196C95.9471 27.3292 96.4694 25.544 97.5704 24.1229C97.7028 23.9248 97.8581 23.7431 98.0331 23.5816C98.1318 23.5033 98.2029 23.3956 98.2362 23.2741C98.2694 23.1527 98.2631 23.0237 98.2181 22.9061C98.0423 22.0964 97.9035 21.2775 97.7555 20.4262L95.7475 20.8565C95.0536 20.9953 94.3596 21.1572 93.6656 21.2729C93.4561 21.2936 93.2452 21.2518 93.0595 21.1526C92.4673 20.8288 91.8936 20.4725 91.3153 20.1209C91.033 19.9497 91.0238 19.8248 91.2783 19.6073C91.4435 19.441 91.6541 19.3273 91.8838 19.2804C92.1135 19.2334 92.3519 19.2554 92.5691 19.3436C92.8446 19.4646 93.1464 19.5132 93.446 19.4849C93.7456 19.4565 94.033 19.3522 94.2809 19.1817C95.3265 18.6126 96.4091 18.1083 97.4733 17.5763C97.5843 17.5207 97.6861 17.4606 97.8388 17.3773C97.464 17.0858 97.117 16.8268 96.77 16.563L93.9663 14.4441C93.8876 14.3839 93.7812 14.3284 93.7396 14.2451C93.3972 13.565 93.0549 12.8803 92.7403 12.1863C92.6385 11.9642 92.7403 11.8023 93.0179 11.7838C93.6748 11.7375 94.2393 11.867 94.5307 12.5333C94.6273 12.7476 94.7705 12.9377 94.9498 13.0897C95.129 13.2418 95.3399 13.352 95.5671 13.4123C96.7237 13.8148 97.8804 14.2636 99.0602 14.7124C99.3719 14.2883 99.6562 13.8448 99.9115 13.3846C99.9763 13.2873 100.016 13.1755 100.027 13.0591C100.037 12.9428 100.019 12.8255 99.973 12.7181C99.9271 12.6106 99.8551 12.5163 99.7636 12.4437C99.6721 12.371 99.5639 12.3223 99.4488 12.3019C99.3739 12.2892 99.3024 12.2615 99.2384 12.2207C99.1744 12.1798 99.1192 12.1266 99.076 12.0641C99.0329 12.0015 99.0028 11.931 98.9873 11.8567C98.9719 11.7823 98.9715 11.7056 98.9862 11.6311C99.8421 11.3257 99.9762 11.1684 99.8513 10.7058H99.2175C99.1944 10.7036 99.1712 10.7036 99.1481 10.7058C99.0324 10.752 98.8335 10.8631 98.8103 10.8307C98.597 10.5913 98.418 10.3235 98.2783 10.0349C98.2071 9.78673 98.1712 9.52973 98.1719 9.27152C98.1487 9.07258 98.2552 8.98005 98.4495 8.97542H98.9121C99.4158 8.96624 99.9097 8.83444 100.351 8.59141C100.839 8.32553 101.389 8.1936 101.945 8.20904C102.501 8.22448 103.043 8.38673 103.516 8.67932C103.67 8.57117 103.852 8.51041 104.041 8.50451C104.229 8.4986 104.415 8.54781 104.575 8.64609C104.736 8.74436 104.865 8.88743 104.945 9.05772C105.026 9.228 105.055 9.41809 105.028 9.60464C105.028 9.66016 105.028 9.72956 104.996 9.76657C104.732 10.0766 104.913 10.3634 104.996 10.6641C105.622 12.422 105.564 14.3507 104.834 16.068C104.289 17.3809 104.034 18.7961 104.087 20.2167C104.139 21.6374 104.499 23.0298 105.14 24.2987C105.357 24.6735 105.274 24.8631 104.802 25.0852Z" fill="#0E1A2F"/>
</svg>
