<svg width="159" height="80" viewBox="0 0 159 80" fill="none" xmlns="http://www.w3.org/2000/svg">
<path d="M73.309 74.7248C82.6031 73.944 91.9355 73.4665 101.182 72.3048C112.766 70.8498 124.021 67.9407 134.507 62.5765C139.316 60.1168 143.986 57.3586 147.43 53.1373C149.328 50.8095 151.104 48.11 151.984 45.2834C153.897 39.1289 151.154 34.0466 147.055 29.6321C143.788 26.1112 139.753 23.5892 135.359 21.7543C112.174 12.0729 88.1412 7.87554 63.0231 10.677C60.1593 10.9972 57.2955 12.1125 54.3201 10.9924C53.7205 10.7669 52.8403 11.1998 52.1112 11.4109C40.8647 14.6848 30.2838 19.4038 20.6191 26.0716C16.4973 28.9162 12.673 32.1194 9.66646 36.1716C3.43281 44.5723 4.403 52.8338 12.4883 59.4309C14.557 61.1182 16.8031 62.6868 19.1896 63.8561C22.8497 65.65 26.6153 67.3148 30.4877 68.574C44.3833 73.089 58.7622 74.2091 73.309 74.7248ZM106.359 6.85139C109.91 7.72324 113.534 8.37082 116.997 9.5125C124.385 11.9494 131.785 14.4018 138.994 17.3064C144.624 19.5729 149.414 23.2618 153.175 28.1331C159.91 36.8576 159.899 46.6086 153.112 55.2791C149.751 59.5736 145.472 62.7935 140.813 65.5399C130.768 71.4592 119.806 74.8208 108.423 76.8703C88.5261 80.4535 68.5192 80.9787 48.4691 78.3488C38.2959 77.0151 28.3758 74.618 19.0505 70.163C14.6409 68.0569 10.5095 65.5338 6.97777 62.1136C-0.900038 54.484 -2.18085 44.625 3.50955 35.2542C6.54722 30.2498 10.7338 26.3079 15.4012 22.8852C27.5303 13.9965 41.0794 8.1022 55.6333 4.61841C78.8326 -0.935272 102.173 -1.63563 125.586 3.35921C127.455 3.75735 129.303 4.30301 131.112 4.91942C133.782 5.82844 134.664 6.92213 134.258 8.52193C133.848 10.1277 132.479 10.3783 129.724 9.8291C123.595 8.60707 117.445 7.48698 111.28 6.45564C109.703 6.1918 108.044 6.41727 106.42 6.41727C106.401 6.56238 106.379 6.70628 106.359 6.85139Z" fill="#434B69"/>
</svg>
