<svg width="70" height="48" viewBox="0 0 70 48" fill="none" xmlns="http://www.w3.org/2000/svg">
<path d="M59.5421 11.3796C59.6563 11.2202 59.7696 11.0604 59.8838 10.9016C59.2014 10.2721 58.563 9.58639 57.829 9.02491C54.9879 6.85662 51.7079 5.61982 48.2195 5.17425C32.1172 3.11486 18.8493 8.51515 8.35298 20.7649C7.02861 22.3125 6.07243 24.3005 5.37847 26.2379C3.65328 31.0573 4.88544 35.2495 8.65546 38.6907C10.6979 40.5542 13.1458 41.7824 15.8195 42.1905C19.6431 42.7729 23.5274 43.3183 27.379 43.284C37.6025 43.193 47.3546 40.898 56.2634 35.7437C58.6444 34.3661 60.9096 32.6017 62.8055 30.6088C66.1708 27.074 66.0855 22.5389 62.5692 19.1581C60.7412 17.4012 58.4641 15.9732 56.1622 14.8742C49.1881 11.5473 41.8434 10.8673 34.2829 12.4566C33.5113 12.62 32.6637 12.8965 31.9498 12.7192C31.2983 12.558 30.4469 11.9391 30.299 11.3621C30.1498 10.7817 30.5695 9.75747 31.0777 9.37326C31.8356 8.80012 32.8695 8.54253 33.8214 8.27972C41.7704 6.08748 49.4134 7.38048 56.9021 10.3552C57.7796 10.7041 58.6625 11.0389 59.5421 11.3796ZM62.4485 13.441C63.2262 13.9874 64.1035 14.4796 64.8342 15.1352C70.9243 20.5951 71.2855 28.2154 65.6255 34.1009C64.0534 35.7367 62.2523 37.2507 60.3166 38.4237C46.7363 46.6526 32.0203 49.2229 16.398 46.8671C13.1175 46.3721 10.0671 45.1428 7.31796 43.2328C1.08906 38.9021 -1.24776 31.7009 1.26365 24.5456C2.61196 20.702 4.91491 17.4665 7.79281 14.653C17.7521 4.91429 29.7038 0.0173985 43.6554 0.289141C48.4861 0.38339 53.1528 1.52944 57.3727 3.9599C59.1632 4.99084 60.8627 6.28924 62.3327 7.7392C64.3106 9.69381 64.2526 10.8133 62.4485 13.441Z" fill="#BADDE9"/>
</svg>
