<svg width="194" height="18" viewBox="0 0 194 18" fill="none" xmlns="http://www.w3.org/2000/svg">
<path d="M11.4155 11.9869C12.5085 11.5353 13.6148 11.1288 14.7212 10.7096C17.475 9.66546 20.3212 8.80224 23.2375 8.36076C25.1042 8.13778 26.9721 8.10467 28.8439 8.3047C30.5366 8.57036 32.1783 9.02713 33.7697 9.66228C35.1564 10.2815 36.4865 10.9982 37.8287 11.7079C38.4583 12.0398 39.0893 12.3685 39.7189 12.6966C41.186 13.4623 42.6837 14.1351 44.21 14.7709C46.8969 15.8895 49.7176 16.647 52.5874 17.1121C54.073 17.3522 55.5719 17.5395 57.0741 17.6243C58.6788 17.7141 60.2861 17.6427 61.8826 17.4733C63.4478 17.307 65.0016 17.0541 66.5426 16.733C67.1206 16.6133 67.6929 16.4508 68.2671 16.3113C69.3212 16.0526 70.3543 15.7411 71.395 15.4296C73.4063 14.8282 75.3603 14.0497 77.315 13.2865C78.7795 12.7157 80.2268 12.0831 81.6652 11.4505C83.0851 10.8268 84.5031 10.2006 85.9218 9.5731C88.8725 8.33657 91.8558 7.12361 95.0264 6.59995C96.9243 6.39354 98.8438 6.43623 100.739 6.6541C101.809 6.82929 102.845 7.08348 103.858 7.4638C105.62 8.30154 107.15 9.52912 108.702 10.7007C109.466 11.2791 110.227 11.8678 111.006 12.4258C111.915 13.075 112.824 13.7165 113.751 14.3383C114.544 14.8702 115.36 15.3531 116.223 15.766C117.662 16.4527 119.15 16.9127 120.702 17.2554C122.148 17.5739 123.638 17.7708 125.107 17.9179C126.687 18.074 128.277 17.9925 129.848 17.7994C131.397 17.6096 132.917 17.3236 134.425 16.9222C135.163 16.7266 135.876 16.482 136.596 16.2335C137.132 16.0475 137.667 15.8628 138.203 15.6774C138.69 15.5092 139.163 15.2741 139.639 15.0747C140.111 14.876 140.585 14.6766 141.058 14.4778C141.758 14.1828 142.435 13.856 143.118 13.5273C145.135 12.5583 147.115 11.518 149.117 10.5198C150.148 10.005 151.179 9.49155 152.218 8.99464C153.097 8.57418 153.983 8.17731 154.873 7.78361C156.464 7.18031 158.069 6.58019 159.747 6.27759C160.617 6.21197 161.478 6.25465 162.346 6.34702C163.379 6.50565 164.409 6.70695 165.432 6.914C166.491 7.12868 167.552 7.3281 168.615 7.51731C169.956 7.7562 171.296 7.94923 172.646 8.12124C173.726 8.2582 174.805 8.30916 175.893 8.36203C176.902 8.40981 177.922 8.34868 178.931 8.32383C179.967 8.29835 181.009 8.1843 182.042 8.10276C184.107 7.94158 186.168 7.64217 188.217 7.35804C190.144 7.09111 192.072 6.81655 193.998 6.54262C194.001 6.54134 194.001 6.53622 193.998 6.53559C191.954 6.19794 189.914 5.83801 187.873 5.48954C185.983 5.16591 184.089 4.86267 182.202 4.52757C180.123 4.15999 178.033 3.83573 175.976 3.35794C175.415 3.22734 174.853 3.10055 174.292 2.97633C173.738 2.85401 173.193 2.66865 172.647 2.52021C171.619 2.238 170.601 1.92329 169.577 1.62705C168.68 1.36713 167.779 1.08619 166.869 0.875957C166.252 0.732618 165.635 0.594378 165.016 0.463144C163.775 0.198128 162.497 0.0598774 161.23 0.00827408C161.091 0.00254059 160.953 0 160.813 0C159.347 0 157.887 0.308979 156.493 0.73772C155.945 0.905268 155.404 1.10211 154.861 1.28494C154.384 1.44421 153.92 1.66654 153.453 1.85702C152.827 2.11185 152.208 2.3807 151.596 2.6712C147.794 4.47854 144.175 6.64327 140.389 8.4831C139.771 8.78315 139.161 9.09911 138.528 9.36668C137.91 9.62787 137.293 9.88971 136.675 10.1509C135.886 10.4242 135.096 10.6988 134.308 10.9727C132.787 11.4995 131.199 11.8601 129.606 12.1022C127.997 12.2806 126.4 12.3048 124.791 12.1264C122.953 11.8531 121.111 11.4932 119.372 10.8326C118.027 10.2133 116.762 9.42212 115.559 8.56018C114.657 7.91356 113.76 7.26567 112.872 6.59995C112.012 5.95524 111.153 5.30734 110.294 4.66009C109.277 3.89307 108.221 3.1904 107.08 2.6196C105.685 1.92202 104.191 1.46907 102.659 1.20214C101.15 0.939034 99.6182 0.810972 98.0893 0.774021C96.3934 0.733887 94.7013 0.920538 93.0367 1.22824C91.5543 1.50154 90.1325 1.99591 88.7017 2.45651C88.1874 2.62278 87.6852 2.83936 87.1798 3.02921C86.7917 3.17509 86.4042 3.32035 86.0206 3.47898C84.8702 3.95613 83.7154 4.42821 82.5721 4.92511C81.1579 5.53988 79.7425 6.15017 78.3257 6.75856C73.0284 8.91946 67.6381 11.0008 61.952 11.8449C60.7004 11.9939 59.4487 12.0748 58.1875 12.0799C56.9632 12.0863 55.7421 11.9824 54.528 11.8327C51.3632 11.36 48.3003 10.5191 45.3374 9.30935C43.56 8.53341 41.8399 7.63898 40.1115 6.75983C39.5112 6.45468 38.9121 6.14952 38.3118 5.84437C37.2194 5.28885 36.0697 4.81745 34.9251 4.38489C33.6269 3.89308 32.2714 3.55542 30.9043 3.32798C29.2072 3.04577 27.5107 2.92856 25.7931 3.06616C23.3159 3.26492 20.919 3.91537 18.6247 4.85631C18.1219 5.06335 17.619 5.2723 17.1156 5.48316C16.447 5.76219 15.8046 6.08966 15.1552 6.4101C14.2018 6.88089 13.2822 7.39817 12.3568 7.92502C10.4493 9.01375 8.62789 10.242 6.8052 11.4658C6.51841 11.6576 6.25074 11.8882 5.97925 12.1003C5.3139 12.6195 4.6511 13.1425 3.99149 13.67C3.37139 14.1638 2.75384 14.6632 2.1382 15.1652C1.40211 15.7659 0.704891 16.4107 0.00130362 17.0477C-0.00188291 17.0503 0.00130736 17.0541 0.0051312 17.0528C0.820884 16.6623 1.62899 16.2514 2.45685 15.8851C3.08715 15.6067 3.71618 15.3245 4.34392 15.0403C5.48789 14.5218 6.62803 13.9943 7.76435 13.4585C8.98606 12.9794 10.2027 12.4883 11.4155 11.9869Z" fill="#A1E795"/>
</svg>
