<svg width="18" height="15" viewBox="0 0 18 15" fill="none" xmlns="http://www.w3.org/2000/svg">
<path d="M15.2352 1.51243C14.0705 0.972659 12.8299 0.57493 11.5231 0.347656C11.3621 0.631748 11.1727 1.02001 11.0496 1.33251C9.66704 1.12417 8.29393 1.12417 6.93976 1.33251C6.80719 1.02001 6.61779 0.631748 6.45681 0.347656C5.14998 0.57493 3.90945 0.972659 2.74467 1.51243C0.396175 5.05412 -0.238298 8.5106 0.0742038 11.9102C1.63671 13.075 3.1424 13.7758 4.62915 14.2398C4.99847 13.7379 5.32044 13.1981 5.60453 12.6394C5.06475 12.4405 4.55339 12.1849 4.07043 11.8913C4.20301 11.7966 4.32612 11.6924 4.44922 11.5977C7.41324 12.9803 10.6235 12.9803 13.5496 11.5977C13.6727 11.7019 13.7958 11.7966 13.9284 11.8913C13.4455 12.1849 12.9246 12.4311 12.3943 12.6394C12.6784 13.1981 13.0004 13.7379 13.3697 14.2398C14.8565 13.7758 16.3716 13.075 17.9246 11.9102C18.294 7.96136 17.2902 4.54275 15.2542 1.51243H15.2352ZM6.00226 9.82689C5.1121 9.82689 4.38293 9.00303 4.38293 7.98976C4.38293 6.9765 5.09316 6.15263 6.00226 6.15263C6.91135 6.15263 7.63105 6.9765 7.62158 7.98976C7.62158 8.99356 6.91135 9.82689 6.00226 9.82689ZM11.9777 9.82689C11.0875 9.82689 10.3583 9.00303 10.3583 7.98976C10.3583 6.9765 11.0686 6.15263 11.9777 6.15263C12.8867 6.15263 13.6065 6.9765 13.597 7.98976C13.597 8.99356 12.8867 9.82689 11.9777 9.82689Z" fill="#535CBE"/>
</svg>
