<svg width="120" height="35" viewBox="0 0 120 35" fill="none" xmlns="http://www.w3.org/2000/svg">
<path d="M82.3612 9.46112C83.5384 10.6334 84.6813 11.7615 85.7947 12.8946C86.0939 13.1987 86.1772 12.9485 86.2851 12.7425C86.8441 11.7088 87.139 10.5529 87.1435 9.37773C87.1435 9.09325 87.0896 8.82838 87.531 8.8431C87.9724 8.85781 87.9479 9.09324 87.9528 9.38754C87.959 10.7822 87.5768 12.1511 86.8492 13.3409C86.8045 13.3898 86.7713 13.4482 86.7522 13.5118C86.7332 13.5753 86.7286 13.6423 86.739 13.7078C86.7494 13.7733 86.7744 13.8356 86.8121 13.8901C86.8499 13.9446 86.8994 13.9899 86.9571 14.0227C87.477 14.5132 87.9773 15.0478 88.4973 15.5383C88.7376 15.7639 88.7572 15.9307 88.4973 16.1661C88.2373 16.4015 88.0754 16.48 87.8155 16.1955C87.4084 15.7541 86.9473 15.3519 86.5549 14.8908C86.2459 14.5279 86.0644 14.4543 85.6818 14.8614C85.1745 15.3957 84.5589 15.8155 83.8763 16.093C83.1938 16.3704 82.4598 16.499 81.7236 16.4702C81.0038 16.4857 80.2983 16.2676 79.713 15.8484C79.1276 15.4293 78.6937 14.8317 78.4765 14.1453C78.2638 13.4285 78.2726 12.6642 78.5019 11.9526C78.7313 11.2409 79.1704 10.6152 79.7616 10.1576C79.8121 10.1277 79.8597 10.0933 79.9039 10.0546C80.2129 9.73579 80.8848 9.63278 80.8848 9.26491C80.8848 8.89705 80.3551 8.58804 80.0706 8.23979C78.7806 6.65551 78.9131 4.80637 80.4042 3.72238C81.7972 2.7414 84.6763 2.92779 85.26 5.19385C85.376 5.64019 85.376 6.10876 85.2602 6.55512C85.1443 7.00149 84.9163 7.41085 84.5979 7.74441C83.9596 8.44432 83.2024 9.02555 82.3612 9.46112ZM81.9345 15.6756C83.1963 15.6416 84.3941 15.1131 85.2698 14.2042C85.5494 13.9295 85.4906 13.7971 85.2698 13.5665C84.4115 12.718 83.558 11.8547 82.7193 10.9816C81.4832 9.70636 81.2478 9.70145 80.0265 11.0307C79.946 11.1178 79.8707 11.2095 79.8009 11.3054C79.4736 11.7148 79.2695 12.2089 79.2122 12.7299C79.1549 13.2509 79.2467 13.7775 79.4771 14.2483C79.6974 14.7044 80.0491 15.0841 80.4871 15.3385C80.9251 15.5929 81.4292 15.7103 81.9345 15.6756ZM82.6997 3.90386C80.5759 3.90386 79.5507 5.40968 80.2472 6.97924C80.6024 7.65446 81.0855 8.25416 81.6696 8.745C81.7972 8.87252 81.8953 8.82347 82.0277 8.745C82.7168 8.41725 83.3428 7.97061 83.8768 7.42558C84.1937 7.14276 84.4121 6.76626 84.5004 6.35079C84.5886 5.93532 84.542 5.50254 84.3673 5.11537C84.2323 4.77688 84.0038 4.48374 83.7086 4.27011C83.4133 4.05648 83.0634 3.93117 82.6997 3.90877V3.90386Z" fill="#0E1A2F"/>
<path d="M40.0168 5.0763V5.6845C40.0168 8.99694 40.0168 12.3077 40.0168 15.6169C40.0168 15.8769 40.159 16.2448 39.6734 16.2791C39.3252 16.3036 39.1241 16.23 39.1241 15.7886C39.1241 11.7322 39.1241 7.67589 39.1241 3.61954C39.1241 3.44787 39.0897 3.24677 39.3252 3.19282C39.4459 3.15479 39.5758 3.15773 39.6947 3.2012C39.8135 3.24467 39.9147 3.32622 39.9824 3.43315C41.1841 5.02234 42.4054 6.5968 43.6219 8.17618L48.4581 14.4643C48.669 14.2583 48.5856 14.0326 48.5856 13.8413C48.5856 10.5518 48.5856 7.25897 48.5856 3.96287C48.5856 3.72253 48.5071 3.40862 48.8554 3.33505C49.2036 3.26147 49.4734 3.37429 49.4636 3.85007C49.4391 5.2823 49.4636 6.70963 49.4636 8.14186C49.4636 10.7071 49.4636 13.2773 49.4636 15.8425C49.4636 16.0633 49.5617 16.333 49.2478 16.4459C48.9339 16.5587 48.7965 16.3281 48.6396 16.127C45.7996 12.5219 43.0431 8.85306 40.2767 5.1891C40.2326 5.13024 40.2031 5.05177 40.0168 5.0763Z" fill="#0E1A2F"/>
<path d="M32.5123 26.0838C32.5123 24.1219 32.5123 22.1599 32.5123 20.1979C32.5123 19.7075 32.6742 19.5946 33.1255 19.5995C34.5332 19.6241 35.9458 19.5995 37.3584 19.5995C39.8108 19.6437 41.5815 21.434 41.4589 23.7736C41.4379 24.514 41.1986 25.2317 40.771 25.8365C40.3434 26.4412 39.7465 26.9061 39.0555 27.1727C38.565 27.3836 38.4473 27.5062 38.7612 28.0163C39.5214 29.2622 40.2326 30.5522 40.9095 31.8422C41.0125 32.0286 41.4245 32.2983 41.0027 32.4994C40.922 32.5522 40.8309 32.5871 40.7355 32.6018C40.6402 32.6165 40.5428 32.6106 40.4499 32.5846C40.357 32.5586 40.2708 32.5131 40.1969 32.451C40.1231 32.3889 40.0633 32.3118 40.0217 32.2247C39.6146 31.4645 39.1928 30.719 38.771 29.9685C38.3492 29.2181 37.9813 28.5755 37.6134 27.8643C37.5759 27.7566 37.5019 27.6653 37.4044 27.6063C37.3068 27.5472 37.1917 27.5239 37.0788 27.5406C36.0193 27.5406 34.9599 27.57 33.9004 27.5406C33.5031 27.5406 33.3609 27.6338 33.3707 28.0311C33.3952 29.3456 33.3707 30.6601 33.3707 31.955C33.3707 32.3032 33.3069 32.524 32.8802 32.5142C32.4535 32.5043 32.4682 32.264 32.4682 31.9599C32.4976 30.0208 32.5123 28.0621 32.5123 26.0838ZM33.4296 23.6314C33.4296 24.4701 33.4296 25.3137 33.4296 26.1574C33.4296 26.589 33.4933 26.7705 33.9887 26.7509C35.0825 26.7068 36.1812 26.7509 37.2799 26.7509C38.109 26.7724 38.9137 26.469 39.5222 25.9054C40.1307 25.3418 40.4948 24.5627 40.5367 23.7344C40.548 23.3131 40.4742 22.8939 40.32 22.5017C40.1657 22.1096 39.934 21.7525 39.6388 21.4517C39.3436 21.151 38.9908 20.9128 38.6016 20.7513C38.2123 20.5899 37.7945 20.5084 37.3731 20.5119C36.1959 20.4775 35.0187 20.5119 33.8416 20.5119C33.4835 20.5119 33.4247 20.6492 33.4345 20.9582C33.4345 21.8411 33.4246 22.7436 33.4246 23.6461L33.4296 23.6314Z" fill="#0E1A2F"/>
<path d="M103.142 34.1918C102.873 34.4763 102.77 34.2899 102.652 34.0348L99.032 25.0687C97.1289 20.3649 95.2356 15.6562 93.3129 10.9573C93.102 10.4422 93.0971 10.2215 93.6955 9.97628C98.6445 8.14675 103.574 6.27799 108.513 4.41904L119.265 0.377389C119.412 0.323435 119.574 0.122337 119.755 0.318533C119.937 0.514729 119.696 0.603019 119.672 0.750166C119.544 1.02975 119.427 1.31913 119.279 1.5889C117.734 4.3945 116.444 7.32273 114.958 10.1578C114.223 11.5704 113.56 13.0271 112.854 14.4545C111.628 16.9461 110.395 19.4362 109.156 21.9246L109.043 22.0963V22.2532C108.796 22.5557 108.627 22.9146 108.552 23.298C108.425 23.298 108.449 23.4255 108.425 23.5089C108.042 24.2839 107.679 25.0687 107.272 25.8338C105.806 28.5855 104.467 31.3862 103.142 34.1918ZM109.028 4.61032C108.966 4.60125 108.904 4.60722 108.845 4.62771C108.786 4.64821 108.733 4.68262 108.69 4.72803L106.728 5.45396L102.887 6.8862C102.824 6.8862 102.77 6.88619 102.77 6.96467C102.705 6.9457 102.635 6.94731 102.571 6.96926C102.507 6.99121 102.451 7.03243 102.412 7.08729C102.347 7.07741 102.281 7.08293 102.218 7.10338C102.156 7.12383 102.1 7.15865 102.053 7.20502C101.831 7.20142 101.616 7.28604 101.455 7.44044C101.426 7.43108 101.395 7.43108 101.367 7.44044C100.762 7.71616 100.144 7.95851 99.5127 8.16637C98.5317 8.54896 97.5508 8.89229 96.609 9.27978C95.7261 9.63293 94.8187 9.93704 93.926 10.2608C93.3522 10.3981 93.3424 10.4962 93.8034 11.2417C93.8019 11.3377 93.8134 11.4334 93.8378 11.5262C94.6618 13.5601 95.4793 15.594 96.2902 17.6279C97.0717 19.5539 97.8499 21.4832 98.6249 23.4157C99.5307 25.6556 100.438 27.8988 101.347 30.1452C101.838 31.3518 102.328 32.5535 102.863 33.8435L103.098 33.353C104.746 30.0324 106.404 26.7118 108.042 23.3863C108.709 22.0423 109.45 20.7327 110.004 19.3299C110.117 19.2858 110.127 19.1926 110.127 19.0896L110.284 18.8002C110.353 18.7087 110.416 18.6119 110.47 18.5108C112.586 14.2599 114.697 9.99591 116.802 5.71883C117.543 4.21793 118.348 2.74645 118.995 1.20141C119.088 1.12293 119.211 1.02484 119.137 0.916931C119.064 0.809023 118.912 0.916925 118.784 0.941449C117.671 1.34856 116.552 1.74095 115.439 2.15296C113.624 2.82984 111.819 3.52144 110.004 4.20322C109.919 4.19464 109.833 4.20613 109.753 4.23679C109.673 4.26746 109.601 4.31642 109.543 4.37979C109.477 4.37128 109.41 4.37791 109.348 4.39916C109.285 4.42041 109.227 4.45572 109.18 4.50241C109.161 4.4926 109.028 4.47298 109.028 4.61032Z" fill="#0E1A2F"/>
<path d="M28.3281 9.80945C28.3281 7.84749 28.3281 5.92968 28.3281 3.98734C28.3281 3.49685 28.4507 3.30065 28.9854 3.31046C31.1828 3.31046 33.3752 3.31046 35.5726 3.31046H35.7492C36.0582 3.28593 36.2397 3.41837 36.2397 3.74209C36.2397 4.06582 36.0533 4.14428 35.7492 4.14428C33.7873 4.14428 31.8253 4.14428 29.8633 4.14428C29.3336 4.14428 29.2061 4.27673 29.2257 4.78684C29.2649 6.04249 29.26 7.29814 29.2257 8.54889C29.2257 9.03938 29.3091 9.25029 29.878 9.23557C31.4869 9.19143 33.0908 9.23557 34.6996 9.23557C34.984 9.23557 35.3127 9.1571 35.3274 9.62797C35.3421 10.0988 35.0184 10.0792 34.6947 10.0792C33.0466 10.0792 31.3986 10.0792 29.7554 10.0792C29.3483 10.0792 29.2208 10.1724 29.2257 10.5942C29.2551 12.0657 29.2502 13.5372 29.2257 15.0086C29.2257 15.4059 29.3483 15.4991 29.7162 15.4991C31.6781 15.4991 33.6401 15.4991 35.6021 15.4991C35.9013 15.4991 36.2152 15.455 36.2299 15.8964C36.2446 16.3379 35.9454 16.3232 35.6364 16.3182C33.3998 16.3182 31.168 16.3182 28.9314 16.3182C28.4164 16.3182 28.3134 16.1417 28.3183 15.6757C28.3379 13.6892 28.3281 11.7469 28.3281 9.80945Z" fill="#0E1A2F"/>
<path d="M29.4659 32.5732C29.044 32.6467 28.9361 32.2936 28.7988 31.9944C28.4113 31.1213 28.0189 30.2531 27.656 29.3703C27.6245 29.2413 27.5465 29.1284 27.437 29.0533C27.3275 28.9782 27.1942 28.9461 27.0625 28.9632C25.0024 28.9632 22.9423 28.9632 20.8823 28.9632C20.7598 28.9423 20.634 28.9686 20.5302 29.0369C20.4264 29.1052 20.3524 29.2103 20.3231 29.331C19.9454 30.2728 19.5187 31.19 19.1214 32.1219C19.043 32.3083 18.9841 32.4947 18.7634 32.5388C18.663 32.5801 18.5543 32.5972 18.4461 32.5887C18.3378 32.5801 18.2331 32.5463 18.1405 32.4898C17.9492 32.3181 18.1404 32.1268 18.2189 31.9699C20.0239 27.8824 21.8306 23.795 23.6388 19.7076C23.7222 19.5212 23.786 19.3152 24.0214 19.325C24.3451 19.325 24.3942 19.6586 24.4874 19.8695C25.3016 21.7039 26.0962 23.5482 26.8957 25.3875C27.8767 27.6094 28.8282 29.8264 29.8386 32.0336C29.9956 32.4554 29.9171 32.5928 29.4659 32.5732ZM27.1507 28.247C26.1011 25.7946 25.0858 23.3765 24.0214 20.8897C22.9374 23.4108 21.8976 25.7946 20.843 28.247H27.1507Z" fill="#0E1A2F"/>
<path d="M63.722 24.3231C63.722 25.618 63.7465 26.9129 63.722 28.2029C63.7163 29.2194 63.3724 30.205 62.7445 31.0043C62.1166 31.8036 61.2404 32.3711 60.2543 32.6173C57.8607 33.1569 55.6927 32.2887 54.648 30.3513C54.2587 29.6229 54.0596 28.808 54.0692 27.9822C54.0692 25.3924 54.0692 22.8026 54.0692 20.2177C54.0692 19.8989 54.0692 19.6341 54.5106 19.6292C54.9521 19.6242 55.0011 19.894 55.0011 20.2423C55.0011 22.7732 55.0011 25.3025 55.0011 27.8301C55.0011 29.3948 55.5505 30.6897 56.9925 31.4205C57.6684 31.7905 58.4364 31.9586 59.2051 31.9046C59.9738 31.8507 60.7108 31.5772 61.3284 31.1164C61.7607 30.8211 62.1186 30.4295 62.3739 29.9725C62.6292 29.5155 62.7751 29.0054 62.7999 28.4825C62.9618 26.0742 62.8342 23.661 62.8686 21.2527C62.8686 20.8799 62.8686 20.5071 62.8686 20.1344C62.8686 19.7616 62.9667 19.6439 63.3345 19.6439C63.7024 19.6439 63.7662 19.8499 63.7613 20.1589C63.7613 21.5519 63.7613 22.9449 63.7613 24.3379L63.722 24.3231Z" fill="#0E1A2F"/>
<path d="M66.1955 9.79963C66.1955 7.8622 66.1955 5.91985 66.1955 3.97751C66.1955 3.45759 66.3524 3.30554 66.8674 3.31045C69.0844 3.31045 71.2818 3.31045 73.5185 3.31045C73.7686 3.31045 74.0531 3.25158 74.1022 3.62926C74.1512 4.00694 74.0286 4.14918 73.6117 4.14918C71.6497 4.14918 69.6878 4.14918 67.7258 4.14918C67.2353 4.14918 67.0931 4.24237 67.1078 4.74758C67.147 6.07681 67.1372 7.41094 67.1078 8.74507C67.1078 9.13746 67.2206 9.23556 67.5983 9.23556C69.2659 9.23556 70.9336 9.23556 72.6013 9.23556C72.8857 9.23556 73.2193 9.1669 73.2291 9.62796C73.2389 10.089 72.9005 10.0792 72.5816 10.0743C70.9336 10.0743 69.2855 10.0743 67.6375 10.0743C67.2402 10.0743 67.098 10.1577 67.1078 10.5648C67.1078 12.0363 67.1078 13.5077 67.1078 14.9792C67.1078 15.3716 67.2157 15.4697 67.5983 15.4697C69.5602 15.4697 71.5222 15.4697 73.4841 15.4697C73.7784 15.4697 74.0874 15.4108 74.1022 15.8768C74.1169 16.3428 73.8029 16.2888 73.5087 16.2888C71.272 16.2888 69.0403 16.2888 66.8037 16.2888C66.2887 16.2888 66.1807 16.1073 66.1856 15.6463C66.2102 13.6843 66.1955 11.742 66.1955 9.79963Z" fill="#0E1A2F"/>
<path d="M68.0439 26.1036C68.0439 24.1416 68.0439 22.1797 68.0439 20.2177C68.0439 19.7272 68.1959 19.585 68.6766 19.5997C69.8538 19.6291 71.0309 19.5997 72.2032 19.5997C72.7567 19.5925 73.306 19.6957 73.8191 19.9033C74.3322 20.1109 74.7988 20.4187 75.1915 20.8087C75.5843 21.1987 75.8953 21.6631 76.1065 22.1748C76.3177 22.6864 76.4247 23.235 76.4214 23.7885C76.4189 24.3417 76.3071 24.889 76.0926 25.399C75.878 25.909 75.5649 26.3716 75.1712 26.7603C74.7775 27.149 74.3109 27.4562 73.7982 27.6642C73.2855 27.8721 72.7368 27.9769 72.1836 27.9724C71.2419 27.9724 70.3001 27.9724 69.3633 27.9724C69.0248 27.9724 68.9316 28.0754 68.9366 28.4089C68.9366 29.5615 68.9366 30.7191 68.9366 31.8766C68.9366 32.22 68.9758 32.5633 68.4461 32.5682C67.9163 32.5731 68.0341 32.2102 68.0341 31.911C68.0439 29.9834 68.0439 28.041 68.0439 26.1036ZM68.9316 23.813C68.9316 24.794 68.9316 25.7259 68.9316 26.6873C68.9316 26.9227 68.9316 27.0993 69.2554 27.0944C70.3541 27.0944 71.4528 27.1287 72.5416 27.06C73.2773 26.9834 73.9664 26.6634 74.4995 26.1507C75.0326 25.6381 75.3793 24.962 75.4846 24.2299C75.6068 23.4594 75.4373 22.671 75.0092 22.0188C74.581 21.3666 73.9251 20.8975 73.1695 20.7033C71.8501 20.3207 70.4865 20.5954 69.1426 20.5316C68.8728 20.5316 68.9464 20.7769 68.9464 20.9338C68.9267 21.8952 68.9316 22.8516 68.9316 23.8326V23.813Z" fill="#0E1A2F"/>
<path d="M58.97 3.15345C60.4326 3.10958 61.8616 3.59753 62.992 4.52683C63.2225 4.70831 63.713 4.83092 63.3549 5.32632C62.9969 5.82171 62.7271 5.46856 62.4475 5.25275C61.8624 4.78518 61.1902 4.4385 60.47 4.23284C59.7498 4.02717 58.9959 3.96661 58.2521 4.05468C57.5083 4.14275 56.7894 4.37769 56.1372 4.74587C55.4849 5.11404 54.9123 5.6081 54.4525 6.19939C53.7476 7.09249 53.321 8.17331 53.2259 9.30715C53.1308 10.441 53.3715 11.5777 53.9179 12.5758C54.3139 13.3211 54.8723 13.968 55.552 14.4684C56.2316 14.9688 57.0151 15.3101 57.8444 15.4669C58.6737 15.6237 59.5277 15.5921 60.3431 15.3744C61.1586 15.1567 61.9147 14.7584 62.5554 14.2091C62.7222 14.0718 62.8743 13.905 63.1244 14.008C63.5021 14.1699 63.5511 14.4985 63.2274 14.8124C60.4218 17.4071 55.6641 16.8234 53.4176 13.6107C52.7833 12.6898 52.39 11.6245 52.2735 10.5124C52.1571 9.4002 52.3213 8.27659 52.7511 7.24426C53.1809 6.21192 53.8627 5.30378 54.734 4.60286C55.6053 3.90194 56.6384 3.43061 57.7388 3.23193C58.141 3.16817 58.5579 3.18288 58.97 3.15345Z" fill="#0E1A2F"/>
<path d="M16.5365 3.14858C18.0388 3.12982 19.4978 3.65211 20.6468 4.62005C20.8823 4.81625 21.1373 4.97321 20.8676 5.32636C20.5978 5.67951 20.3771 5.61576 20.0975 5.36561C19.4275 4.8194 18.643 4.43118 17.8023 4.22981C16.9617 4.02844 16.0864 4.01911 15.2417 4.20248C14.3969 4.38585 13.6043 4.75722 12.9228 5.289C12.2412 5.82078 11.6883 6.49929 11.305 7.27413C10.9218 8.04897 10.718 8.90022 10.709 9.76462C10.6999 10.629 10.8857 11.4843 11.2526 12.267C11.6196 13.0498 12.1581 13.7397 12.8283 14.2857C13.4986 14.8317 14.2832 15.2196 15.1239 15.4207C15.9629 15.625 16.8381 15.6303 17.6795 15.4361C18.521 15.242 19.3053 14.8537 19.97 14.3023C20.0484 14.2435 20.122 14.1797 20.1956 14.1159C20.4408 13.9001 20.6567 13.9737 20.8529 14.1944C21.049 14.4151 20.9804 14.6212 20.7547 14.8321C19.7034 15.7359 18.3972 16.2907 17.0168 16.4199C15.6364 16.549 14.2499 16.2461 13.0492 15.5531C11.8778 14.8665 10.9441 13.8386 10.3729 12.6069C9.80167 11.3752 9.6202 9.99842 9.85274 8.66078C10.0853 7.32312 10.7208 6.08838 11.6741 5.12173C12.6275 4.15507 13.8534 3.5026 15.1877 3.2516C15.6348 3.19011 16.0853 3.1557 16.5365 3.14858Z" fill="#0E1A2F"/>
<path d="M109.152 21.9441C110.388 19.4524 111.621 16.9623 112.85 14.4739C113.557 13.0466 114.219 11.5898 114.955 10.1772C116.426 7.34217 117.731 4.41394 119.276 1.60834C119.423 1.33857 119.541 1.04919 119.668 0.769607C120.159 0.671509 119.967 1.02956 119.943 1.20614C119.801 2.3686 119.629 3.53107 119.452 4.69353C119.076 7.45989 118.697 10.2279 118.314 12.9975C117.976 15.4205 117.628 17.8387 117.289 20.2617C117.201 20.9189 117.108 21.5762 117.049 22.2236C117.032 22.3952 116.98 22.5613 116.895 22.7116C116.811 22.8619 116.696 22.993 116.558 23.0967C112.272 26.7525 107.99 30.4116 103.713 34.0739C103.551 34.2112 103.404 34.5006 103.149 34.1769C104.473 31.3713 105.812 28.5706 107.264 25.8385C107.671 25.0734 108.034 24.2886 108.416 23.5136C108.524 23.4842 108.544 23.4008 108.544 23.3027C108.798 23.0044 108.967 22.6437 109.034 22.258V22.101C109.147 22.1059 109.285 22.1059 109.152 21.9441ZM118.207 11.4378C118.408 11.2219 118.305 10.9473 118.319 10.7118C118.452 8.94116 118.726 7.18522 118.986 5.42926C119.219 4.94776 119.312 4.411 119.256 3.87931C119.153 3.3643 119.452 2.86399 119.344 2.29502C119.157 2.4669 119.037 2.69992 119.006 2.95228L118.908 3.20734C118.847 3.27755 118.789 3.35124 118.736 3.42805C117.863 5.19382 116.985 6.95959 116.117 8.72536L110.991 19.163C110.923 19.2464 110.81 19.3101 110.834 19.4426L110.771 19.732C110.371 20.3066 110.041 20.9275 109.79 21.5811C107.959 25.2598 106.134 28.9417 104.316 32.6269L103.987 33.3431C104.246 33.2506 104.484 33.1053 104.684 32.9163C105.934 31.8372 107.195 30.768 108.436 29.6742C109.314 28.9041 110.226 28.1733 111.085 27.3738C112.066 26.4811 113.081 25.662 114.086 24.8134C114.837 24.1758 115.587 23.5333 116.362 22.9201C116.445 22.8559 116.511 22.7742 116.558 22.6809C116.605 22.5875 116.63 22.4849 116.632 22.3806C116.785 21.8222 116.896 21.2533 116.966 20.6786C117.049 19.8448 117.226 19.0256 117.275 18.1918C117.324 17.358 117.544 16.5928 117.638 15.7884C117.731 14.984 117.848 14.0619 117.951 13.1986C118.236 12.9534 118.094 12.6296 118.118 12.3354V12.301C118.242 12.0312 118.281 11.7303 118.231 11.4378H118.207Z" fill="#0E1A2F"/>
<path d="M4.02093 3.17804C5.05447 3.15576 6.07371 3.42245 6.96387 3.9481C7.20421 4.07563 7.45436 4.20806 7.23855 4.57593C7.02273 4.9438 6.88539 4.95361 6.54204 4.75251C6.00079 4.39761 5.39134 4.15974 4.75278 4.05415C4.11421 3.94857 3.46063 3.97761 2.83394 4.1394C2.3797 4.22865 1.96158 4.44902 1.6312 4.77329C1.30083 5.09756 1.0727 5.51153 0.974996 5.96402C0.859249 6.44483 0.907955 6.95056 1.11334 7.40044C1.31871 7.85032 1.66892 8.2184 2.10803 8.4459C2.99172 8.90137 3.91421 9.27727 4.86458 9.56913C5.75873 9.86561 6.57965 10.3488 7.27288 10.9866C8.71493 12.4581 8.1999 14.9106 6.23794 15.8915C5.27033 16.3492 4.18952 16.5123 3.12995 16.3605C2.07037 16.2088 1.07877 15.7489 0.278493 15.0381C0.0381531 14.8223 -0.0697504 14.6653 0.175495 14.3612C0.42074 14.0571 0.582594 14.1258 0.842554 14.3367C1.98049 15.249 3.23615 15.8082 4.74196 15.558C5.44465 15.4457 6.08909 15.1002 6.57147 14.577C7.55245 13.5127 7.24836 11.9235 5.90441 11.07C5.01885 10.5765 4.08328 10.1786 3.11352 9.88303C2.52533 9.67438 1.96129 9.40305 1.43115 9.07373C0.913233 8.76363 0.503203 8.30177 0.256654 7.75076C0.0101047 7.19975 -0.0610358 6.58626 0.0528721 5.99345C0.135253 5.44821 0.360021 4.93435 0.704499 4.50375C1.04898 4.07315 1.50097 3.74106 2.01483 3.541C2.64263 3.25407 3.3324 3.12928 4.02093 3.17804Z" fill="#0E1A2F"/>
<path d="M82.5776 19.4426C83.6313 19.4254 84.6701 19.6932 85.5843 20.2176C85.8443 20.3598 86.1091 20.4775 85.8835 20.8846C85.6579 21.2917 85.393 21.1642 85.1134 21.0024C84.555 20.6371 83.9211 20.4033 83.2593 20.3183C82.5975 20.2334 81.9251 20.2995 81.2925 20.5119C80.8542 20.6293 80.4603 20.8734 80.1602 21.2137C79.8601 21.554 79.667 21.9753 79.6052 22.4248C79.5285 22.8927 79.6038 23.3729 79.82 23.7949C80.0363 24.2169 80.3822 24.5584 80.8069 24.7693C81.192 24.9979 81.5976 25.1901 82.0184 25.3432C83.1091 25.7028 84.1674 26.1541 85.1821 26.692C87.1833 27.8496 87.5021 30.9004 84.824 32.264C83.8403 32.6886 82.7553 32.8219 81.698 32.648C80.6408 32.4741 79.6556 32.0003 78.8597 31.283C78.6095 31.0378 78.6733 30.8661 78.8597 30.6356C79.0461 30.405 79.2619 30.4247 79.4924 30.6356C79.9772 31.0782 80.5451 31.4201 81.1632 31.6416C81.7812 31.863 82.437 31.9596 83.0926 31.9256C84.4022 31.8373 85.6039 30.8857 85.7707 29.7821C85.844 29.3146 85.77 28.8359 85.5591 28.4123C85.3482 27.9887 85.0107 27.6412 84.5935 27.418C83.588 26.7509 82.4059 26.4909 81.317 26.0201C80.9018 25.8492 80.5015 25.6441 80.1202 25.4069C79.6254 25.1195 79.2261 24.6927 78.9723 24.1798C78.7184 23.6669 78.6213 23.0906 78.6929 22.5229C78.7391 21.9435 78.9445 21.3882 79.2864 20.9182C79.6282 20.4482 80.0934 20.0818 80.6303 19.8595C81.2365 19.5662 81.9045 19.4232 82.5776 19.4426Z" fill="#0E1A2F"/>
<path d="M3.94738 19.4425C4.96888 19.4243 5.9766 19.6801 6.86579 20.1832C7.10613 20.3156 7.50342 20.4039 7.24837 20.865C6.99331 21.326 6.75788 21.1593 6.42435 20.9827C5.42151 20.3486 4.21158 20.1287 3.04977 20.3696C1.88241 20.6393 1.08782 21.4094 0.955388 22.3855C0.818051 23.5528 1.33798 24.4357 2.53968 24.9655C3.32446 25.3137 4.13867 25.5884 4.93816 25.8974C5.65883 26.1439 6.33348 26.5086 6.93446 26.9765C7.31144 27.2726 7.61267 27.654 7.81337 28.0893C8.01407 28.5246 8.1085 29.0014 8.08887 29.4804C8.06923 29.9593 7.9361 30.4268 7.70043 30.8442C7.46477 31.2616 7.13331 31.6171 6.73336 31.8814C4.59482 33.397 1.80393 32.6809 0.185315 31.2339C-0.0697397 31.0083 0.043073 30.8562 0.185315 30.6404C0.327557 30.4246 0.572802 30.4001 0.813142 30.6012C1.28823 31.0394 1.84522 31.3794 2.45212 31.6016C3.05903 31.8238 3.70386 31.9239 4.34957 31.8961C4.78171 31.8794 5.20582 31.7741 5.59561 31.5868C5.98541 31.3995 6.33259 31.1342 6.61565 30.8072C7.63096 29.6202 7.14537 27.9967 5.58561 27.1727C4.5654 26.6331 3.43726 26.3585 2.39252 25.8876C1.50473 25.4854 0.675801 25.0096 0.2736 24.0581C0.0846228 23.6042 -0.000129566 23.1138 0.0255705 22.6229C0.0512706 22.132 0.186774 21.6531 0.422103 21.2215C0.657432 20.7899 0.986592 20.4166 1.38533 20.1291C1.78407 19.8416 2.24222 19.6472 2.72605 19.5603C3.12542 19.4627 3.53674 19.4231 3.94738 19.4425Z" fill="#0E1A2F"/>
<path d="M47.8156 26.5154C47.8156 28.3351 47.8156 30.1598 47.8156 31.9795C47.8156 32.3081 47.8156 32.5632 47.379 32.5779C46.9425 32.5926 46.8885 32.313 46.8885 31.9599C46.8885 28.3155 46.8885 24.6712 46.8885 21.0268C46.8885 20.5658 46.7806 20.4284 46.3147 20.453C45.4367 20.4873 44.5489 20.453 43.6709 20.453C43.357 20.453 43.1363 20.4137 43.1363 20.0164C43.1363 19.6191 43.3717 19.5946 43.6807 19.5946H51.0381C51.3373 19.5946 51.5776 19.5946 51.5776 20.0164C51.5776 20.4383 51.3569 20.453 51.0479 20.4481C50.1454 20.4481 49.2429 20.4726 48.3453 20.4481C47.9186 20.4481 47.7812 20.5265 47.791 20.9827C47.8352 22.8515 47.8156 24.6712 47.8156 26.5154Z" fill="#0E1A2F"/>
<path d="M14.2663 26.4664C14.2663 28.2469 14.2663 30.0323 14.2663 31.8128C14.2663 32.1463 14.3889 32.5681 13.8199 32.573C13.251 32.5779 13.3294 32.1855 13.3294 31.8324C13.3294 28.2273 13.3294 24.6222 13.3294 21.0171C13.3294 20.5266 13.1872 20.4334 12.7458 20.453C11.8825 20.4873 11.0192 20.453 10.156 20.453C9.83715 20.453 9.56738 20.453 9.57228 20.0116C9.57719 19.5701 9.82733 19.5996 10.1265 19.5996H17.4839C17.788 19.5996 18.0234 19.6241 18.0283 20.0263C18.0332 20.4285 17.788 20.453 17.4888 20.453C16.547 20.453 15.6053 20.453 14.6636 20.453C14.3251 20.453 14.2368 20.5462 14.2417 20.8797C14.2761 22.7387 14.2663 24.6026 14.2663 26.4664Z" fill="#0E1A2F"/>
<path d="M24.6299 9.78979C24.6299 11.7517 24.6299 13.7137 24.6299 15.6757C24.6299 16.0141 24.6299 16.279 24.1394 16.2741C23.6489 16.2692 23.6489 15.9994 23.6489 15.6659C23.6489 11.7616 23.6489 7.86053 23.6489 3.96277C23.6489 3.58509 23.6489 3.31043 24.1394 3.31533C24.6299 3.32023 24.5661 3.66358 24.5661 3.97258L24.6299 9.78979Z" fill="#0E1A2F"/>
<path d="M110.064 19.3298C109.288 19.0697 108.547 18.7156 107.857 18.2753C105.218 16.9264 102.604 15.5236 99.9749 14.1454C98.3366 13.2821 96.6886 12.4237 95.07 11.5654C94.8586 11.4227 94.6196 11.3258 94.3686 11.2809C94.3686 11.2809 94.3048 11.2269 94.2901 11.2318C94.2754 11.2367 94.2901 11.3103 94.2901 11.3447C94.81 12.6739 95.3201 14.0031 95.8499 15.3274C97.0074 18.2115 98.1699 21.0923 99.3372 23.9699L103.085 33.2892C103.085 33.3186 103.139 33.3431 103.168 33.3726L102.933 33.8631C102.403 32.5731 101.907 31.3714 101.417 30.1648C100.505 27.9216 99.5972 25.6784 98.6947 23.4352C97.9165 21.506 97.1382 19.5767 96.36 17.6475C95.5359 15.6136 94.7184 13.5797 93.9075 11.5458C93.8832 11.4529 93.8716 11.3572 93.8732 11.2613C93.9124 11.0405 93.4906 10.6874 94.0546 10.6187C95.2809 11.2417 96.5071 11.8302 97.7284 12.5071C99.0528 13.2478 100.411 13.9394 101.755 14.6408C102.736 15.1312 103.649 15.7247 104.664 16.1465C105.817 16.637 106.807 17.4414 107.994 17.878C108.789 18.1772 109.402 18.8246 110.221 19.0944C110.187 19.1925 110.177 19.2857 110.064 19.3298Z" fill="#0E1A2F"/>
<path d="M110.187 19.0895C109.368 18.8197 108.755 18.1723 107.96 17.8731C106.773 17.4365 105.782 16.6272 104.63 16.1416C103.614 15.7198 102.668 15.1607 101.721 14.6358C100.377 13.9344 99.0183 13.2428 97.694 12.5022C96.4923 11.8253 95.2416 11.2367 94.0203 10.6138L93.9614 10.2803C94.8541 9.94184 95.7615 9.63774 96.6444 9.2993C97.6253 8.91181 98.6063 8.56848 99.5481 8.18589C100.179 7.97803 100.798 7.73568 101.402 7.45996C101.446 7.52373 101.466 7.45996 101.49 7.45996C101.602 7.47778 101.717 7.46534 101.822 7.42393C101.927 7.38253 102.019 7.31368 102.089 7.22454C102.221 7.22454 102.363 7.25396 102.447 7.10681C102.584 7.10681 102.726 7.14114 102.805 6.98419L102.923 6.90571L106.763 5.47348L108.725 4.74755C108.853 4.74755 108.99 4.77699 109.064 4.62984C109.176 4.62984 109.27 4.62983 109.309 4.51211C109.441 4.51211 109.588 4.53664 109.672 4.38949C109.757 4.40345 109.845 4.39446 109.926 4.36345C110.007 4.33243 110.078 4.28049 110.133 4.21292C111.948 3.53114 113.753 2.83955 115.567 2.16268C116.681 1.75067 117.799 1.35827 118.913 0.951166C119.04 0.902117 119.168 0.789295 119.266 0.926632C119.364 1.06397 119.217 1.13265 119.124 1.21112L94.5205 10.4716L110.412 18.8099L110.187 19.0895Z" fill="#0E1A2F"/>
<path d="M93.9622 10.2803L94.021 10.6138C93.4569 10.6825 93.8788 11.0357 93.8395 11.2564C93.3785 10.5157 93.3883 10.4177 93.9622 10.2803Z" fill="#0E1A2F"/>
<path d="M109.029 22.2727C108.961 22.6584 108.792 23.0191 108.538 23.3174C108.613 22.934 108.782 22.5751 109.029 22.2727Z" fill="#0E1A2F"/>
<path d="M102.078 7.20002C102.009 7.28916 101.916 7.35802 101.811 7.39943C101.706 7.44084 101.591 7.45328 101.48 7.43546C101.64 7.28106 101.855 7.19642 102.078 7.20002Z" fill="#0E1A2F"/>
<path d="M110.064 4.21303C110.01 4.2806 109.939 4.33253 109.858 4.36355C109.777 4.39457 109.689 4.40356 109.603 4.3896C109.661 4.32623 109.733 4.27726 109.813 4.2466C109.893 4.21594 109.979 4.20444 110.064 4.21303Z" fill="#0E1A2F"/>
<path d="M109.612 4.37481C109.529 4.52195 109.381 4.49252 109.249 4.49743C109.296 4.45073 109.353 4.41542 109.416 4.39418C109.479 4.37293 109.546 4.3663 109.612 4.37481Z" fill="#0E1A2F"/>
<path d="M102.432 7.0823C102.348 7.22944 102.206 7.20491 102.074 7.20001C102.12 7.15365 102.176 7.11882 102.239 7.09837C102.301 7.07792 102.367 7.07242 102.432 7.0823Z" fill="#0E1A2F"/>
<path d="M102.78 6.95965C102.702 7.11661 102.56 7.09209 102.422 7.08228C102.462 7.02742 102.518 6.9862 102.582 6.96425C102.646 6.9423 102.715 6.94069 102.78 6.95965Z" fill="#0E1A2F"/>
<path d="M109.03 4.60524C108.956 4.75239 108.819 4.72297 108.691 4.72297C108.734 4.67755 108.787 4.64313 108.846 4.62264C108.905 4.60214 108.968 4.59617 109.03 4.60524Z" fill="#0E1A2F"/>
<path d="M109.151 21.9441C109.283 22.1059 109.151 22.1059 109.038 22.1157L109.151 21.9441Z" fill="#0E1A2F"/>
<path d="M109.26 4.49241C109.221 4.61993 109.128 4.62974 109.015 4.61012C109.03 4.47278 109.162 4.49241 109.26 4.49241Z" fill="#0E1A2F"/>
<path d="M108.539 23.3078C108.539 23.4059 108.539 23.4892 108.412 23.5187C108.436 23.4353 108.412 23.3421 108.539 23.3078Z" fill="#0E1A2F"/>
<path d="M101.489 7.43062C101.489 7.46496 101.445 7.5091 101.401 7.43062C101.43 7.42126 101.461 7.42126 101.489 7.43062Z" fill="#0E1A2F"/>
<path d="M102.893 6.88121L102.775 6.95969C102.775 6.8763 102.829 6.8714 102.893 6.88121Z" fill="#0E1A2F"/>
<path d="M110.991 19.163L115.837 21.6743C116.45 21.9931 116.45 21.9882 116.548 21.2966C117.136 17.0293 117.728 12.7604 118.323 8.48988C118.549 6.84184 118.75 5.18889 118.961 3.54084C118.997 3.42752 118.989 3.30448 118.936 3.19749C119.089 3.15825 119.03 3.04054 119.035 2.94244C119.066 2.69009 119.186 2.45707 119.373 2.28519C119.481 2.85416 119.182 3.35445 119.285 3.86946C119.126 4.37186 119.036 4.89309 119.015 5.41941C118.755 7.17537 118.48 8.93133 118.348 10.702C118.281 10.8093 118.237 10.9288 118.218 11.0535C118.198 11.1782 118.204 11.3055 118.235 11.4279C118.111 11.6977 118.072 11.9986 118.122 12.2912V12.3255C117.931 12.5855 118.054 12.9092 117.955 13.1888C117.852 14.052 117.749 14.9153 117.642 15.7786C117.534 16.6418 117.323 17.3678 117.279 18.182C117.234 18.9962 117.053 19.8349 116.97 20.6687C116.9 21.2435 116.789 21.8123 116.636 22.3707C116.48 22.3618 116.327 22.3235 116.185 22.2579C115.155 21.6448 114.036 21.1985 113.036 20.5167C112.333 20.1047 111.602 19.7425 110.848 19.4327C110.785 19.3101 110.897 19.2463 110.991 19.163Z" fill="#0E1A2F"/>
<path d="M110.81 19.4428C111.564 19.7526 112.295 20.1148 112.998 20.5268C113.979 21.2085 115.117 21.6549 116.147 22.268C116.289 22.3336 116.442 22.3719 116.598 22.3808C116.596 22.4851 116.571 22.5877 116.524 22.6811C116.477 22.7744 116.411 22.8561 116.328 22.9203C115.553 23.5335 114.803 24.176 114.052 24.8136C113.071 25.6622 112.012 26.4813 111.051 27.374C110.192 28.1735 109.28 28.9043 108.402 29.6744C107.161 30.7682 105.9 31.8374 104.65 32.9165C104.45 33.1055 104.212 33.2508 103.953 33.3433C104.066 33.1029 104.174 32.8528 104.282 32.6271C104.754 32.3944 105.176 32.0711 105.523 31.6756C108.789 28.9043 112.036 26.1134 115.293 23.3373C116.162 22.5917 116.171 22.6162 115.141 22.0718C113.67 21.2919 112.164 20.6003 110.727 19.7322C110.766 19.6341 110.791 19.5409 110.81 19.4428Z" fill="#0E1A2F"/>
<path d="M118.986 5.42926C119.007 4.90294 119.098 4.38171 119.256 3.87931C119.312 4.411 119.219 4.94776 118.986 5.42926Z" fill="#0E1A2F"/>
<path d="M118.088 12.3011C118.037 12.0085 118.077 11.7076 118.2 11.4378C118.251 11.7304 118.211 12.0313 118.088 12.3011Z" fill="#0E1A2F"/>
<path d="M117.917 13.1987C118.015 12.9191 117.917 12.5954 118.084 12.3354C118.059 12.6297 118.201 12.9535 117.917 13.1987Z" fill="#0E1A2F"/>
<path d="M118.206 11.4378C118.175 11.3154 118.169 11.1881 118.189 11.0634C118.208 10.9387 118.252 10.8192 118.319 10.7119C118.304 10.9571 118.407 11.222 118.206 11.4378Z" fill="#0E1A2F"/>
<path d="M119.006 2.95243C119.006 3.05053 119.059 3.16825 118.907 3.20749L119.006 2.95243Z" fill="#0E1A2F"/>
<path d="M94.2807 11.3446C94.2415 11.3103 94.2022 11.271 94.2807 11.2318C94.3592 11.1925 94.3347 11.2612 94.3592 11.2808C94.3344 11.3038 94.3082 11.3251 94.2807 11.3446Z" fill="#0E1A2F"/>
</svg>
