<svg width="30" height="30" viewBox="0 0 30 30" fill="none" xmlns="http://www.w3.org/2000/svg">
<path d="M23.2354 7.36172C21.6979 6.64922 20.0604 6.12422 18.3354 5.82422C18.1229 6.19922 17.8729 6.71172 17.7104 7.12422C15.8854 6.84922 14.0729 6.84922 12.2854 7.12422C12.1104 6.71172 11.8604 6.19922 11.6479 5.82422C9.92295 6.12422 8.28545 6.64922 6.74795 7.36172C3.64795 12.0367 2.81045 16.5993 3.22295 21.0868C5.28545 22.6243 7.27295 23.5493 9.23545 24.1618C9.72295 23.4993 10.1479 22.7868 10.5229 22.0493C9.81045 21.7868 9.13545 21.4493 8.49795 21.0618C8.67295 20.9368 8.83545 20.7993 8.99795 20.6743C12.9104 22.4993 17.1479 22.4993 21.0104 20.6743C21.1729 20.8118 21.3354 20.9368 21.5104 21.0618C20.8729 21.4493 20.1854 21.7743 19.4854 22.0493C19.8604 22.7868 20.2854 23.4993 20.7729 24.1618C22.7354 23.5493 24.7354 22.6243 26.7854 21.0868C27.2729 15.8743 25.9479 11.3617 23.2604 7.36172H23.2354ZM11.0479 18.3368C9.87295 18.3368 8.91045 17.2493 8.91045 15.9118C8.91045 14.5743 9.84795 13.4868 11.0479 13.4868C12.2479 13.4868 13.1979 14.5743 13.1854 15.9118C13.1854 17.2368 12.2479 18.3368 11.0479 18.3368ZM18.9354 18.3368C17.7604 18.3368 16.7979 17.2493 16.7979 15.9118C16.7979 14.5743 17.7354 13.4868 18.9354 13.4868C20.1354 13.4868 21.0854 14.5743 21.0729 15.9118C21.0729 17.2368 20.1354 18.3368 18.9354 18.3368Z" fill="white" fill-opacity="0.6"/>
</svg>
