<svg width="108" height="23" viewBox="0 0 108 23" fill="none" xmlns="http://www.w3.org/2000/svg">
<path d="M4.82006 20.4473C4.82666 20.7607 4.76627 21.0718 4.64292 21.36C4.51957 21.6481 4.33611 21.9066 4.10482 22.1181C3.88895 22.3443 3.6291 22.5239 3.34126 22.6458C3.05342 22.7678 2.74367 22.8297 2.43105 22.8275H2.37242C2.06024 22.8296 1.75095 22.7677 1.46359 22.6457C1.17623 22.5237 0.9169 22.3442 0.70158 22.1181C0.473094 21.9052 0.292476 21.6461 0.171696 21.358C0.0509161 21.07 -0.00726795 20.7595 0.000999476 20.4473V9.6865C-0.0174942 8.43382 0.220835 7.19064 0.701289 6.03362C1.18174 4.8766 1.89413 3.83027 2.79453 2.95916C3.66563 2.05877 4.71196 1.34638 5.86898 0.865924C7.02601 0.38547 8.26919 0.147141 9.52186 0.165634C10.7713 0.148566 12.011 0.387629 13.1645 0.868082C14.318 1.34853 15.3608 2.06019 16.2287 2.95916C17.1296 3.82985 17.8424 4.8761 18.3229 6.03322C18.8034 7.19034 19.0414 8.43373 19.0222 9.6865V20.4473C19.0124 21.0755 18.7585 21.6752 18.3142 22.1195C17.8699 22.5638 17.2702 22.8177 16.642 22.8275H16.6039C16.2884 22.8312 15.9756 22.7702 15.6847 22.6481C15.3938 22.5261 15.131 22.3457 14.9125 22.1181C14.6824 21.906 14.5002 21.6472 14.3779 21.3591C14.2556 21.071 14.196 20.7602 14.2032 20.4473V9.6865C14.2059 9.06983 14.0864 8.45873 13.8517 7.88848C13.6169 7.31822 13.2716 6.80011 12.8355 6.36406C12.3995 5.928 11.8813 5.58263 11.3111 5.3479C10.7408 5.11316 10.1297 4.9937 9.51307 4.99642C8.8964 4.9937 8.2853 5.11316 7.71505 5.3479C7.14479 5.58263 6.62668 5.928 6.19063 6.36406C5.75457 6.80011 5.40921 7.31822 5.17447 7.88848C4.93973 8.45873 4.82027 9.06983 4.82299 9.6865L4.82006 20.4473Z" fill="#FFAE45"/>
<path d="M33.711 0.165466C35.2016 0.143537 36.6809 0.427165 38.0577 0.998864C39.4346 1.57056 40.6797 2.41821 41.7164 3.48956C42.7877 4.52623 43.6354 5.77135 44.2071 7.14817C44.7787 8.52499 45.0624 10.0043 45.0404 11.4949C45.0625 12.9884 44.7778 14.4705 44.204 15.8495C43.6302 17.2285 42.7795 18.475 41.7046 19.512C40.6543 20.5656 39.4064 21.4015 38.0324 21.9719C36.6585 22.5422 35.1854 22.8358 33.6978 22.8358C32.2101 22.8358 30.7371 22.5422 29.3631 21.9719C27.9891 21.4015 26.7412 20.5656 25.6909 19.512C24.6181 18.474 23.7696 17.227 23.1979 15.848C22.6261 14.4691 22.3433 12.9875 22.3668 11.4949C22.3449 10.0043 22.6285 8.52499 23.2002 7.14817C23.7719 5.77135 24.6196 4.52623 25.6909 3.48956C26.7293 2.4164 27.9768 1.56769 29.3563 0.995934C30.7358 0.424175 32.2179 0.141525 33.711 0.165466ZM33.711 5.02556C32.8509 5.01086 31.997 5.17261 31.202 5.50082C30.4069 5.82904 29.6875 6.31675 29.0883 6.93384C28.4755 7.5354 27.9918 8.25558 27.6667 9.05038C27.3416 9.84519 27.182 10.6979 27.1976 11.5565C27.1838 12.4118 27.3443 13.2609 27.6694 14.0521C27.9944 14.8434 28.4772 15.5601 29.0883 16.1586C30.3123 17.3807 31.9711 18.0671 33.7007 18.0671C35.4303 18.0671 37.0892 17.3807 38.3131 16.1586C38.9288 15.5626 39.4158 14.8468 39.744 14.0552C40.0722 13.2637 40.2347 12.4133 40.2214 11.5565C40.2364 10.6964 40.0749 9.84241 39.7466 9.04728C39.4184 8.25216 38.9305 7.53285 38.3131 6.93384C37.7171 6.31817 37.0013 5.83119 36.2097 5.50298C35.4182 5.17477 34.5678 5.01229 33.711 5.02556Z" fill="#FFAE45"/>
<path d="M53.1923 13.3561C53.1923 14.5875 53.6815 15.7685 54.5522 16.6393C55.423 17.5101 56.604 17.9992 57.8354 17.9992C59.0669 17.9992 60.2479 17.5101 61.1187 16.6393C61.9894 15.7685 62.4786 14.5875 62.4786 13.3561V2.56595C62.4744 2.25069 62.5349 1.93792 62.6564 1.64699C62.7779 1.35606 62.9579 1.09317 63.1851 0.874586C63.4037 0.647262 63.6666 0.467064 63.9574 0.345072C64.2483 0.22308 64.561 0.161872 64.8764 0.165211H64.9175C65.2304 0.158058 65.5412 0.21762 65.8293 0.339932C66.1174 0.462245 66.3761 0.644505 66.5883 0.874586C66.8159 1.09302 66.9963 1.35582 67.1183 1.64674C67.2403 1.93765 67.3014 2.2505 67.2977 2.56595V13.3561C67.2977 14.5898 67.7878 15.7731 68.6602 16.6455C69.5326 17.5179 70.7159 18.008 71.9497 18.008C73.1834 18.008 74.3667 17.5179 75.2391 16.6455C76.1115 15.7731 76.6016 14.5898 76.6016 13.3561V2.56595C76.598 2.2505 76.659 1.93765 76.781 1.64674C76.903 1.35582 77.0834 1.09302 77.311 0.874586C77.5232 0.644505 77.7819 0.462245 78.07 0.339932C78.3581 0.21762 78.669 0.158058 78.9819 0.165211H79.02C79.3358 0.161644 79.6491 0.222736 79.9404 0.34473C80.2318 0.466724 80.4952 0.647039 80.7143 0.874586C80.9358 1.09635 81.1107 1.36029 81.2285 1.6508C81.3463 1.9413 81.4047 2.25249 81.4002 2.56595V13.3561C81.4194 14.6013 81.1833 15.8373 80.7063 16.9878C80.2294 18.1383 79.5218 19.1789 78.6272 20.0453C77.7609 20.9393 76.7207 21.6465 75.5708 22.1234C74.4209 22.6003 73.1856 22.8368 71.9409 22.8183C68.8141 22.8183 66.4691 21.7826 64.9057 19.7111C63.3189 21.7845 60.9651 22.8203 57.8442 22.8183C56.5991 22.8368 55.3633 22.6004 54.2129 22.1235C53.0625 21.6466 52.0219 20.9394 51.155 20.0453C50.2577 19.1801 49.5474 18.1401 49.0679 16.9896C48.5885 15.839 48.35 14.6024 48.3673 13.3561V2.56595C48.3637 2.2505 48.4247 1.93765 48.5467 1.64674C48.6687 1.35582 48.8491 1.09302 49.0767 0.874586C49.2927 0.647817 49.553 0.46784 49.8414 0.345815C50.1298 0.223789 50.4403 0.162317 50.7534 0.165211H50.8121C51.1246 0.163411 51.4343 0.225392 51.7221 0.347364C52.0099 0.469336 52.2697 0.648734 52.4858 0.874586C52.713 1.09317 52.893 1.35606 53.0145 1.64699C53.136 1.93792 53.1965 2.25069 53.1923 2.56595V13.3561Z" fill="#FFAE45"/>
<path d="M104.672 3.48965C105.744 4.52618 106.592 5.77121 107.164 7.14801C107.736 8.52482 108.02 10.0042 107.999 11.495V20.4472C108.006 20.7601 107.946 21.071 107.824 21.3591C107.702 21.6471 107.52 21.9059 107.29 22.1181C107.074 22.3441 106.815 22.5237 106.527 22.6457C106.24 22.7677 105.931 22.8295 105.619 22.8274H105.557C105.245 22.8295 104.936 22.7677 104.648 22.6457C104.361 22.5237 104.102 22.3441 103.886 22.1181C103.656 21.9059 103.474 21.6471 103.352 21.3591C103.229 21.071 103.17 20.7601 103.177 20.4472C101.682 22.0321 99.5118 22.8255 96.6665 22.8274C95.1764 22.8509 93.6974 22.5688 92.3206 21.9986C90.9437 21.4284 89.6983 20.5822 88.6611 19.5121C87.5894 18.4751 86.7415 17.2295 86.1698 15.8522C85.5981 14.4748 85.3147 12.995 85.337 11.5038C85.3151 10.0132 85.5987 8.53387 86.1704 7.15706C86.7421 5.78024 87.5898 4.53512 88.6611 3.49845C89.7112 2.44499 90.9588 1.60915 92.3325 1.03883C93.7063 0.468514 95.1791 0.17494 96.6665 0.17494C98.1539 0.17494 99.6267 0.468514 101 1.03883C102.374 1.60915 103.622 2.44499 104.672 3.49845V3.48965ZM92.0438 6.90755C91.4339 7.50686 90.9521 8.2238 90.6276 9.01489C90.3031 9.80598 90.1427 10.6547 90.1561 11.5097C90.1474 12.3672 90.3099 13.2178 90.634 14.0117C90.9581 14.8057 91.4373 15.527 92.0435 16.1335C92.6498 16.74 93.3709 17.2195 94.1647 17.5439C94.9585 17.8684 95.809 18.0313 96.6665 18.023C97.5221 18.0396 98.3721 17.8804 99.1637 17.5552C99.9553 17.23 100.672 16.7457 101.269 16.1324C101.889 15.5322 102.379 14.8107 102.708 14.0129C103.038 13.2151 103.199 12.358 103.183 11.495C103.193 10.6403 103.028 9.79256 102.699 9.00371C102.37 8.21485 101.883 7.50155 101.269 6.90755C100.045 5.68551 98.3858 4.99914 96.6562 4.99914C94.9266 4.99914 93.2678 5.68551 92.0438 6.90755Z" fill="#FFAE45"/>
</svg>
