<svg width="70" height="71" viewBox="0 0 70 71" fill="none" xmlns="http://www.w3.org/2000/svg">
<path d="M36.4216 65.8391C36.67 65.2854 36.7587 64.7363 36.6874 64.1921C36.6747 63.6686 36.4754 63.3263 36.2031 62.9225C36.12 62.7966 36.0466 62.6493 35.9443 62.5411C35.7198 62.3022 35.4986 62.0582 35.26 61.8349C34.7063 61.3198 34.1429 60.8189 33.576 60.3193C32.58 59.4417 31.5503 58.6029 30.5252 57.7605C30.1614 57.4617 29.7949 57.165 29.4272 56.8701C27.6969 55.4822 25.9317 54.1379 24.1585 52.8046C21.7741 51.0115 19.3658 49.2544 16.9554 47.4967C14.7112 45.8603 12.3816 44.3447 10.0723 42.7966C8.69249 41.8715 7.29241 40.9767 5.88792 40.0855C5.49926 39.8505 5.06257 39.8473 4.57887 40.0757C3.56154 40.4475 2.59313 41.4129 1.90085 42.276C1.36281 42.9365 0.932791 43.6527 0.609278 44.4225C0.372251 45.0361 0.00705827 46.25 0.627357 46.6439C3.7447 48.6247 6.79241 50.6984 9.85286 52.7593C10.6958 53.3255 11.4915 53.9587 12.3052 54.5655C13.6363 55.5575 14.9671 56.5521 16.2977 57.5457C17.0215 58.0854 17.726 58.6532 18.4299 59.2209C18.765 59.4917 19.0992 59.7617 19.4378 60.0282C20.4213 60.8081 21.3888 61.602 22.3518 62.4107C24.4545 64.1741 26.5071 65.9949 28.5479 67.8314C28.9671 68.2085 29.3843 68.5859 29.8021 68.9647C29.9992 69.1419 30.1988 69.3161 30.3972 69.4919C30.8201 69.8673 31.3125 70.0399 31.8794 70.1864C32.4255 70.1386 32.9422 69.9329 33.4294 69.5695C34.086 69.1039 34.6683 68.5499 35.1778 67.9063C35.6959 67.2708 36.1099 66.5807 36.4216 65.8391Z" fill="#FFAE45"/>
<path d="M67.3685 43.4357C67.925 43.1892 68.36 42.8326 68.6729 42.3659C69.0155 41.9566 69.0977 41.5531 69.1672 41.0507C69.1902 40.8953 69.2347 40.7305 69.2316 40.575C69.2257 40.2326 69.2257 39.8887 69.1988 39.5482C69.1343 38.7605 69.0532 37.9767 68.9685 37.1914C68.8197 35.8119 68.6198 34.438 68.4258 33.0647C68.3568 32.5774 68.2844 32.0899 68.2099 31.6027C67.8595 29.3107 67.4538 27.0271 67.0349 24.7461C66.4716 21.6789 65.8665 18.6221 65.2602 15.5634C64.6956 12.7157 63.9865 9.89954 63.3143 7.07299C62.9128 5.38402 62.4758 3.70387 62.0331 2.02321C61.9028 1.56706 61.581 1.25391 61.0687 1.08433C60.0642 0.644699 58.6968 0.693699 57.6031 0.860924C56.76 0.983021 55.9596 1.22459 55.2021 1.58287C54.6138 1.88327 53.5269 2.55143 53.7221 3.29392C54.7029 7.02612 55.5695 10.7799 56.4541 14.5329C56.6987 15.5655 56.8633 16.6157 57.059 17.6585C57.3794 19.364 57.6979 21.0711 58.0169 22.7775C58.191 23.705 58.3318 24.6404 58.4723 25.5752C58.5389 26.0206 58.6052 26.4648 58.6772 26.9094C58.8824 28.2054 59.0663 29.5007 59.237 30.804C59.6113 33.6482 59.9097 36.5006 60.189 39.3565C60.2464 39.943 60.302 40.5284 60.3573 41.1152C60.3844 41.391 60.4154 41.6662 60.4443 41.9417C60.5056 42.5296 60.7549 43.0119 61.0769 43.5273C61.5141 43.8793 62.0357 44.0897 62.6414 44.1585C63.4414 44.2698 64.2457 44.2605 65.0563 44.1311C65.8678 44.0139 66.6389 43.7809 67.3685 43.4357Z" fill="#FFAE45"/>
<path d="M49.0714 49.3801C49.4837 48.9229 49.7322 48.3917 49.8164 47.7866C49.9544 47.232 49.8501 46.7751 49.6894 46.2178C49.6411 46.0449 49.6088 45.8544 49.5359 45.6906C49.3763 45.3295 49.2215 44.9647 49.043 44.6129C48.628 43.8001 48.1991 42.9972 47.7661 42.194C47.0054 40.783 46.1993 39.396 45.399 38.0075C45.1148 37.5148 44.8274 37.0232 44.5382 36.5327C43.1774 34.2246 41.7684 31.945 40.3483 29.6728C38.4385 26.6174 36.4942 23.5877 34.5478 20.5565C32.7356 17.7343 30.8018 14.9965 28.898 12.2346C27.7604 10.5843 26.5935 8.95576 25.4212 7.32867C25.0934 6.89065 24.6499 6.67162 24.092 6.67187C22.9496 6.55876 21.6861 7.09152 20.733 7.65347C19.9952 8.07943 19.3513 8.61713 18.8003 9.26349C18.3824 9.78899 17.661 10.8799 18.1787 11.5988C20.7802 15.2128 23.284 18.8898 25.8044 22.5597C26.499 23.569 27.1263 24.6252 27.7795 25.6625C28.8481 27.3589 29.9157 29.0577 30.9835 30.7555C31.5645 31.6782 32.1178 32.6208 32.6705 33.5629C32.9335 34.012 33.1958 34.4598 33.4635 34.9062C34.2396 36.2088 34.9953 37.518 35.7423 38.8405C37.3739 41.7258 38.9379 44.6464 40.4855 47.5776C40.8034 48.1796 41.1192 48.7809 41.4352 49.3839C41.5848 49.6669 41.7377 49.9479 41.8889 50.23C42.211 50.8321 42.6624 51.2559 43.197 51.6894C43.7665 51.9091 44.3516 51.9489 44.952 51.8089C45.7543 51.6456 46.5064 51.353 47.2103 50.9307C47.9205 50.521 48.5407 50.0028 49.0714 49.3801Z" fill="#FFAE45"/>
</svg>
