<svg width="96" height="17" viewBox="0 0 96 17" fill="none" xmlns="http://www.w3.org/2000/svg">
<path d="M94.7569 5.41735C91.7027 8.71087 88.8851 12.1913 86.3073 15.8575C85.0952 17.5826 82.4469 15.6371 83.6528 13.9193C85.4485 11.3651 87.3644 8.90331 89.391 6.52884C67.447 13.2308 44.3137 15.8199 21.3932 14.0605C14.8682 13.5601 8.37828 12.6954 1.94777 11.4971C-0.13237 11.1095 0.265075 7.88354 2.36407 8.27503C24.5042 12.4008 47.3355 12.37 69.4607 8.15412C74.6254 7.16864 79.7393 5.95024 84.793 4.5133C83.7075 4.30261 82.6209 4.08797 81.5365 3.86848C79.4676 3.4496 79.8624 0.222773 81.9529 0.646125C85.8371 1.4329 89.7321 2.16336 93.6379 2.83698C94.7495 3.02898 95.6458 4.45985 94.7569 5.41735Z" fill="#A1B7BA"/>
</svg>
