<svg width="95" height="35" viewBox="0 0 95 35" fill="none" xmlns="http://www.w3.org/2000/svg">
<path d="M13.8432 15.8068C35.425 35.8179 67.3657 40.289 93.0191 27.0568C95.5265 25.7629 93.2449 21.7952 90.7454 23.0807C66.9294 35.3689 36.8172 30.9578 16.8277 12.419C14.7219 10.4669 11.7218 13.8377 13.8432 15.8068Z" fill="#FFAB3F"/>
<path d="M17.1579 5.96717C14.252 9.38939 11.3462 12.8116 8.43723 16.2321C9.65449 16.5507 10.8718 16.8693 12.0874 17.1913C10.1048 11.8712 7.69073 6.7969 4.77578 1.99878C4.68506 2.94114 4.59279 3.88691 4.50207 4.82928C4.62392 4.72116 4.74578 4.61304 4.86763 4.50492C4.35424 4.7487 3.84243 4.9891 3.32589 5.23116C4.32722 5.16816 5.51444 5.87902 6.45097 6.2234C7.75898 6.70212 9.06695 7.18083 10.3718 7.65784C12.8399 8.56019 15.3111 9.46427 17.7776 10.37C18.1308 8.85987 18.4841 7.34973 18.8357 5.84297C14.9103 5.11687 11.4372 7.35733 10.1996 11.4418C11.5949 11.4147 12.9871 11.386 14.3808 11.3623C14.0088 9.4867 13.6353 7.61452 13.2618 5.74234C13.0116 4.50781 11.6399 3.81982 10.5759 4.15091C8.74794 4.72115 7.4746 6.10446 7.14745 8.14815C6.96923 9.27694 7.35494 10.1299 8.20668 10.7643C9.00813 11.3629 9.64545 12.0167 10.3091 12.7742C12.2215 14.9615 15.2012 11.5753 13.2919 9.38973C12.3742 8.34046 11.3862 7.49129 10.2925 6.67387C10.645 7.54708 10.996 8.41517 11.3486 9.28838C11.4945 9.06996 11.6405 8.85155 11.7818 8.63481C10.8902 8.10209 9.99696 7.57275 9.10064 7.04171C9.47258 8.91727 9.8461 10.7894 10.2196 12.6616C10.7059 15.0932 13.7884 14.6023 14.4008 12.5821C14.8645 11.047 16.2953 10.0943 17.7776 10.37C20.5374 10.878 21.4785 6.81074 18.8357 5.84297C15.4957 4.61863 12.154 3.39767 8.81711 2.17505C6.29239 1.25034 3.6874 -0.446026 1.36121 1.61495C0.650697 2.24508 0.610018 3.66166 1.0875 4.44545C3.78642 8.88746 6.09178 13.562 7.92944 18.4923C8.51395 20.0581 10.3818 20.8589 11.5812 19.4481C14.487 16.0259 17.3944 12.6003 20.3002 9.17807C22.1794 6.96708 19.0481 3.74095 17.1579 5.96717Z" fill="#FFAB3F"/>
</svg>
