<svg width="99" height="44" viewBox="0 0 99 44" fill="none" xmlns="http://www.w3.org/2000/svg">
<path d="M93.154 31.125C84.5383 11.8045 64.4551 -0.635694 44.8407 0.582823C24.1302 1.87185 6.42665 17.9381 0.437868 38.6585C-0.685244 42.5609 5.05114 44.7026 6.17425 40.8002C11.4615 22.5027 27.1669 7.90459 45.5919 6.91871C62.8794 5.99431 80.3001 16.9867 87.8678 33.9545C89.5522 37.733 94.8384 34.9035 93.154 31.125Z" fill="#FFAE45"/>
<path d="M92.8406 16.3047C92.2091 24.2439 91.581 32.1794 90.953 40.115C92.6851 39.495 94.4172 38.8749 96.1493 38.2475C91.0211 33.2922 84.7072 30.4825 77.8717 30.6852C74.0477 30.7979 73.8032 37.19 77.6652 37.075C82.848 36.9243 87.7891 38.6068 91.7589 42.4433C93.7196 44.3385 96.7241 43.4891 96.9553 40.5757C97.5834 32.6401 98.215 24.701 98.843 16.7654C99.1709 12.6691 93.165 12.2194 92.8406 16.3047Z" fill="#FFAE45"/>
</svg>
