<svg width="30" height="30" viewBox="0 0 30 30" fill="none" xmlns="http://www.w3.org/2000/svg">
<path d="M23.2354 7.3627C21.6979 6.6502 20.0604 6.1252 18.3354 5.8252C18.1229 6.2002 17.8729 6.7127 17.7104 7.1252C15.8854 6.8502 14.0729 6.8502 12.2854 7.1252C12.1104 6.7127 11.8604 6.2002 11.6479 5.8252C9.92295 6.1252 8.28545 6.6502 6.74795 7.3627C3.64795 12.0377 2.81045 16.6002 3.22295 21.0877C5.28545 22.6252 7.27295 23.5502 9.23545 24.1627C9.72295 23.5002 10.1479 22.7877 10.5229 22.0502C9.81045 21.7877 9.13545 21.4502 8.49795 21.0627C8.67295 20.9377 8.83545 20.8002 8.99795 20.6752C12.9104 22.5002 17.1479 22.5002 21.0104 20.6752C21.1729 20.8127 21.3354 20.9377 21.5104 21.0627C20.8729 21.4502 20.1854 21.7752 19.4854 22.0502C19.8604 22.7877 20.2854 23.5002 20.7729 24.1627C22.7354 23.5502 24.7354 22.6252 26.7854 21.0877C27.2729 15.8752 25.9479 11.3627 23.2604 7.3627H23.2354ZM11.0479 18.3377C9.87295 18.3377 8.91045 17.2502 8.91045 15.9127C8.91045 14.5752 9.84795 13.4877 11.0479 13.4877C12.2479 13.4877 13.1979 14.5752 13.1854 15.9127C13.1854 17.2377 12.2479 18.3377 11.0479 18.3377ZM18.9354 18.3377C17.7604 18.3377 16.7979 17.2502 16.7979 15.9127C16.7979 14.5752 17.7354 13.4877 18.9354 13.4877C20.1354 13.4877 21.0854 14.5752 21.0729 15.9127C21.0729 17.2377 20.1354 18.3377 18.9354 18.3377Z" fill="white" fill-opacity="0.6"/>
</svg>
