<svg width="139" height="133" viewBox="0 0 139 133" fill="none" xmlns="http://www.w3.org/2000/svg">
<g filter="url(#filter0_i_4420_517)">
<rect x="0.1875" y="0.0742188" width="138.697" height="132.773" rx="9.83274" fill="#23244C"/>
</g>
<mask id="mask0_4420_517" style="mask-type:alpha" maskUnits="userSpaceOnUse" x="0" y="0" width="139" height="133">
<rect x="0.1875" y="0.0742188" width="138.697" height="132.773" rx="9.83274" fill="#23244C"/>
</mask>
<g mask="url(#mask0_4420_517)">
<ellipse cx="69.5389" cy="110.028" rx="81.2108" ry="78.0171" fill="#2C2D60"/>
<circle cx="69.5389" cy="119.609" r="81.2108" fill="#393B80"/>
</g>
<g filter="url(#filter1_d_4420_517)">
<path d="M43.0703 35.2045C43.0703 32.4214 44.1759 29.7523 46.1438 27.7844C48.1117 25.8165 50.7808 24.7109 53.5638 24.7109H85.0444C87.8275 24.7109 90.4966 25.8165 92.4645 27.7844C94.4324 29.7523 95.538 32.4214 95.538 35.2045V98.1657C95.538 100.949 94.4324 103.618 92.4645 105.586C90.4966 107.554 87.8275 108.659 85.0444 108.659H53.5638C50.7808 108.659 48.1117 107.554 46.1438 105.586C44.1759 103.618 43.0703 100.949 43.0703 98.1657V35.2045ZM74.5509 92.9189C74.5509 91.5274 73.9981 90.1928 73.0142 89.2089C72.0302 88.2249 70.6957 87.6721 69.3041 87.6721C67.9126 87.6721 66.5781 88.2249 65.5941 89.2089C64.6102 90.1928 64.0574 91.5274 64.0574 92.9189C64.0574 94.3104 64.6102 95.645 65.5941 96.6289C66.5781 97.6129 67.9126 98.1657 69.3041 98.1657C70.6957 98.1657 72.0302 97.6129 73.0142 96.6289C73.9981 95.645 74.5509 94.3104 74.5509 92.9189Z" fill="white"/>
</g>
<path d="M48.6413 29.3272L44.8678 28.1109C42.4541 27.3145 41.0401 25.3613 40.3764 22.907L38.7158 14.8182C38.6725 14.6583 38.5668 14.4443 38.2418 14.4443C37.9681 14.4443 37.811 14.6583 37.7677 14.8182L36.1071 22.9097C35.4407 25.364 34.0294 27.3172 31.6157 28.1136L27.8422 29.3299C27.3085 29.5033 27.3004 30.2563 27.8313 30.4378L31.632 31.7463C34.0375 32.5454 35.4407 34.4958 36.1071 36.9393L37.7704 44.9387C37.8137 45.0986 37.9031 45.3857 38.2445 45.3857C38.6047 45.3857 38.6752 45.0986 38.7185 44.9387L40.3818 36.9393C41.0482 34.4931 42.4514 32.5427 44.857 31.7463L48.6576 30.4378C49.1831 30.2536 49.175 29.5006 48.6413 29.3272Z" fill="#FDD835"/>
<path d="M48.9944 29.6662C48.9348 29.5172 48.8183 29.3872 48.6368 29.3276L44.8633 28.1113C42.4496 27.3149 41.0356 25.3617 40.3719 22.9074L38.7113 14.8186C38.6869 14.7265 38.6002 14.5585 38.5 14.5098L39.0364 22.6284C39.4346 26.3342 39.7759 28.0788 42.7341 28.5881C45.275 29.0269 48.2142 29.5308 48.9944 29.6662Z" fill="#FFEE58"/>
<path d="M49.0048 30.0879L42.46 31.5886C40.1547 32.1738 38.8842 33.5093 38.8842 37.0038L38.2422 45.3852C38.4616 45.3635 38.6404 45.2443 38.7162 44.9382L40.3795 36.9388C41.0459 34.4926 42.4492 32.5422 44.8547 31.7458L48.6553 30.4373C48.8341 30.3723 48.9479 30.2396 49.0048 30.0879Z" fill="#F4B400"/>
<path d="M27.0265 36.3644C24.7699 35.6195 24.564 34.7797 24.1848 33.363L23.2394 30.0472C23.1825 29.8332 22.6245 29.8332 22.5649 30.0472L21.9228 33.111C21.5409 34.5224 20.7282 35.6439 19.3412 36.1017L17.1307 37.0606C16.8246 37.1609 16.8192 37.5943 17.1253 37.6972L19.3521 38.4855C20.7336 38.9433 21.5409 40.0648 21.9255 41.4708L22.5676 44.4018C22.6272 44.6158 23.1825 44.6158 23.2394 44.4018L23.9925 41.4843C24.3744 40.0703 24.9595 38.946 26.8368 38.4855L28.9281 37.6972C29.2342 37.5916 29.2315 37.1582 28.9227 37.0579L27.0265 36.3644Z" fill="#FDD835"/>
<path d="M23.4189 33.315C23.6492 35.4442 23.7657 36.0348 25.4913 36.4763L29.086 37.1779C29.0481 37.1265 28.9939 37.0831 28.9208 37.0614L27.0245 36.3653C25.0443 35.688 24.4971 34.8266 24.126 33.1037C23.7548 31.3808 23.3593 30.2566 23.3593 30.2566C23.2212 29.8855 23.0234 29.9045 23.0234 29.9045L23.4189 33.315Z" fill="#FFEE58"/>
<path d="M23.4853 40.7473C23.4853 38.74 24.5824 37.7458 26.327 37.7458L29.0413 37.6348C29.0413 37.6348 28.8842 37.8434 28.6106 37.9084L26.8389 38.4854C25.3355 39.0895 24.6501 39.3929 24.1842 41.4489C24.1842 41.4489 23.5828 43.8409 23.469 44.0928C23.3119 44.445 23.125 44.5182 23.125 44.5182L23.4853 40.7473Z" fill="#F4B400"/>
<path d="M31.8837 20.4719C32.0354 20.4204 32.03 20.2037 31.8756 20.1604L29.7843 19.5969C29.5692 19.5386 29.3728 19.4256 29.2143 19.269C29.0557 19.1124 28.9404 18.9174 28.8795 18.703L28.056 15.3033C28.0153 15.138 27.7797 15.138 27.739 15.306L26.9643 18.6922C26.9057 18.9124 26.7895 19.1131 26.6277 19.2736C26.4658 19.4341 26.264 19.5485 26.0432 19.6051L23.9655 20.1441C23.8111 20.1848 23.8003 20.4015 23.952 20.4557L26.1435 21.2142C26.5363 21.3496 26.8397 21.6693 26.9589 22.0675L27.7417 25.2071C27.7824 25.3697 28.0153 25.3724 28.056 25.2071L28.8659 22.0566C28.9259 21.86 29.0319 21.6805 29.1751 21.5331C29.3184 21.3856 29.4947 21.2744 29.6895 21.2087L31.8837 20.4719Z" fill="#F4B400" stroke="#F4B400" stroke-width="0.912481" stroke-miterlimit="10"/>
<path d="M124.831 101.187L120.064 99.6507C117.015 98.6447 115.229 96.1776 114.391 93.0774L112.293 82.8599C112.238 82.658 112.105 82.3877 111.694 82.3877C111.349 82.3877 111.15 82.658 111.096 82.8599L108.998 93.0808C108.156 96.181 106.373 98.6481 103.325 99.6541L98.558 101.191C97.884 101.41 97.8737 102.361 98.5444 102.59L103.345 104.243C106.384 105.252 108.156 107.716 108.998 110.802L111.099 120.907C111.154 121.109 111.267 121.472 111.698 121.472C112.153 121.472 112.242 121.109 112.297 120.907L114.398 110.802C115.239 107.712 117.012 105.249 120.05 104.243L124.851 102.59C125.515 102.357 125.505 101.406 124.831 101.187Z" fill="#FDD835"/>
<path d="M125.28 101.615C125.204 101.427 125.057 101.262 124.828 101.187L120.061 99.6506C117.012 98.6446 115.226 96.1775 114.388 93.0773L112.29 82.8598C112.26 82.7435 112.15 82.5313 112.023 82.4697L112.701 92.7249C113.204 97.4059 113.635 99.6095 117.372 100.253C120.581 100.807 124.294 101.444 125.28 101.615Z" fill="#FFEE58"/>
<path d="M125.29 102.148L117.023 104.044C114.111 104.783 112.506 106.47 112.506 110.884L111.695 121.471C111.972 121.444 112.198 121.293 112.294 120.907L114.395 110.802C115.237 107.712 117.009 105.249 120.048 104.243L124.849 102.59C125.075 102.508 125.218 102.34 125.29 102.148Z" fill="#F4B400"/>
<path d="M97.5277 110.077C94.6773 109.136 94.4172 108.075 93.9382 106.286L92.744 102.097C92.6721 101.827 91.9672 101.827 91.892 102.097L91.081 105.967C90.5985 107.75 89.572 109.167 87.82 109.745L85.0278 110.956C84.6412 111.083 84.6343 111.63 85.021 111.76L87.8337 112.756C89.5788 113.334 90.5985 114.751 91.0844 116.527L91.8954 120.229C91.9707 120.5 92.6721 120.5 92.744 120.229L93.6952 116.544C94.1777 114.758 94.9168 113.338 97.2881 112.756L99.9298 111.76C100.316 111.627 100.313 111.08 99.9229 110.953L97.5277 110.077Z" fill="#FDD835"/>
<path d="M92.9761 106.223C93.267 108.913 93.4141 109.659 95.5938 110.217L100.135 111.103C100.087 111.038 100.018 110.983 99.9258 110.956L97.5306 110.076C95.0292 109.221 94.338 108.133 93.8692 105.956C93.4004 103.78 92.9009 102.36 92.9009 102.36C92.7264 101.891 92.4766 101.915 92.4766 101.915L92.9761 106.223Z" fill="#FFEE58"/>
<path d="M93.0567 115.613C93.0567 113.078 94.4425 111.822 96.6461 111.822L100.075 111.682C100.075 111.682 99.8763 111.945 99.5307 112.027L97.2929 112.756C95.3938 113.519 94.528 113.902 93.9395 116.5C93.9395 116.5 93.1798 119.521 93.0361 119.839C92.8377 120.284 92.6016 120.376 92.6016 120.376L93.0567 115.613Z" fill="#F4B400"/>
<path d="M103.671 90.0013C103.863 89.9363 103.856 89.6626 103.661 89.6078L101.019 88.8961C100.748 88.8224 100.5 88.6797 100.299 88.4818C100.099 88.284 99.9535 88.0377 99.8766 87.7669L98.8363 83.4725C98.785 83.2638 98.4873 83.2638 98.436 83.476L97.4573 87.7532C97.3834 88.0315 97.2366 88.285 97.0321 88.4877C96.8277 88.6904 96.5728 88.8349 96.2939 88.9064L93.6694 89.5873C93.4744 89.6386 93.4607 89.9124 93.6523 89.9808L96.4205 90.9389C96.9167 91.11 97.2999 91.5138 97.4505 92.0168L98.4394 95.9826C98.4907 96.188 98.785 96.1914 98.8363 95.9826L99.8595 92.0031C99.9352 91.7547 100.069 91.528 100.25 91.3417C100.431 91.1555 100.654 91.015 100.9 90.9321L103.671 90.0013Z" fill="#F4B400" stroke="#F4B400" stroke-width="0.912481" stroke-miterlimit="10"/>
<defs>
<filter id="filter0_i_4420_517" x="0.1875" y="0.0742188" width="142.345" height="136.423" filterUnits="userSpaceOnUse" color-interpolation-filters="sRGB">
<feFlood flood-opacity="0" result="BackgroundImageFix"/>
<feBlend mode="normal" in="SourceGraphic" in2="BackgroundImageFix" result="shape"/>
<feColorMatrix in="SourceAlpha" type="matrix" values="0 0 0 0 0 0 0 0 0 0 0 0 0 0 0 0 0 0 127 0" result="hardAlpha"/>
<feOffset dx="3.64992" dy="3.64992"/>
<feGaussianBlur stdDeviation="9.12481"/>
<feComposite in2="hardAlpha" operator="arithmetic" k2="-1" k3="1"/>
<feColorMatrix type="matrix" values="0 0 0 0 1 0 0 0 0 1 0 0 0 0 1 0 0 0 0.1 0"/>
<feBlend mode="normal" in2="shape" result="effect1_innerShadow_4420_517"/>
</filter>
<filter id="filter1_d_4420_517" x="35.7705" y="24.7109" width="59.7686" height="91.2481" filterUnits="userSpaceOnUse" color-interpolation-filters="sRGB">
<feFlood flood-opacity="0" result="BackgroundImageFix"/>
<feColorMatrix in="SourceAlpha" type="matrix" values="0 0 0 0 0 0 0 0 0 0 0 0 0 0 0 0 0 0 127 0" result="hardAlpha"/>
<feOffset dx="-3.64992" dy="3.64992"/>
<feGaussianBlur stdDeviation="1.82496"/>
<feComposite in2="hardAlpha" operator="out"/>
<feColorMatrix type="matrix" values="0 0 0 0 0.137255 0 0 0 0 0.141176 0 0 0 0 0.298039 0 0 0 0.42 0"/>
<feBlend mode="normal" in2="BackgroundImageFix" result="effect1_dropShadow_4420_517"/>
<feBlend mode="normal" in="SourceGraphic" in2="effect1_dropShadow_4420_517" result="shape"/>
</filter>
</defs>
</svg>
