<svg width="20" height="20" viewBox="0 0 20 20" fill="none" xmlns="http://www.w3.org/2000/svg">
<path d="M3.125 15C2.94444 15 2.79514 14.941 2.67708 14.8229C2.55903 14.7049 2.5 14.5556 2.5 14.375C2.5 14.1944 2.55903 14.0451 2.67708 13.9271C2.79514 13.809 2.94444 13.75 3.125 13.75H16.875C17.0556 13.75 17.2049 13.809 17.3229 13.9271C17.441 14.0451 17.5 14.1944 17.5 14.375C17.5 14.5556 17.441 14.7049 17.3229 14.8229C17.2049 14.941 17.0556 15 16.875 15H3.125ZM3.125 10.625C2.94444 10.625 2.79514 10.566 2.67708 10.4479C2.55903 10.3299 2.5 10.1806 2.5 10C2.5 9.81944 2.55903 9.67014 2.67708 9.55208C2.79514 9.43403 2.94444 9.375 3.125 9.375H16.875C17.0556 9.375 17.2049 9.43403 17.3229 9.55208C17.441 9.67014 17.5 9.81944 17.5 10C17.5 10.1806 17.441 10.3299 17.3229 10.4479C17.2049 10.566 17.0556 10.625 16.875 10.625H3.125ZM3.125 6.25C2.94444 6.25 2.79514 6.19097 2.67708 6.07292C2.55903 5.95486 2.5 5.80556 2.5 5.625C2.5 5.44444 2.55903 5.29514 2.67708 5.17708C2.79514 5.05903 2.94444 5 3.125 5H16.875C17.0556 5 17.2049 5.05903 17.3229 5.17708C17.441 5.29514 17.5 5.44444 17.5 5.625C17.5 5.80556 17.441 5.95486 17.3229 6.07292C17.2049 6.19097 17.0556 6.25 16.875 6.25H3.125Z" fill="#E6EBEA"/>
</svg>
