<svg width="80" height="56" viewBox="0 0 80 56" fill="none" xmlns="http://www.w3.org/2000/svg">
<path d="M53.6112 0.923828H0V36.6662H53.6112V0.923828Z" fill="#0E1A2F"/>
<path d="M25.6657 8.71132L26.7955 7.88699L27.9253 8.71132L27.4986 7.37783L28.6478 6.5535H27.2319L26.7955 5.20061L26.3639 6.5535H24.948L26.0972 7.37783L25.6657 8.71132Z" fill="#FEFFFF"/>
<path d="M19.807 10.6318L20.9417 9.80744L22.0715 10.6318L21.64 9.29829L22.7892 8.47394H21.3733L20.9417 7.12105L20.5053 8.47394H19.0894L20.2386 9.29829L19.807 10.6318Z" fill="#FEFFFF"/>
<path d="M19.807 30.9298L20.9417 30.1055L22.0715 30.9298L21.64 29.5964L22.7892 28.772H21.3733L20.9417 27.4191L20.5053 28.772H19.0894L20.2386 29.5964L19.807 30.9298Z" fill="#FEFFFF"/>
<path d="M16.6609 11.4123L16.2245 12.77L14.8086 12.7652L15.9578 13.5895L15.5262 14.9278L16.6609 14.1035L17.7907 14.9278L17.3592 13.5895L18.5084 12.7652H17.0925L16.6609 11.4123Z" fill="#FEFFFF"/>
<path d="M15.0839 19.9466L16.2186 20.7758L15.787 19.4375L16.9362 18.6132H15.5203L15.0839 17.2603L14.6523 18.618L13.2364 18.6132L14.3856 19.4375L13.9541 20.7758L15.0839 19.9466Z" fill="#FEFFFF"/>
<path d="M17.0925 24.4806L16.6609 23.1277L16.2245 24.4806H14.8086L15.9578 25.3049L15.5262 26.6384L16.6609 25.8141L17.7907 26.6384L17.3592 25.3049L18.5084 24.4806H17.0925Z" fill="#FEFFFF"/>
<path d="M27.2319 29.9794L26.7955 28.6217L26.3639 29.9794H24.948L26.0972 30.8038L25.6657 32.1373L26.7955 31.3129L27.9302 32.1373L27.4986 30.8038L28.6478 29.9794H27.2319Z" fill="#FEFFFF"/>
<path d="M33.0792 28.4228L32.6428 27.0699L32.2112 28.4228H30.7953L31.9445 29.2471L31.513 30.5806L32.6428 29.7563L33.7775 30.5806L33.3459 29.2471L34.4951 28.4228H33.0792Z" fill="#FEFFFF"/>
<path d="M37.3714 24.1313L36.935 22.7784L36.5034 24.1313H35.0875L36.2367 24.9557L35.8051 26.2891L36.935 25.4648L38.0696 26.2891L37.6381 24.9557L38.7873 24.1313H37.3714Z" fill="#FEFFFF"/>
<path d="M35.8051 14.5593L36.935 13.735L38.0696 14.5593L37.6381 13.2258L38.7873 12.4015H37.3714L36.935 11.0486L36.5034 12.4015H35.0875L36.2367 13.2258L35.8051 14.5593Z" fill="#FEFFFF"/>
<path d="M37.3621 20.4073L38.492 19.583L39.6218 20.4073L39.1902 19.0738L40.3395 18.2495H38.9284L38.492 16.8966L38.0555 18.2495H36.6445L37.7937 19.0738L37.3621 20.4073Z" fill="#FEFFFF"/>
<path d="M32.6628 6.77182L32.2312 8.12956L30.8104 8.12471L31.9597 8.95389L31.5281 10.2874L32.6628 9.4582L33.7926 10.2874L33.361 8.95389L34.5103 8.12471H33.0944L32.6628 6.77182Z" fill="#FEFFFF"/>
<path d="M0.0284124 45.6758V40.3127H3.90766V40.9431H0.736374V42.5821H3.68945V43.2221H0.736374V45.0454H4.01434V45.6758H0.0284124Z" fill="#0E1A2F"/>
<path d="M8.49942 40.3127H9.20739V43.4015C9.22388 43.8355 9.16313 44.269 9.02797 44.6817C8.89883 45.0042 8.66707 45.2751 8.3685 45.4527C7.98771 45.6673 7.55401 45.7698 7.11744 45.7485C6.69348 45.7664 6.27176 45.6781 5.89063 45.4915C5.58602 45.333 5.34726 45.072 5.21661 44.7544C5.06373 44.3255 4.99459 43.8711 5.01295 43.4161V40.3127H5.70152V43.3967C5.68463 43.7444 5.72894 44.0923 5.83244 44.4247C5.91516 44.6425 6.07352 44.8232 6.27856 44.9338C6.51508 45.061 6.78119 45.1229 7.04956 45.1133C7.24894 45.132 7.45006 45.1103 7.64086 45.0495C7.83166 44.9886 8.00823 44.8899 8.15999 44.7593C8.42769 44.3584 8.54453 43.8756 8.48973 43.3967L8.49942 40.3127Z" fill="#0E1A2F"/>
<path d="M10.3952 45.6757V40.3126H12.7664C13.1342 40.2964 13.502 40.3457 13.8525 40.4581C14.0981 40.5632 14.3013 40.7476 14.4296 40.9818C14.5823 41.2158 14.6663 41.488 14.672 41.7674C14.678 41.9454 14.6484 42.1228 14.5852 42.2893C14.5219 42.4558 14.4262 42.608 14.3035 42.7372C13.9884 43.0215 13.5873 43.1922 13.164 43.2221C13.3176 43.2913 13.4611 43.381 13.5907 43.4888C13.8165 43.6998 14.0138 43.9394 14.1774 44.2016L15.1084 45.6563H14.2211L13.5131 44.541C13.3046 44.221 13.1349 43.9737 12.9991 43.804C12.9001 43.6667 12.7788 43.5471 12.6403 43.45C12.542 43.3848 12.434 43.3357 12.3202 43.3045C12.1895 43.2939 12.0582 43.2939 11.9275 43.3045H11.1031V45.6805L10.3952 45.6757ZM11.1031 42.6887H12.6257C12.8819 42.6987 13.1378 42.6643 13.3822 42.5868C13.5531 42.5298 13.6999 42.4171 13.7992 42.2668C13.8945 42.1233 13.9435 41.9541 13.9398 41.7819C13.9424 41.6642 13.9195 41.5473 13.8727 41.4394C13.8258 41.3314 13.756 41.2348 13.6683 41.1564C13.4153 40.9747 13.1059 40.8887 12.7954 40.9139H11.1031V42.6887Z" fill="#0E1A2F"/>
<path d="M15.5656 43.0718C15.5206 42.3102 15.7766 41.5614 16.2784 40.9867C16.5155 40.7376 16.8028 40.5417 17.1213 40.4121C17.4398 40.2825 17.7823 40.2222 18.1259 40.2351C18.5946 40.2271 19.0564 40.3496 19.4594 40.5891C19.851 40.8154 20.1666 41.153 20.3662 41.5589C20.5824 42.0127 20.6888 42.5111 20.6765 43.0136C20.6863 43.5175 20.5749 44.0164 20.3516 44.4683C20.1487 44.8798 19.8235 45.2186 19.4206 45.4381C19.0232 45.6585 18.5755 45.7722 18.1211 45.7679C17.6465 45.7754 17.1794 45.6494 16.773 45.4042C16.3858 45.1653 16.0772 44.818 15.8856 44.4053C15.6786 43.991 15.5692 43.5349 15.5656 43.0718ZM16.293 43.0718C16.262 43.6282 16.4499 44.1747 16.8167 44.5944C16.9856 44.7716 17.1887 44.9127 17.4138 45.0091C17.6388 45.1055 17.8811 45.1552 18.1259 45.1552C18.3707 45.1552 18.613 45.1055 18.8381 45.0091C19.0631 44.9127 19.2662 44.7716 19.4352 44.5944C19.8038 44.1477 19.9877 43.5769 19.9492 42.9991C19.9579 42.6081 19.8835 42.2197 19.7309 41.8595C19.5942 41.5485 19.368 41.2851 19.0812 41.1031C18.7904 40.9225 18.4536 40.8299 18.1114 40.8364C17.6406 40.8413 17.1903 41.0291 16.8555 41.3601C16.6505 41.5943 16.495 41.8675 16.3983 42.1633C16.3017 42.4591 16.2658 42.7714 16.293 43.0815V43.0718Z" fill="#0E1A2F"/>
<path d="M21.5878 45.6759V40.3128H23.605C23.8775 40.3078 24.15 40.3256 24.4196 40.3662C24.655 40.3991 24.8801 40.4835 25.0791 40.6135C25.2657 40.7459 25.4144 40.9247 25.5107 41.1323C25.6193 41.3592 25.674 41.6081 25.6707 41.8597C25.6809 42.2856 25.5263 42.699 25.2391 43.0137C25.0236 43.1966 24.7733 43.3338 24.5032 43.4172C24.2332 43.5005 23.9491 43.5283 23.668 43.4987H22.2957V45.6759H21.5878ZM22.2957 42.8683H23.6777C24.0206 42.9017 24.3643 42.8124 24.6475 42.6161C24.746 42.5254 24.8232 42.414 24.8735 42.2899C24.9238 42.1658 24.946 42.0321 24.9385 41.8985C24.9445 41.693 24.885 41.4909 24.7688 41.3214C24.6601 41.1666 24.5005 41.0551 24.3178 41.0062C24.1003 40.9667 23.8792 40.9505 23.6583 40.9577H22.2909L22.2957 42.8683Z" fill="#0E1A2F"/>
<path d="M25.986 45.6758L28.0372 40.3418H28.7985L30.9854 45.6758H30.1805L29.5598 44.0562H27.3244L26.7376 45.6758H25.986ZM27.3777 39.9975V39.2508H28.0614V39.9975H27.3777ZM27.528 43.4792H29.3416L28.7791 42.0244C28.6094 41.5735 28.4833 41.2049 28.4008 40.914C28.331 41.2617 28.2353 41.6037 28.1148 41.9372L27.528 43.4792ZM28.7354 39.9975V39.2508H29.424V39.9975H28.7354Z" fill="#0E1A2F"/>
<path d="M31.6742 45.6758V40.3127H32.3725V45.6467L31.6742 45.6758Z" fill="#0E1A2F"/>
<path d="M33.3846 43.9543L34.0538 43.8961C34.0722 44.1303 34.1471 44.3566 34.272 44.5556C34.4088 44.7422 34.5953 44.8867 34.8102 44.9726C35.3009 45.1716 35.8473 45.1854 36.3474 45.0114C36.5392 44.9541 36.7086 44.839 36.8323 44.6816C36.9306 44.5482 36.9833 44.3867 36.9826 44.221C36.9848 44.0632 36.9335 43.9094 36.8372 43.7846C36.7083 43.6361 36.5403 43.5269 36.3522 43.4694C36.0344 43.3631 35.7106 43.2757 35.3824 43.2075C35.026 43.1377 34.6792 43.0254 34.3496 42.8729C34.1197 42.7641 33.9225 42.5969 33.7774 42.388C33.6505 42.19 33.5847 41.9589 33.5883 41.7237C33.5884 41.454 33.6695 41.1904 33.821 40.9673C33.9842 40.7251 34.2178 40.5389 34.4902 40.4339C34.7984 40.31 35.1278 40.2474 35.46 40.2496C35.8203 40.242 36.1784 40.308 36.5123 40.4436C36.7977 40.5514 37.0443 40.7423 37.2202 40.9915C37.382 41.244 37.4724 41.5355 37.4821 41.8353L36.8032 41.8837C36.7858 41.5898 36.6534 41.3146 36.4347 41.1176C36.1613 40.9273 35.831 40.8366 35.4988 40.8606C35.1713 40.8336 34.8441 40.9154 34.5678 41.0933C34.4774 41.158 34.4035 41.2431 34.3521 41.3417C34.3008 41.4403 34.2733 41.5495 34.272 41.6607C34.2672 41.7521 34.2835 41.8434 34.3197 41.9275C34.3558 42.0115 34.4109 42.0862 34.4805 42.1456C34.8059 42.3455 35.1691 42.4759 35.5473 42.5287C35.9506 42.6082 36.3464 42.7217 36.7305 42.8681C37.0044 42.9843 37.2422 43.1718 37.419 43.4112C37.5695 43.6362 37.6473 43.9019 37.6421 44.1725C37.6422 44.4588 37.5579 44.7388 37.3996 44.9774C37.2264 45.2364 36.9823 45.4401 36.6965 45.5642C36.3717 45.7085 36.0191 45.7797 35.6637 45.7727C35.2481 45.7851 34.8343 45.7142 34.4466 45.5642C34.1336 45.4335 33.8668 45.2123 33.6804 44.9289C33.4897 44.6394 33.387 44.3009 33.3846 43.9543Z" fill="#0E1A2F"/>
<path d="M42.423 43.7991L43.131 43.9785C43.017 44.4971 42.7359 44.9638 42.3309 45.3072C41.9257 45.6181 41.4254 45.7791 40.915 45.763C40.4224 45.7844 39.9341 45.6632 39.5088 45.4138C39.1388 45.1639 38.8518 44.8094 38.6844 44.3956C38.492 43.935 38.3962 43.4399 38.4032 42.9408C38.3909 42.4372 38.5008 41.9381 38.7232 41.4861C38.9207 41.0849 39.2374 40.7547 39.63 40.5405C40.0271 40.3245 40.4726 40.2127 40.9247 40.2157C41.409 40.1979 41.8854 40.343 42.2776 40.6278C42.6503 40.9151 42.9179 41.3174 43.0389 41.7722L42.3406 41.9371C42.2551 41.6046 42.0667 41.3076 41.8024 41.0885C41.5422 40.9042 41.2287 40.8105 40.9101 40.8218C40.5447 40.8084 40.1845 40.912 39.8821 41.1176C39.6072 41.3127 39.403 41.5917 39.3002 41.9128C39.0633 42.6345 39.0752 43.4148 39.3342 44.1288C39.4453 44.4462 39.6629 44.7152 39.95 44.8902C40.2239 45.0547 40.5373 45.1419 40.8568 45.1423C41.2234 45.1519 41.5812 45.0298 41.8654 44.798C42.157 44.5362 42.3532 44.1848 42.423 43.7991Z" fill="#0E1A2F"/>
<path d="M44.009 45.6758V40.3127H44.7169V42.5093H47.4954V40.3127H48.2034V45.6467H47.4954V43.1251H44.7169V45.6467L44.009 45.6758Z" fill="#0E1A2F"/>
<path d="M49.4111 45.6758V40.3127H53.2904V40.9431H50.1191V42.5821H53.0722V43.2221H50.1191V45.0454H53.397V45.6758H49.4111Z" fill="#0E1A2F"/>
<path d="M59.9581 40.3127H60.6661V43.4015C60.6852 43.8333 60.6277 44.2651 60.4964 44.6768C60.3672 44.9993 60.1355 45.2703 59.8369 45.4478C59.4558 45.6617 59.0224 45.7642 58.5859 45.7436C58.1619 45.7616 57.7402 45.6732 57.359 45.4866C57.0482 45.3264 56.8055 45.0596 56.6753 44.735C56.5224 44.3061 56.4533 43.8517 56.4717 43.3967V40.3127H57.1796V43.3967C57.1627 43.7444 57.2071 44.0923 57.3106 44.4247C57.3933 44.6425 57.5516 44.8232 57.7567 44.9338C57.9932 45.061 58.2593 45.1229 58.5277 45.1133C58.7271 45.132 58.9282 45.1103 59.119 45.0495C59.3098 44.9886 59.4863 44.8899 59.6381 44.7593C59.9039 44.3576 60.0205 43.8755 59.9678 43.3967L59.9581 40.3127Z" fill="#0E1A2F"/>
<path d="M61.8387 45.6758V40.3127H62.5612L65.3688 44.512V40.3127H66.0477V45.6467H65.3446L62.537 41.4425V45.6467L61.8387 45.6758Z" fill="#0E1A2F"/>
<path d="M67.3583 45.6758V40.3127H68.0663V45.6467L67.3583 45.6758Z" fill="#0E1A2F"/>
<path d="M69.0984 43.0718C69.0535 42.3102 69.3094 41.5614 69.8112 40.9867C70.0483 40.7376 70.3356 40.5417 70.6541 40.4121C70.9726 40.2825 71.3151 40.2222 71.6587 40.2351C72.1274 40.2278 72.5889 40.3503 72.9922 40.5891C73.3838 40.8154 73.6994 41.153 73.899 41.5589C74.1152 42.0127 74.2216 42.5111 74.2093 43.0136C74.2191 43.5175 74.1077 44.0164 73.8844 44.4683C73.6802 44.8789 73.3553 45.2173 72.9534 45.4381C72.556 45.6585 72.1083 45.7722 71.6539 45.7679C71.1793 45.7754 70.7122 45.6494 70.3058 45.4042C69.9139 45.1688 69.6002 44.823 69.4039 44.4101C69.2012 43.9932 69.0967 43.5354 69.0984 43.0718ZM69.8258 43.0718C69.7955 43.6273 69.9815 44.173 70.3446 44.5944C70.5095 44.7759 70.711 44.9204 70.9359 45.0182C71.1607 45.116 71.4038 45.1649 71.649 45.1617C71.8958 45.1689 72.1411 45.1223 72.368 45.0251C72.5949 44.928 72.798 44.7827 72.9631 44.5992C73.3331 44.153 73.5186 43.5824 73.482 43.0039C73.4916 42.6123 73.4155 42.2234 73.2589 41.8644C73.1256 41.5527 72.9007 41.2889 72.614 41.1079C72.3232 40.9274 71.9864 40.8347 71.6442 40.8412C71.4047 40.8374 71.1669 40.8814 70.9447 40.9704C70.7224 41.0595 70.52 41.192 70.3495 41.3601C70.1514 41.5973 70.0029 41.8719 69.913 42.1676C69.823 42.4634 69.7934 42.7741 69.8258 43.0815V43.0718Z" fill="#0E1A2F"/>
<path d="M75.1168 45.6758V40.3127H75.8393L78.6469 44.512V40.3127H79.3258V45.6467H78.6033L75.7957 41.4425V45.6467L75.1168 45.6758Z" fill="#0E1A2F"/>
<path d="M0 54.2295V49.1234H3.69013V49.7295H0.674019V51.2909H3.50102V51.8873H0.674019V53.6282H3.80651V54.2295H0Z" fill="#0E1A2F"/>
<path d="M7.08446 54.2296V53.6865C6.95927 53.883 6.78547 54.0438 6.57989 54.1534C6.3743 54.263 6.1439 54.3176 5.91099 54.3121C5.70078 54.3129 5.4927 54.27 5.30001 54.186C5.13384 54.1203 4.98821 54.0115 4.87814 53.8708C4.77846 53.7255 4.71222 53.5599 4.68418 53.3859C4.65378 53.1935 4.6408 52.9987 4.64539 52.804V50.5104H5.27577V52.5616C5.26672 52.7837 5.27971 53.0063 5.31456 53.2259C5.34775 53.3807 5.43553 53.5184 5.56186 53.6138C5.70408 53.7118 5.87419 53.7611 6.04676 53.7544C6.2329 53.7549 6.41564 53.7046 6.57531 53.609C6.73235 53.5208 6.85528 53.3825 6.92444 53.2162C7.00267 52.9837 7.03719 52.7387 7.02627 52.4937V50.5104H7.6421V54.2102L7.08446 54.2296Z" fill="#0E1A2F"/>
<path d="M8.61086 54.2295V50.5296H9.17336V51.0921C9.26755 50.8929 9.4031 50.716 9.57098 50.5733C9.68921 50.4913 9.8296 50.4473 9.97345 50.4472C10.2033 50.4533 10.4267 50.5239 10.6184 50.6508L10.4002 51.2327C10.2623 51.1453 10.1027 51.0982 9.9395 51.097C9.80664 51.0955 9.67705 51.1382 9.57098 51.2182C9.46047 51.3069 9.37934 51.4269 9.33822 51.5625C9.26814 51.8001 9.23382 52.0469 9.23639 52.2947V54.2343L8.61086 54.2295Z" fill="#0E1A2F"/>
<path d="M10.765 52.3821C10.7425 52.1019 10.782 51.8201 10.881 51.5569C10.9799 51.2937 11.1356 51.0556 11.3372 50.8595C11.6606 50.5825 12.0753 50.4356 12.501 50.4473C12.7309 50.4381 12.9602 50.4764 13.1746 50.5599C13.389 50.6433 13.5839 50.7701 13.7472 50.9322C14.0832 51.3118 14.2572 51.8079 14.2321 52.3142C14.2497 52.6992 14.1766 53.0829 14.0187 53.4344C13.8785 53.7039 13.6606 53.9252 13.3932 54.0696C13.1202 54.2206 12.813 54.2991 12.501 54.2975C12.2693 54.3093 12.0378 54.2722 11.8214 54.1886C11.605 54.1051 11.4087 53.977 11.245 53.8126C10.9023 53.4179 10.7298 52.9036 10.765 52.3821ZM11.4099 52.3821C11.3834 52.7618 11.4935 53.1384 11.7203 53.444C11.8172 53.5552 11.9368 53.6442 12.0711 53.7053C12.2053 53.7663 12.3511 53.7979 12.4985 53.7979C12.646 53.7979 12.7918 53.7663 12.926 53.7053C13.0602 53.6442 13.1799 53.5552 13.2768 53.444C13.5077 53.1312 13.6178 52.7455 13.5871 52.3579C13.6117 51.9859 13.5015 51.6176 13.2768 51.3202C13.1799 51.2091 13.0602 51.12 12.926 51.0589C12.7918 50.9979 12.646 50.9663 12.4985 50.9663C12.3511 50.9663 12.2053 50.9979 12.0711 51.0589C11.9368 51.12 11.8172 51.2091 11.7203 51.3202C11.4919 51.625 11.3816 52.0023 11.4099 52.3821Z" fill="#0E1A2F"/>
<path d="M14.9639 55.6455V50.5297H15.5361V51.0146C15.6567 50.8435 15.812 50.6998 15.9919 50.5928C16.182 50.4948 16.3939 50.4464 16.6077 50.4521C16.9039 50.4461 17.1949 50.5307 17.4418 50.6946C17.6894 50.8639 17.8803 51.1038 17.9897 51.3831C18.1138 51.6913 18.1764 52.0208 18.174 52.353C18.1792 52.7046 18.1097 53.0533 17.9703 53.3761C17.8475 53.6616 17.6413 53.9033 17.3787 54.0695C17.1358 54.2263 16.8532 54.3104 16.5641 54.312C16.3687 54.3153 16.1755 54.2703 16.0016 54.1811C15.8414 54.1009 15.7007 53.9867 15.5894 53.8465V55.6455H14.9639ZM15.5312 52.4014C15.5014 52.7755 15.6045 53.1481 15.8222 53.4537C15.9045 53.5607 16.0102 53.6473 16.1313 53.707C16.2523 53.7667 16.3855 53.7978 16.5204 53.798C16.659 53.7967 16.7954 53.7643 16.9197 53.703C17.044 53.6417 17.1528 53.5532 17.2381 53.444C17.4585 53.123 17.5628 52.7364 17.5339 52.3481C17.5619 51.9727 17.4591 51.5992 17.2429 51.291C17.1621 51.1829 17.0576 51.0948 16.9374 51.0334C16.8172 50.9721 16.6845 50.9391 16.5495 50.937C16.4103 50.9408 16.2738 50.9769 16.1509 51.0425C16.028 51.1082 15.9221 51.2016 15.8416 51.3153C15.6134 51.6295 15.5035 52.0141 15.5312 52.4014Z" fill="#0E1A2F"/>
<path d="M21.3398 53.7736C21.1406 53.9477 20.9147 54.0885 20.6706 54.1906C20.4505 54.2732 20.2171 54.3143 19.9821 54.3119C19.6424 54.3351 19.3065 54.2295 19.0413 54.0161C18.9362 53.9196 18.8528 53.8017 18.7968 53.6705C18.7407 53.5392 18.7134 53.3975 18.7165 53.2548C18.7153 53.0849 18.7588 52.9177 18.8425 52.7699C18.9196 52.6268 19.0293 52.5039 19.1626 52.411C19.3013 52.32 19.4535 52.2512 19.6135 52.2074C19.7974 52.1646 19.9836 52.1322 20.1712 52.1104C20.5491 52.0768 20.9228 52.0054 21.2865 51.897C21.2865 51.8098 21.2865 51.7564 21.2865 51.7322C21.2965 51.6352 21.2862 51.5373 21.2561 51.4446C21.2261 51.3519 21.1769 51.2665 21.1119 51.1939C20.9067 51.0376 20.6515 50.9617 20.3942 50.9806C20.1669 50.9647 19.9401 51.0188 19.7445 51.1357C19.5795 51.276 19.4696 51.4701 19.4341 51.6837L18.8183 51.6012C18.8619 51.3715 18.9563 51.1545 19.0947 50.966C19.2401 50.7919 19.4317 50.6625 19.6475 50.5926C19.9175 50.5011 20.2013 50.4568 20.4864 50.4617C20.7479 50.4543 21.0087 50.492 21.2574 50.5732C21.423 50.6283 21.5717 50.7251 21.6889 50.8545C21.7892 50.9782 21.8575 51.1248 21.8877 51.2812C21.9121 51.4725 21.9218 51.6654 21.9168 51.8582V52.6923C21.9084 53.0612 21.9213 53.4304 21.9556 53.7979C21.9848 53.9542 22.0388 54.1048 22.1156 54.244H21.461C21.3934 54.0955 21.3524 53.9363 21.3398 53.7736ZM21.2865 52.3722C20.956 52.4916 20.6125 52.5713 20.2633 52.6098C20.0778 52.6297 19.8955 52.6721 19.7202 52.7359C19.6182 52.7757 19.5315 52.8471 19.4729 52.9396C19.4019 53.051 19.3732 53.1841 19.3918 53.3148C19.4105 53.4456 19.4754 53.5653 19.5747 53.6524C19.7318 53.7751 19.9287 53.8355 20.1275 53.8221C20.3528 53.8262 20.5752 53.7711 20.7725 53.6621C20.9536 53.5659 21.0996 53.4149 21.1895 53.2305C21.2654 53.0312 21.2985 52.818 21.2865 52.605V52.3722ZM19.4438 49.8071V49.0943H20.0984V49.8071H19.4438ZM20.7434 49.8071V49.0943H21.398V49.8071H20.7434Z" fill="#0E1A2F"/>
<path d="M22.8966 49.8459V49.1234H23.5222V49.8459H22.8966ZM22.8966 54.21V50.5102H23.5222V54.21H22.8966Z" fill="#0E1A2F"/>
<path d="M24.2244 53.124L24.8451 53.027C24.8644 53.2482 24.9687 53.4533 25.1361 53.5992C25.3291 53.7415 25.5658 53.8118 25.8052 53.798C26.0325 53.8169 26.2591 53.7551 26.4453 53.6235C26.5086 53.5736 26.5601 53.5103 26.5961 53.4382C26.6322 53.3661 26.6519 53.287 26.6538 53.2064C26.6552 53.14 26.6389 53.0745 26.6065 53.0165C26.5741 52.9586 26.5268 52.9103 26.4696 52.8767C26.2669 52.7768 26.0515 52.7051 25.8295 52.6633C25.4983 52.5908 25.1738 52.4902 24.8597 52.3627C24.6931 52.2856 24.5519 52.1629 24.4524 52.0087C24.3632 51.8627 24.3162 51.6949 24.3166 51.5238C24.312 51.3553 24.3504 51.1885 24.4281 51.0389C24.5045 50.901 24.6105 50.7818 24.7384 50.6898C24.8591 50.6065 24.9938 50.5457 25.1361 50.5103C25.3121 50.4568 25.4952 50.4306 25.6792 50.4328C25.9384 50.4287 26.1963 50.4714 26.4405 50.5588C26.6316 50.6225 26.8001 50.7404 26.9254 50.8983C27.0432 51.0686 27.118 51.2649 27.1436 51.4705L26.5277 51.5529C26.5104 51.3787 26.425 51.2184 26.2901 51.1068C26.1245 50.9911 25.9245 50.9347 25.7228 50.9468C25.5072 50.9279 25.2913 50.9789 25.107 51.0922C25.0506 51.1281 25.0042 51.1775 24.972 51.236C24.9398 51.2944 24.9229 51.3601 24.9227 51.4268C24.9209 51.5066 24.9485 51.5843 25.0003 51.645C25.0628 51.7208 25.145 51.7779 25.2379 51.8099C25.3026 51.8358 25.4868 51.8891 25.7907 51.9699C26.106 52.0502 26.4168 52.1474 26.7217 52.2609C26.8862 52.3318 27.0285 52.4457 27.1339 52.5906C27.234 52.7519 27.2846 52.939 27.2794 53.1288C27.2798 53.338 27.2172 53.5424 27.0999 53.7156C26.9689 53.9073 26.7854 54.0571 26.5714 54.1471C26.3247 54.2517 26.0586 54.3029 25.7907 54.2975C25.402 54.323 25.016 54.2171 24.6948 53.9968C24.4369 53.7729 24.2696 53.4625 24.2244 53.124Z" fill="#0E1A2F"/>
<path d="M30.4568 52.8766L31.0727 52.9541C31.0255 53.3387 30.8413 53.6934 30.5538 53.9531C30.2688 54.195 29.9043 54.3228 29.5307 54.3119C29.3049 54.3228 29.0795 54.2851 28.8695 54.2015C28.6595 54.1178 28.47 53.9901 28.3135 53.827C27.9818 53.429 27.8167 52.9182 27.8529 52.4013C27.8437 52.042 27.9115 51.6849 28.0517 51.354C28.1713 51.0685 28.3829 50.8312 28.653 50.6799C28.9239 50.5331 29.2273 50.4565 29.5355 50.4569C29.8842 50.4446 30.2266 50.5524 30.5053 50.7624C30.7691 50.9794 30.9421 51.2873 30.9902 51.6255L30.3841 51.7225C30.3447 51.5062 30.2357 51.3087 30.0737 51.16C29.9254 51.0333 29.7354 50.9659 29.5403 50.9709C29.3946 50.9658 29.2496 50.9937 29.1161 51.0525C28.9826 51.1113 28.8641 51.1994 28.7693 51.3103C28.5478 51.6235 28.4431 52.0044 28.4736 52.3868C28.4416 52.7694 28.5427 53.1514 28.7597 53.4681C28.8499 53.578 28.9642 53.6657 29.0936 53.7245C29.2231 53.7834 29.3643 53.8118 29.5064 53.8076C29.7334 53.8141 29.9542 53.7325 30.1222 53.5797C30.3125 53.3916 30.4309 53.1428 30.4568 52.8766Z" fill="#0E1A2F"/>
<path d="M31.606 54.2295V49.1234H32.2315V50.9806C32.3642 50.8135 32.5331 50.6787 32.7255 50.5863C32.9178 50.4939 33.1286 50.4463 33.342 50.4472C33.5897 50.4405 33.8351 50.4973 34.0548 50.612C34.2436 50.7095 34.3952 50.8662 34.4863 51.0582C34.5867 51.3226 34.6313 51.6049 34.6173 51.8873V54.2295H33.9917V51.8873C34.0132 51.6418 33.9404 51.3974 33.7881 51.2036C33.7128 51.1285 33.6224 51.0702 33.523 51.0326C33.4235 50.995 33.3172 50.9789 33.211 50.9854C33.0265 50.9856 32.8455 51.0359 32.6873 51.1309C32.5303 51.2191 32.4074 51.3574 32.3382 51.5237C32.2596 51.7427 32.2234 51.9748 32.2315 52.2074V54.2295H31.606Z" fill="#0E1A2F"/>
<path d="M38.104 53.0366L38.749 53.119C38.6659 53.4679 38.4656 53.7777 38.1816 53.9967C37.874 54.2162 37.5021 54.3271 37.1245 54.3119C36.8883 54.3263 36.6516 54.2905 36.4301 54.207C36.2087 54.1234 36.0074 53.9939 35.8395 53.827C35.4987 53.4425 35.3243 52.9385 35.3546 52.4256C35.3221 51.8963 35.4959 51.3749 35.8395 50.9709C35.9989 50.8018 36.1925 50.6685 36.4073 50.5798C36.6222 50.4912 36.8534 50.4493 37.0857 50.4569C37.3106 50.4473 37.5349 50.4856 37.7439 50.5692C37.9529 50.6528 38.1417 50.7798 38.298 50.9418C38.636 51.3356 38.8096 51.8443 38.7829 52.3626C38.7829 52.4014 38.7829 52.4547 38.7829 52.5323H36.0092C36.0113 52.8734 36.1332 53.2029 36.3535 53.4633C36.4532 53.5684 36.5737 53.6515 36.7072 53.7075C36.8408 53.7634 36.9846 53.7909 37.1294 53.7882C37.3398 53.7921 37.5457 53.7274 37.7161 53.6039C37.8996 53.4582 38.0348 53.2604 38.104 53.0366ZM36.048 52.0231H38.1089C38.1017 51.7718 38.0189 51.5285 37.8713 51.3249C37.7785 51.2089 37.6602 51.1158 37.5257 51.0527C37.3912 50.9896 37.244 50.9583 37.0954 50.9612C36.9614 50.9571 36.828 50.9809 36.7037 51.0309C36.5793 51.081 36.4667 51.1563 36.3729 51.2521C36.1695 51.4578 36.0532 51.7339 36.048 52.0231Z" fill="#0E1A2F"/>
<path d="M39.5293 54.2295V50.5296H40.0918V51.0921C40.1856 50.8914 40.3231 50.7141 40.4942 50.5733C40.6107 50.4914 40.7495 50.4474 40.8919 50.4472C41.1218 50.4525 41.3455 50.5232 41.5368 50.6508L41.3234 51.2327C41.1783 51.1416 41.0099 51.0944 40.8385 51.097C40.7056 51.0948 40.5757 51.1375 40.47 51.2182C40.3565 51.3041 40.2747 51.4252 40.2372 51.5625C40.1655 51.7999 40.1296 52.0467 40.1306 52.2947V54.2343L39.5293 54.2295Z" fill="#0E1A2F"/>
<path d="M43.7419 52.5905L44.3771 52.5323C44.396 52.7566 44.4692 52.973 44.5905 53.1627C44.7185 53.3414 44.8952 53.4794 45.0996 53.5603C45.3489 53.6621 45.6159 53.7132 45.8852 53.7106C46.1183 53.7148 46.3502 53.6753 46.5689 53.5943C46.7425 53.535 46.8945 53.4252 47.0053 53.2791C47.1004 53.1535 47.1515 53.0001 47.1508 52.8427C47.1555 52.6913 47.1056 52.5432 47.0102 52.4256C46.8892 52.2838 46.7315 52.1781 46.5543 52.1202C46.2549 52.0221 45.9506 51.9396 45.6427 51.8728C45.3084 51.8031 44.9831 51.6957 44.6729 51.5528C44.4518 51.4426 44.2643 51.2752 44.1298 51.0679C44.0089 50.8784 43.9465 50.6574 43.9504 50.4327C43.9502 50.1771 44.0261 49.9272 44.1686 49.715C44.3229 49.4809 44.5468 49.3011 44.8087 49.201C45.106 49.0815 45.4241 49.0222 45.7446 49.0265C46.0881 49.0207 46.4293 49.0833 46.7483 49.2107C47.0187 49.3195 47.2501 49.507 47.4126 49.749C47.5683 49.9894 47.6554 50.2677 47.6648 50.5539L47.015 50.6024C47.0089 50.4627 46.9744 50.3257 46.9135 50.1998C46.8526 50.0739 46.7667 49.9617 46.661 49.8702C46.4029 49.6872 46.0892 49.5998 45.7737 49.6229C45.4599 49.5988 45.1469 49.6771 44.8814 49.8459C44.795 49.9079 44.7245 49.9894 44.6757 50.0837C44.6268 50.1781 44.6009 50.2827 44.6002 50.389C44.598 50.4742 44.6147 50.5588 44.649 50.6368C44.6834 50.7148 44.7346 50.7842 44.799 50.84C45.1092 51.0311 45.4562 51.155 45.8173 51.2037C46.2032 51.2789 46.5814 51.3892 46.9471 51.5334C47.2096 51.644 47.4374 51.8232 47.6066 52.0523C47.7484 52.2679 47.8211 52.5216 47.8151 52.7796C47.8143 53.0523 47.7333 53.3187 47.5823 53.5458C47.4181 53.7927 47.1856 53.9864 46.9132 54.1034C46.6085 54.2407 46.2776 54.3102 45.9434 54.3071C45.5472 54.3188 45.1529 54.2495 44.7844 54.1034C44.4844 53.9784 44.228 53.7676 44.0474 53.4973C43.8636 53.2291 43.7578 52.9152 43.7419 52.5905Z" fill="#0E1A2F"/>
<path d="M48.412 52.382C48.3884 52.1016 48.4275 51.8195 48.5265 51.5562C48.6255 51.2928 48.7818 51.0548 48.9842 50.8594C49.3068 50.5812 49.7221 50.4341 50.1479 50.4472C50.3778 50.4385 50.6069 50.4771 50.8213 50.5605C51.0356 50.6439 51.2306 50.7704 51.3941 50.9321C51.7302 51.3117 51.9042 51.8077 51.8791 52.3141C51.898 52.6991 51.8249 53.0831 51.6657 53.4342C51.5288 53.7045 51.3121 53.9263 51.045 54.0694C50.7718 54.2199 50.4647 54.2983 50.1528 54.2973C49.9212 54.3091 49.6896 54.272 49.4733 54.1885C49.2569 54.1049 49.0605 53.9768 48.8969 53.8124C48.5524 53.4185 48.3781 52.9042 48.412 52.382ZM49.0569 52.382C49.0282 52.7619 49.1385 53.1393 49.3672 53.4439C49.4642 53.555 49.5838 53.6441 49.7181 53.7051C49.8523 53.7662 49.9981 53.7977 50.1455 53.7977C50.293 53.7977 50.4387 53.7662 50.573 53.7051C50.7072 53.6441 50.8268 53.555 50.9238 53.4439C51.1527 53.1301 51.2627 52.7451 51.2341 52.3577C51.2595 51.9849 51.1474 51.6157 50.9189 51.32C50.8224 51.209 50.7033 51.12 50.5694 51.059C50.4356 50.998 50.2902 50.9664 50.1431 50.9664C49.996 50.9664 49.8506 50.998 49.7168 51.059C49.5829 51.12 49.4637 51.209 49.3672 51.32C49.1368 51.6238 49.0264 52.0019 49.0569 52.382Z" fill="#0E1A2F"/>
<path d="M52.2827 54.2296V53.7205L54.6345 51.0195C54.3678 51.0195 54.1496 51.0195 53.9265 51.0195H52.4184V50.5104H55.4394V50.9274L53.4416 53.2744L53.0537 53.7011C53.3349 53.7011 53.5968 53.6671 53.8441 53.6671H55.5509V54.2102L52.2827 54.2296Z" fill="#0E1A2F"/>
<path d="M56.1809 49.8459V49.1234H56.8064V49.8459H56.1809ZM56.1809 54.21V50.5102H56.8064V54.21H56.1809Z" fill="#0E1A2F"/>
<path d="M60.1706 53.7736C59.9714 53.9477 59.7454 54.0885 59.5014 54.1906C59.2796 54.273 59.0446 54.3141 58.808 54.3118C58.4698 54.3353 58.1354 54.2296 57.8721 54.0161C57.7652 53.921 57.6805 53.8034 57.6244 53.6718C57.5682 53.5402 57.5419 53.3978 57.5472 53.2548C57.5465 53.0855 57.5882 52.9188 57.6685 52.7698C57.7474 52.6266 57.8586 52.5038 57.9933 52.411C58.1309 52.3179 58.2835 52.249 58.4443 52.2074C58.6281 52.1641 58.8143 52.1317 59.002 52.1104C59.3799 52.0768 59.7536 52.0054 60.1172 51.897C60.1172 51.8097 60.1172 51.7564 60.1172 51.7321C60.1279 51.6348 60.1174 51.5363 60.0865 51.4434C60.0555 51.3505 60.0048 51.2654 59.9378 51.1939C59.7341 51.0383 59.4807 50.9625 59.225 50.9805C58.9976 50.964 58.7706 51.0182 58.5752 51.1357C58.4119 51.278 58.301 51.4709 58.26 51.6837L57.6491 51.6012C57.6887 51.3703 57.7835 51.1524 57.9255 50.966C58.0708 50.7919 58.2625 50.6625 58.4783 50.5926C58.7482 50.5007 59.032 50.4564 59.3171 50.4617C59.5771 50.4538 59.8364 50.4916 60.0833 50.5732C60.2509 50.6271 60.4014 50.7241 60.5197 50.8545C60.6193 50.9781 60.6861 51.1249 60.7137 51.2812C60.7429 51.4721 60.7542 51.6652 60.7476 51.8582V52.6923C60.7392 53.0612 60.7521 53.4304 60.7864 53.7978C60.8134 53.9547 60.8675 54.1057 60.9464 54.244H60.2918C60.2219 54.0963 60.1807 53.9367 60.1706 53.7736ZM60.1172 52.3722C59.7866 52.491 59.4432 52.5707 59.0941 52.6098C58.9071 52.6299 58.7231 52.6722 58.5461 52.7359C58.4441 52.7757 58.3575 52.8471 58.2988 52.9396C58.2304 53.0521 58.2035 53.185 58.223 53.3153C58.2425 53.4456 58.3071 53.5648 58.4055 53.6524C58.5626 53.7751 58.7594 53.8355 58.9583 53.8221C59.1836 53.8262 59.406 53.771 59.6032 53.6621C59.7826 53.5651 59.9268 53.4141 60.0154 53.2305C60.0933 53.0316 60.128 52.8183 60.1172 52.605V52.3722Z" fill="#0E1A2F"/>
<path d="M61.708 54.2295V49.1234H62.3384V54.2295H61.708Z" fill="#0E1A2F"/>
<path d="M63.4585 54.2294V51.0193H62.9203V50.5344H63.4731V50.1417C63.4646 49.9552 63.4859 49.7686 63.5361 49.5889C63.5998 49.4281 63.7115 49.2909 63.8562 49.1961C64.0495 49.0822 64.2722 49.0282 64.4962 49.0409C64.6917 49.0448 64.8864 49.0658 65.0781 49.104L64.986 49.6519C64.8645 49.6292 64.7411 49.6179 64.6175 49.618C64.5457 49.6101 64.473 49.6168 64.4039 49.6377C64.3348 49.6585 64.2705 49.693 64.215 49.7392C64.118 49.8702 64.0747 50.0332 64.0938 50.195V50.5344H64.8163V51.0193H64.0938V54.2294H63.4585Z" fill="#0E1A2F"/>
<path d="M65.0541 52.382C65.0305 52.1016 65.0697 51.8195 65.1686 51.5562C65.2676 51.2928 65.4239 51.0548 65.6263 50.8594C65.949 50.5812 66.3642 50.4341 66.7901 50.4472C67.0199 50.4385 67.2491 50.4771 67.4634 50.5605C67.6778 50.6439 67.8727 50.7704 68.0363 50.9321C68.3723 51.3117 68.5464 51.8077 68.5212 52.3141C68.5401 52.6991 68.467 53.0831 68.3078 53.4342C68.1709 53.7045 67.9542 53.9263 67.6871 54.0694C67.4141 54.2205 67.1069 54.299 66.7949 54.2973C66.5633 54.3091 66.3318 54.272 66.1154 54.1885C65.899 54.1049 65.7026 53.9768 65.539 53.8124C65.1946 53.4185 65.0202 52.9042 65.0541 52.382ZM65.699 52.382C65.6703 52.7619 65.7806 53.1393 66.0094 53.4439C66.1063 53.555 66.2259 53.6441 66.3602 53.7051C66.4944 53.7662 66.6402 53.7977 66.7876 53.7977C66.9351 53.7977 67.0809 53.7662 67.2151 53.7051C67.3493 53.6441 67.469 53.555 67.5659 53.4439C67.7948 53.1301 67.9048 52.7451 67.8763 52.3577C67.9017 51.9849 67.7895 51.6157 67.5611 51.32C67.4646 51.209 67.3454 51.12 67.2115 51.059C67.0777 50.998 66.9323 50.9664 66.7852 50.9664C66.6381 50.9664 66.4928 50.998 66.3589 51.059C66.2251 51.12 66.1059 51.209 66.0094 51.32C65.779 51.6238 65.6685 52.0019 65.699 52.382Z" fill="#0E1A2F"/>
<path d="M69.2544 54.2296V50.5298H69.8169V51.0583C69.9425 50.8621 70.1174 50.7024 70.3243 50.5951C70.5311 50.4879 70.7625 50.4369 70.9952 50.4473C71.2067 50.4444 71.4164 50.4857 71.611 50.5685C71.7763 50.6335 71.9205 50.7425 72.028 50.8837C72.1245 51.0219 72.1906 51.1789 72.222 51.3444C72.251 51.5467 72.2624 51.7511 72.2559 51.9554V54.2296H71.6498V51.9796C71.6587 51.7861 71.6341 51.5926 71.5771 51.4074C71.5271 51.2803 71.4368 51.173 71.3201 51.1019C71.1856 51.026 71.0332 50.9874 70.8788 50.9904C70.6251 50.9864 70.3793 51.0782 70.1902 51.2474C70.0763 51.3795 69.9915 51.5342 69.9414 51.7013C69.8913 51.8684 69.8769 52.0442 69.8993 52.2172V54.2393L69.2544 54.2296Z" fill="#0E1A2F"/>
<path d="M75.6153 54.2294V53.7445C75.508 53.9199 75.3555 54.0633 75.1738 54.1597C74.9921 54.256 74.7879 54.3019 74.5825 54.2925C74.2929 54.2945 74.0092 54.2101 73.7679 54.05C73.5171 53.8799 73.3189 53.6431 73.1957 53.3663C73.0547 53.0508 72.9852 52.708 72.992 52.3625C72.9881 52.0192 73.0507 51.6784 73.1763 51.3588C73.2847 51.0775 73.4779 50.8369 73.7291 50.6702C73.9738 50.5096 74.2607 50.4252 74.5534 50.4278C74.7608 50.4249 74.9656 50.4732 75.1498 50.5684C75.3171 50.6589 75.4627 50.7847 75.5766 50.9369V49.104H76.1972V54.2294H75.6153ZM73.6369 52.3819C73.6071 52.7597 73.7119 53.1359 73.9327 53.4439C74.0161 53.5528 74.1231 53.6413 74.2458 53.7027C74.3685 53.764 74.5035 53.7966 74.6407 53.7979C74.7754 53.799 74.9085 53.769 75.0296 53.7101C75.1508 53.6512 75.2566 53.565 75.339 53.4584C75.5537 53.1626 75.6552 52.7996 75.625 52.4353C75.6564 52.0414 75.5539 51.6484 75.3341 51.32C75.2488 51.2097 75.1393 51.1204 75.014 51.059C74.8888 50.9976 74.7511 50.9658 74.6116 50.966C74.4771 50.966 74.3443 50.9965 74.2234 51.0553C74.1024 51.1141 73.9964 51.1997 73.9133 51.3055C73.7037 51.6234 73.6064 52.0023 73.6369 52.3819Z" fill="#0E1A2F"/>
<path d="M76.9352 53.1241L77.551 53.0271C77.5728 53.2476 77.6766 53.4518 77.842 53.5993C78.035 53.7415 78.2717 53.8119 78.5111 53.7981C78.7384 53.8169 78.965 53.7551 79.1512 53.6235C79.2145 53.5736 79.266 53.5104 79.302 53.4383C79.3381 53.3662 79.3578 53.287 79.3597 53.2065C79.3611 53.1401 79.3448 53.0745 79.3124 53.0166C79.28 52.9586 79.2327 52.9104 79.1755 52.8767C78.9728 52.7769 78.7575 52.7051 78.5354 52.6634C78.2042 52.5909 77.8797 52.4903 77.5656 52.3628C77.399 52.2857 77.2578 52.1629 77.1583 52.0088C77.0711 51.8619 77.0243 51.6946 77.0225 51.5239C77.018 51.3554 77.0563 51.1885 77.134 51.039C77.2104 50.9011 77.3164 50.7818 77.4444 50.6898C77.565 50.6066 77.6997 50.5458 77.842 50.5104C78.018 50.4569 78.2011 50.4307 78.3851 50.4328C78.6444 50.4283 78.9024 50.4711 79.1464 50.5589C79.3375 50.6226 79.506 50.7405 79.6313 50.8983C79.7491 51.0687 79.8239 51.265 79.8495 51.4705L79.2385 51.553C79.2175 51.3788 79.1307 51.2192 78.996 51.1068C78.8289 51.0051 78.6331 50.9608 78.4384 50.9808C78.2228 50.9619 78.0069 51.0129 77.8226 51.1262C77.7671 51.163 77.7214 51.2126 77.6893 51.2709C77.6573 51.3292 77.6398 51.3943 77.6383 51.4608C77.6365 51.5406 77.6641 51.6183 77.7159 51.679C77.7784 51.7548 77.8606 51.8119 77.9535 51.8439C78.0149 51.8698 78.1992 51.9231 78.5063 52.0039C78.8218 52.0835 79.1326 52.1806 79.4373 52.2949C79.6018 52.3658 79.7441 52.4797 79.8495 52.6246C79.9513 52.7854 80.0036 52.9726 79.9998 53.1628C79.9985 53.3724 79.9343 53.5768 79.8155 53.7496C79.6858 53.9424 79.5019 54.0926 79.287 54.1811C79.0403 54.2857 78.7742 54.3369 78.5063 54.3315C78.1176 54.357 77.7316 54.2511 77.4104 54.0308C77.1414 53.8009 76.9712 53.4762 76.9352 53.1241Z" fill="#0E1A2F"/>
</svg>
