<svg width="120" height="27" viewBox="0 0 120 27" fill="none" xmlns="http://www.w3.org/2000/svg">
<g clip-path="url(#clip0_4216_778)">
<path d="M49.9042 5.60619V20.9616H47.2383V8.91188H47.2028L42.4398 20.9616H40.6625L35.7928 8.91188H35.7573V20.9616H33.3047V5.60619H37.1436L41.5511 16.9806H41.6222L46.2786 5.60619H49.9042ZM52.108 6.77918C52.108 6.35264 52.2502 5.99719 52.5701 5.71283C52.89 5.42847 53.2454 5.28629 53.672 5.28629C54.1341 5.28629 54.5251 5.42847 54.8094 5.71283C55.0938 5.99719 55.2715 6.35264 55.2715 6.77918C55.2715 7.20572 55.1293 7.56117 54.8094 7.84553C54.4895 8.12989 54.1341 8.27207 53.672 8.27207C53.2099 8.27207 52.8545 8.12989 52.5701 7.84553C52.2857 7.52562 52.108 7.17017 52.108 6.77918ZM54.9872 9.94268V20.9616H52.3924V9.94268H54.9872ZM62.8426 19.0778C63.2336 19.0778 63.6601 19.0067 64.1222 18.7934C64.5843 18.6157 65.0109 18.3669 65.4018 18.0825V20.4996C64.9753 20.7484 64.5132 20.9261 63.98 21.0327C63.4469 21.1394 62.8782 21.2105 62.2383 21.2105C60.6033 21.2105 59.2881 20.7128 58.2928 19.682C57.262 18.6512 56.7644 17.336 56.7644 15.7721C56.7644 13.9948 57.2976 12.5375 58.3284 11.4C59.3592 10.2626 60.8165 9.69387 62.736 9.69387C63.2336 9.69387 63.7312 9.76496 64.1933 9.87159C64.6909 9.97823 65.0819 10.156 65.3663 10.2981V12.7863C64.9753 12.5019 64.5488 12.2531 64.1578 12.1109C63.7312 11.9688 63.3047 11.8621 62.8781 11.8621C61.8473 11.8621 61.0298 12.182 60.39 12.8574C59.7502 13.5327 59.4658 14.4214 59.4658 15.5588C59.4658 16.6607 59.7857 17.5493 60.39 18.1536C60.9943 18.7578 61.8118 19.0778 62.8426 19.0778ZM72.7597 9.76496C72.9729 9.76496 73.1507 9.76496 73.3284 9.8005C73.5061 9.83605 73.6483 9.87159 73.7549 9.90714V12.5375C73.6127 12.4308 73.435 12.3242 73.1507 12.2531C72.8663 12.182 72.5819 12.1109 72.1909 12.1109C71.5511 12.1109 71.018 12.3953 70.5914 12.9285C70.1649 13.4616 69.9161 14.2792 69.9161 15.4166V20.9616H67.3213V9.94268H69.9161V11.6844H69.9516C70.2004 11.0801 70.5559 10.618 71.018 10.2626C71.5156 9.94268 72.0843 9.76496 72.7597 9.76496ZM73.8971 15.6299C73.8971 13.8171 74.4303 12.3597 75.4255 11.2934C76.4563 10.227 77.8781 9.69387 79.6909 9.69387C81.3971 9.69387 82.7478 10.1915 83.7075 11.2223C84.6672 12.2531 85.1649 13.6394 85.1649 15.3811C85.1649 17.1583 84.6317 18.5801 83.6364 19.6465C82.6056 20.7128 81.2194 21.246 79.4421 21.246C77.736 21.246 76.3853 20.7484 75.39 19.7531C74.3947 18.7223 73.8971 17.336 73.8971 15.6299ZM76.5985 15.5233C76.5985 16.6607 76.8473 17.5493 77.3805 18.1536C77.9137 18.7578 78.6601 19.0778 79.6199 19.0778C80.544 19.0778 81.2905 18.7934 81.7881 18.1536C82.2857 17.5493 82.5345 16.6607 82.5345 15.4522C82.5345 14.2792 82.2857 13.3906 81.7881 12.7507C81.2905 12.1465 80.544 11.8266 79.6554 11.8266C78.6957 11.8266 77.9848 12.1465 77.4516 12.7863C76.8473 13.4616 76.5985 14.3503 76.5985 15.5233ZM89.0393 12.8574C89.0393 13.2128 89.1459 13.5327 89.3947 13.746C89.6436 13.9593 90.1412 14.2081 90.9587 14.528C91.9895 14.9545 92.736 15.4166 93.127 15.9142C93.5535 16.4474 93.7668 17.0517 93.7668 17.7981C93.7668 18.8289 93.3758 19.6465 92.5582 20.2863C91.7763 20.9261 90.6744 21.2105 89.3236 21.2105C88.8616 21.2105 88.3639 21.1394 87.7952 21.0327C87.2265 20.9261 86.7644 20.7839 86.3734 20.6062V18.0469C86.8355 18.3669 87.3687 18.6512 87.9018 18.8289C88.435 19.0067 88.9327 19.1133 89.3947 19.1133C89.9635 19.1133 90.4255 19.0422 90.6744 18.8645C90.9587 18.6868 91.1009 18.4379 91.1009 18.0469C91.1009 17.6915 90.9587 17.4071 90.6744 17.1228C90.39 16.874 89.8213 16.5896 89.0393 16.2697C88.0796 15.8787 87.4042 15.4166 87.0132 14.919C86.6222 14.4214 86.409 13.7815 86.409 12.9996C86.409 12.0043 86.7999 11.1868 87.5819 10.5469C88.3639 9.90714 89.3947 9.58723 90.6388 9.58723C91.0298 9.58723 91.4564 9.62278 91.9184 9.72941C92.3805 9.83605 92.8071 9.94268 93.127 10.0493V12.573C92.7715 12.3597 92.3805 12.1465 91.9184 11.9687C91.4564 11.791 90.9943 11.7199 90.5677 11.7199C90.0701 11.7199 89.6791 11.8266 89.4303 12.0043C89.1815 12.2531 89.0393 12.5019 89.0393 12.8574ZM94.8687 15.6299C94.8687 13.8171 95.4019 12.3597 96.3971 11.2934C97.4279 10.227 98.8497 9.69387 100.663 9.69387C102.369 9.69387 103.719 10.1915 104.679 11.2223C105.639 12.2531 106.136 13.6394 106.136 15.3811C106.136 17.1583 105.603 18.5801 104.608 19.6465C103.577 20.7128 102.191 21.246 100.414 21.246C98.7075 21.246 97.3568 20.7484 96.3616 19.7531C95.4018 18.7223 94.8687 17.336 94.8687 15.6299ZM97.5701 15.5233C97.5701 16.6607 97.8189 17.5493 98.3521 18.1536C98.8853 18.7578 99.6317 19.0778 100.591 19.0778C101.516 19.0778 102.262 18.7934 102.76 18.1536C103.257 17.5493 103.506 16.6607 103.506 15.4522C103.506 14.2792 103.257 13.3906 102.76 12.7507C102.262 12.1465 101.516 11.8266 100.627 11.8266C99.6673 11.8266 98.9563 12.1465 98.4232 12.7863C97.8545 13.4616 97.5701 14.3503 97.5701 15.5233ZM114.774 12.0754H110.899V20.9616H108.269V12.0754H106.421V9.94268H108.269V8.41425C108.269 7.27681 108.66 6.31709 109.407 5.57065C110.153 4.8242 111.113 4.46875 112.286 4.46875C112.606 4.46875 112.89 4.5043 113.139 4.5043C113.388 4.5043 113.601 4.57539 113.779 4.64648V6.88581C113.708 6.85027 113.53 6.77918 113.317 6.70809C113.103 6.637 112.854 6.60145 112.57 6.60145C112.037 6.60145 111.61 6.77918 111.326 7.09908C111.042 7.41899 110.899 7.95216 110.899 8.59197V9.90714H114.774V7.41899L117.369 6.637V9.90714H119.999V12.0398H117.369V17.1939C117.369 17.8692 117.511 18.3313 117.724 18.6157C117.973 18.9 118.364 19.0422 118.897 19.0422C119.039 19.0422 119.217 19.0067 119.43 18.9356C119.644 18.8645 119.821 18.7934 119.963 18.6868V20.8195C119.786 20.9261 119.537 20.9972 119.146 21.0683C118.755 21.1394 118.399 21.1749 118.008 21.1749C116.907 21.1749 116.089 20.8906 115.556 20.3218C115.023 19.7531 114.738 18.8645 114.738 17.6915L114.774 12.0754Z" fill="#0E1A2F"/>
<path d="M12.1564 0.488281H0V12.6447H12.1564V0.488281Z" fill="#0E1A2F"/>
<path d="M25.5939 0.488281H13.4375V12.6447H25.5939V0.488281Z" fill="#0E1A2F"/>
<path d="M12.1564 13.9238H0V26.0802H12.1564V13.9238Z" fill="#0E1A2F"/>
<path d="M25.5939 13.9238H13.4375V26.0802H25.5939V13.9238Z" fill="#0E1A2F"/>
</g>
<defs>
<clipPath id="clip0_4216_778">
<rect width="120" height="25.5924" fill="white" transform="translate(0 0.488281)"/>
</clipPath>
</defs>
</svg>
