<svg width="128" height="15" viewBox="0 0 128 15" fill="none" xmlns="http://www.w3.org/2000/svg">
<path d="M104.449 11.6739C104.448 11.6725 104.448 11.6717 104.447 11.6703C104.471 11.6803 104.495 11.6902 104.518 11.7001C104.495 11.6924 104.471 11.6833 104.449 11.6739ZM103.424 6.07071C103.453 6.08015 103.481 6.09225 103.509 6.10522C103.509 6.10573 103.509 6.10573 103.509 6.10608C103.481 6.09445 103.452 6.08235 103.424 6.07071ZM123.652 6.62077C122.457 6.85987 121.26 7.09372 120.074 7.37202C118.734 7.68732 117.385 7.98363 116.061 8.36221C114.49 8.81366 112.926 9.28881 111.364 9.76904C110.236 10.115 109.133 10.5366 108.005 10.8847C107.422 11.0643 106.83 11.197 106.234 11.3224C105.775 11.4193 105.325 11.5389 104.864 11.6182C104.72 11.63 104.579 11.635 104.435 11.6303C104.487 11.4378 104.554 11.2495 104.608 11.0557C104.662 10.8597 104.716 10.6628 104.77 10.4673C104.942 9.84576 105.132 9.23028 105.286 8.60484C105.388 8.18875 105.477 7.76391 105.544 7.34105C105.579 7.11491 105.6 6.89351 105.606 6.66518C105.61 6.45502 105.562 6.24081 105.53 6.03505C105.474 5.6706 105.326 5.30533 105.125 4.9986C105.005 4.81601 104.852 4.6597 104.669 4.53939C104.47 4.40767 104.245 4.32152 104.014 4.25993C103.822 4.20863 103.612 4.19971 103.415 4.18153C103.227 4.16387 103.038 4.1768 102.85 4.18791C102.364 4.21634 101.894 4.37537 101.433 4.51669C101.081 4.62524 100.726 4.72737 100.373 4.83367C99.7635 5.01674 99.1501 5.18989 98.5453 5.38842C97.2522 5.81279 95.9513 6.21979 94.666 6.66819C93.0808 7.22178 91.4957 7.77485 89.9106 8.32822C88.4449 8.84041 86.9757 9.35041 85.4922 9.80906C84.5798 10.0921 83.6536 10.3325 82.7312 10.581C81.8054 10.8301 80.874 11.0501 79.9257 11.1913C78.9596 11.3025 77.9733 11.3619 77.0033 11.2685C76.7057 11.2172 76.4188 11.1466 76.1355 11.0449C75.9551 10.9536 75.7859 10.8533 75.6189 10.7404C75.487 10.6285 75.3637 10.5109 75.2456 10.3828C75.2071 10.3248 75.1716 10.2662 75.1387 10.2045C75.0526 9.93057 74.9951 9.65107 74.9497 9.36807C74.9138 8.86027 74.9194 8.34894 74.9099 7.83946C74.9008 7.36767 74.8921 6.89653 74.883 6.42491C74.8696 5.7073 74.8567 4.98478 74.7615 4.27238C74.6382 3.35589 74.4439 2.39918 73.9404 1.60868C73.8223 1.42446 73.6617 1.24949 73.516 1.0871C73.3641 0.919198 73.1738 0.774298 72.9916 0.641199C72.6438 0.386632 72.2704 0.200208 71.8525 0.0856314C71.6466 0.0301085 71.419 0.0218811 71.2071 0.00503922C71.1621 0.00116253 71.1162 0 71.0703 0C70.9146 0 70.7576 0.0171432 70.6044 0.0304527C70.0835 0.077404 69.5614 0.168419 69.0565 0.298804C68.5906 0.419455 68.1389 0.598642 67.6872 0.763185C67.2403 0.925573 66.7908 1.08021 66.3457 1.24695C65.3796 1.61006 64.43 2.01758 63.4878 2.43618C62.6065 2.82806 61.7391 3.25023 60.876 3.68097C60.3941 3.92223 59.91 4.16 59.438 4.41978C58.7212 4.81351 58.0047 5.20756 57.2887 5.60078C56.1951 6.20162 55.1006 6.80047 54.0086 7.40467C52.7804 8.08494 51.5518 8.76503 50.3235 9.44513C48.789 10.2942 47.2303 11.1087 45.6171 11.8004C44.9703 12.0646 44.317 12.3104 43.6594 12.5431C43.0105 12.7726 42.349 12.9545 41.6698 13.0669C41.1394 13.1268 40.6116 13.1569 40.0786 13.113C39.9069 13.0815 39.7416 13.041 39.5759 12.9863C39.4708 12.9316 39.373 12.8722 39.2757 12.8057C39.1554 12.6964 39.0464 12.5848 38.94 12.463C38.9118 12.4208 38.8855 12.3772 38.8612 12.3329C38.7561 12.0254 38.6973 11.7074 38.6441 11.3865C38.5956 10.9165 38.5722 10.4427 38.5381 9.97145C38.5052 9.5072 38.4719 9.04333 38.4386 8.57943C38.3858 7.83675 38.3057 7.08984 38.1721 6.3581C38.0942 5.9368 37.9536 5.5232 37.8169 5.11839C37.6624 4.66224 37.4634 4.21737 37.219 3.80244C37.01 3.44893 36.7206 3.13531 36.4243 2.85313C36.1128 2.55601 35.7442 2.30614 35.376 2.08555C35.01 1.86579 34.5965 1.71081 34.1902 1.58633C33.691 1.43303 33.148 1.38728 32.6297 1.34774C30.5989 1.19259 28.5792 1.61945 26.6056 2.04028C24.5877 2.47068 22.6011 3.04007 20.6268 3.63454C19.7338 3.90323 18.8333 4.15866 17.9538 4.46892C16.548 4.96595 15.1499 5.484 13.7564 6.01605C11.4621 6.89132 9.18278 7.80716 6.91792 8.75427C6.30922 9.00969 5.70117 9.26594 5.09434 9.5252C4.54292 9.76095 4.00058 10.0206 3.45764 10.276C2.29817 10.8235 1.15103 11.3956 0.00121101 11.9624C-0.0012982 11.9633 0.000561666 11.9666 0.00255173 11.9658C2.10332 11.3658 4.18631 10.7089 6.29097 10.1235C7.98611 9.65244 9.67571 9.16213 11.3599 8.65347C13.2213 8.0905 15.0762 7.50344 16.9215 6.88877C17.4539 6.71079 17.9851 6.5304 18.5164 6.34734C19.4633 6.02075 20.424 5.7278 21.381 5.429C22.7985 4.98396 24.2246 4.56481 25.6636 4.1923C26.3818 4.00704 27.1055 3.84332 27.8294 3.68063C28.6149 3.50364 29.4016 3.33905 30.1984 3.21926C31.1846 3.09913 32.1834 3.06381 33.1718 3.1693C33.5162 3.22783 33.8458 3.3098 34.1712 3.43244C34.4515 3.56941 34.7141 3.72486 34.9698 3.90375C35.1878 4.08242 35.3877 4.27203 35.5759 4.48357C35.7515 4.73322 35.8952 4.99555 36.0224 5.2735C36.2677 5.90398 36.455 6.54806 36.5636 7.21605C36.6864 8.22105 36.744 9.23062 36.8106 10.2403C36.8236 10.441 36.8344 10.6418 36.8435 10.842C36.8638 11.2879 36.9153 11.7255 36.9862 12.1654C37.0183 12.3651 37.0572 12.5589 37.1082 12.7549C37.1597 12.9523 37.2588 13.1409 37.3509 13.3214C37.4457 13.5084 37.6066 13.6746 37.736 13.8383C37.8299 13.9482 37.9307 14.0498 38.0401 14.1446C38.1569 14.2376 38.2742 14.3298 38.3936 14.4198C38.7427 14.6477 39.1186 14.7937 39.5244 14.8871C39.9372 14.9815 40.3737 14.9991 40.7946 15C41.784 15.0017 42.7665 14.8006 43.7079 14.5159C44.1665 14.3771 44.6168 14.2078 45.0659 14.0416C45.5188 13.8727 45.9692 13.6983 46.4144 13.5104C47.3869 13.0995 48.3318 12.6356 49.2718 12.1576C49.682 11.9486 50.0956 11.7457 50.4979 11.5218C50.7899 11.3594 51.0815 11.1965 51.3735 11.0333C52.2491 10.5462 53.1243 10.0589 53.9995 9.57099C55.0127 9.00664 56.0264 8.44366 57.0404 7.8815C58.106 7.29109 59.1715 6.70102 60.2371 6.11043C60.7575 5.82222 61.2888 5.55602 61.8192 5.28681C62.982 4.69924 64.1588 4.14066 65.3584 3.63101C66.1428 3.30627 66.9341 3.00256 67.7357 2.72171C68.5265 2.44613 69.3204 2.15757 70.1484 2.01758C70.517 1.97752 70.8809 1.95078 71.2503 1.97869C71.3035 1.99032 71.3554 2.00376 71.4069 2.02008C71.5172 2.07526 71.6211 2.13604 71.7266 2.20401C71.8651 2.32328 71.9927 2.44863 72.1143 2.5856C72.1861 2.69294 72.2505 2.80015 72.3107 2.9152C72.4893 3.40401 72.5841 3.91534 72.668 4.42973C72.7381 5.0913 72.742 5.75976 72.7463 6.42491C72.7494 6.89653 72.7519 7.36767 72.7554 7.83946C72.7584 8.3666 72.7416 8.8946 72.7723 9.42023C72.7857 9.65662 72.832 9.89486 72.8688 10.1282C72.8995 10.3256 72.9388 10.5181 72.9864 10.7124C73.0401 10.9282 73.1448 11.1311 73.2317 11.3348C73.2884 11.4464 73.3568 11.5502 73.4372 11.6463C73.5307 11.7755 73.631 11.8987 73.7375 12.0171C73.8685 12.1701 74.0286 12.2971 74.1848 12.4238C74.3643 12.5688 74.5517 12.7007 74.7463 12.8264C74.9112 12.9324 75.0911 13.0103 75.2715 13.0862C75.4948 13.1806 75.7076 13.2585 75.9399 13.3253C76.3795 13.451 76.8549 13.4899 77.3092 13.525C77.8279 13.5664 78.3527 13.5385 78.8709 13.5092C79.8244 13.4554 80.7676 13.3132 81.7003 13.1111C82.7083 12.8916 83.6986 12.5912 84.6919 12.3139C86.6227 11.7755 88.4955 11.0532 90.3826 10.3847C90.9601 10.1796 91.532 9.95947 92.1066 9.74751C93.4023 9.26947 94.6928 8.77666 95.9963 8.32098C97.0735 7.94361 98.1499 7.56249 99.2284 7.19029C99.7363 7.01584 100.254 6.8681 100.766 6.70692C101.043 6.61991 101.319 6.53341 101.596 6.44645C102.03 6.30982 102.469 6.17284 102.917 6.09057C103.091 6.08454 103.259 6.08924 103.43 6.10435C103.459 6.11043 103.487 6.11685 103.514 6.12421C103.548 6.23444 103.574 6.34346 103.597 6.45537C103.608 6.6122 103.607 6.76464 103.594 6.92143C103.435 7.78041 103.182 8.61949 102.91 9.44901C102.771 9.87367 102.642 10.3036 102.485 10.7224C102.432 10.8464 102.381 10.9709 102.332 11.0966C102.253 11.299 102.247 11.5261 102.235 11.7402C102.247 11.8371 102.261 11.9335 102.274 12.0304C102.284 12.145 102.309 12.2565 102.346 12.3661C102.403 12.5719 102.511 12.7718 102.612 12.9584C102.646 13.0026 102.679 13.0457 102.713 13.0896C102.787 13.2188 102.883 13.3257 103.003 13.4101C103.203 13.5738 103.395 13.6871 103.644 13.7655C104.079 13.9024 104.531 13.924 104.983 13.8844C105.417 13.8469 105.848 13.7594 106.273 13.6686C106.678 13.5819 107.084 13.5015 107.488 13.4126C108.484 13.1926 109.452 12.8493 110.407 12.4965C112.255 11.8142 114.093 11.11 115.92 10.3769C118.45 9.36169 121.006 8.41355 123.555 7.44994C124.214 7.20192 124.871 6.95257 125.53 6.70606C126.35 6.39933 127.167 6.08015 127.999 5.80456C128.001 5.80422 128 5.79982 127.997 5.80068C126.541 6.02208 125.095 6.33269 123.652 6.62077Z" fill="#FFAE45"/>
</svg>
