<svg width="10" height="7" viewBox="0 0 10 7" fill="none" xmlns="http://www.w3.org/2000/svg">
<path d="M4.98716 6.34766C4.8991 6.34766 4.81838 6.33299 4.74499 6.30363C4.67161 6.27428 4.59822 6.22291 4.52484 6.14952L0.165764 1.79045C0.0483478 1.67303 -0.00669099 1.51526 0.000647515 1.31712C0.00798602 1.11898 0.0703633 0.961199 0.187779 0.843783C0.33455 0.697013 0.492327 0.634636 0.661113 0.656651C0.829899 0.678667 0.980338 0.748382 1.11243 0.865799L4.98716 4.74053L8.86189 0.865799C8.97931 0.748382 9.13709 0.682336 9.33523 0.667659C9.53337 0.652982 9.69114 0.719028 9.80856 0.865799C9.95533 0.983215 10.0177 1.13732 9.99569 1.32812C9.97368 1.51893 9.90396 1.68037 9.78654 1.81247L5.44949 6.14952C5.3761 6.22291 5.30272 6.27428 5.22933 6.30363C5.15595 6.33299 5.07522 6.34766 4.98716 6.34766Z" fill="#FFFBF6"/>
</svg>
